<svg aria-hidden="true" width="100%" height="100%" preserveAspectRatio="xMidYMid meet" viewBox="0 0 256 256" fill="currentColor" version="1.1" id="svg9666">
  <defs id="defs9670" />
  <path mask="url(#footer-sample-full-3)" d="M 128 7.3867188 C 61.333 7.3867187 7.3867188 61.333 7.3867188 128 C 7.3867187 194.667 61.333 248.61328 128 248.61328 C 194.667 248.61328 248.61328 194.667 248.61328 128 C 248.61328 61.333 194.667 7.3867188 128 7.3867188 z M 86.332031 71.859375 C 93.350031 71.859375 99.930359 72.736688 105.19336 74.929688 C 110.89536 77.122687 116.15888 80.192125 121.42188 84.578125 L 109.14062 101.24609 C 105.63062 98.614094 102.12273 96.860922 99.052734 95.544922 C 95.982734 94.228922 92.034391 93.789062 88.525391 93.789062 C 73.613391 93.789062 66.158203 105.19345 66.158203 128.43945 C 66.158203 140.28145 67.911375 148.61445 71.859375 153.43945 C 75.806375 158.70245 81.069391 160.89453 88.525391 160.89453 C 92.035391 160.89453 95.543281 160.45663 98.613281 159.14062 C 101.68328 157.82563 105.19212 156.07045 109.57812 153.43945 L 121.85938 170.98242 C 111.77237 179.31642 100.36894 183.26367 87.210938 183.26367 C 76.683937 183.26367 67.911578 181.06959 60.017578 176.68359 C 52.560578 172.29759 46.421609 165.71972 42.474609 157.38672 C 38.526609 149.05372 36.333984 139.404 36.333984 128 C 36.333984 117.035 38.526609 106.94628 42.474609 98.613281 C 46.421609 89.841281 52.560578 83.264453 60.017578 78.439453 C 67.473578 74.491453 76.245031 71.859375 86.332031 71.859375 z M 123.17578 75.806641 L 153.43945 75.806641 L 174.49023 163.08789 L 196.85938 75.806641 L 226.24609 75.806641 L 192.03516 181.07031 C 187.64916 194.66731 181.06938 204.75494 171.85938 212.21094 C 162.64937 219.66794 150.36758 223.61369 135.01758 224.92969 L 131.94727 204.75391 C 142.03427 203.43891 149.49141 201.24533 154.31641 197.73633 C 156.07041 196.42033 159.57812 192.47461 159.57812 192.47461 L 123.17578 75.806641 z " id="path9662" />
</svg>