<?xml version="1.0" encoding="UTF-8" standalone="no"?>
<svg viewBox="0 0 74.083 74.083336" height="100%" width="100%" fill="currentColor" color="#57939c">
   <g transform="translate(-0.1,-222.91667)">
      <path id="path12491" d="m 21.266571,294.23488 c -3.286478,-0.929 -5.951488,-2.92064 -6.767613,-5.05764 -0.825879,-2.16255 -0.467399,-4.08315 1.848641,-9.90432 1.129004,-2.83765 2.3273,-5.81422 2.66288,-6.61458 1.481927,-3.53442 1.880381,-4.52795 8.594996,-21.43125 0.606965,-1.52797 1.209609,-3.01625 1.339207,-3.30729 1.032325,-2.31831 1.0531,-2.49642 1.0531,-9.02815 v -6.44998 h 8.202047 8.202046 v 6.45079 c 0,7.34997 -0.371489,5.65703 3.27935,14.94464 1.065991,2.71184 2.628788,6.71655 3.472884,8.89936 0.844097,2.18282 2.300976,5.93328 3.237507,8.33438 0.936533,2.40109 1.979841,5.08 2.318462,5.95312 0.338622,0.87313 1.149384,2.95672 1.801693,4.63021 1.501615,3.85238 1.687645,5.03847 1.106067,7.05204 -0.74151,2.56728 -3.226828,4.57231 -6.881625,5.55174 -1.862296,0.49907 -31.695235,0.47851 -33.469642,-0.0231 z m 31.506863,-3.0649 c 3.39234,-1.07543 5.346006,-3.24694 5.345305,-5.94134 -2.64e-4,-1.06516 -0.540364,-2.67343 -2.749765,-8.18825 l -2.749419,-6.86273 -1.32291,-0.34664 c -9.153058,-2.39831 -18.265381,-2.46249 -26.327101,-0.18543 l -1.456379,0.41135 -1.165524,2.82206 c -1.55336,3.76111 -1.636109,3.95718 -3.089269,7.31996 -1.852299,4.28644 -1.886926,6.4912 -0.132408,8.43052 0.96356,1.06504 2.476783,1.98108 4.219906,2.55453 1.369767,0.45063 2.571812,0.4924 14.610964,0.50768 12.485755,0.0159 13.200302,-0.009 14.8166,-0.52171 z M 28.591589,277.42516 c -1.793841,-0.33977 -3.024352,-1.56372 -2.734235,-2.71964 0.533018,-2.12373 5.625615,-2.70271 7.478119,-0.8502 1.911886,1.9119 -1.18668,4.24361 -4.743884,3.56984 z m 14.899882,-0.005 c -2.246339,-0.41113 -3.332176,-1.64148 -2.690871,-3.04899 0.468061,-1.02729 1.797528,-1.566 3.881491,-1.5728 2.047847,-0.007 3.264102,0.51015 3.871549,1.64518 0.935573,1.74814 -2.08141,3.52216 -5.062169,2.97661 z M 32.514017,264.33989 c 1.272428,-0.53166 1.97945,-1.7982 1.980672,-3.54811 7.94e-4,-1.25278 -0.100644,-1.51716 -0.882995,-2.29951 -1.14835,-1.14836 -2.119941,-1.39222 -3.20935,-0.80553 -2.436031,1.31189 -2.354627,5.31545 0.133604,6.57067 1.097502,0.55364 0.872827,0.54428 1.978069,0.0825 z m 11.415777,-2.94002 c 1.191464,-0.90878 1.678335,-1.94098 1.678335,-3.5582 0,-4.88275 -5.802287,-5.83754 -6.833527,-1.12448 -0.816504,3.73165 2.478295,6.72446 5.155192,4.68268 z M 19.546788,247.01351 c -0.436561,-0.12171 -1.251549,-0.4204 -1.811084,-0.66375 -0.902762,-0.39263 -0.997723,-0.52061 -0.843187,-1.13633 0.266372,-1.06132 1.921801,-3.40932 3.137128,-4.4496 1.907989,-1.63318 3.729467,-2.35683 6.197842,-2.46233 l 2.182802,-0.0933 v 3.17992 3.17992 l -0.992183,0.7571 c -1.674403,1.27768 -2.961113,1.73939 -5.093206,1.82759 -1.091401,0.0451 -2.341552,-0.0175 -2.778112,-0.13922 z m 32.4096,-0.002 c -1.094468,-0.33292 -2.317263,-1.0372 -3.301993,-1.90181 l -0.929609,-0.81622 v -3.04245 -3.04245 l 2.182802,0.10114 c 1.688111,0.0782 2.555269,0.27141 3.826282,0.85247 1.94131,0.8875 4.169457,3.08206 5.205939,5.12747 l 0.693224,1.36801 -0.649679,0.42569 c -1.549933,1.01556 -5.168398,1.4935 -7.026966,0.92815 z M 27.482984,229.95092 c -0.833425,-0.83343 -1.063367,-1.82414 -0.702748,-3.02778 0.562747,-1.8783 0.631962,-1.8898 11.36629,-1.8898 h 9.522298 l 0.821726,0.76761 c 0.692642,0.64702 0.821729,0.96195 0.821729,2.00473 0,1.01456 -0.139134,1.37624 -0.773395,2.01051 l -0.773392,0.7734 h -9.821919 -9.821919 z" style="stroke-width:0.26458275" />
   </g>
</svg>