<?xml version="1.0" encoding="UTF-8" standalone="no"?>

<svg width="63.5mm" height="60.099186mm" viewBox="0 0 63.5 60.099186" version="1.1" id="svg8">
   <g transform="translate(-442.23214,-365.72849)" style="display:inline">
      <g transform="matrix(0.35277777,0,0,-0.35277777,442.23214,449.07365)" id="g975">
         <g transform="scale(0.1)" id="g977">
            <path id="path993" style="fill:none;stroke:#231f20;stroke-width:2.5;stroke-linecap:butt;stroke-linejoin:miter;stroke-miterlimit:4;stroke-dasharray:none;stroke-opacity:1" d="M 1361.89,2164.94 Z" />
            <path id="path995" style="fill:#ffffff;fill-opacity:1;fill-rule:nonzero;stroke:none" d="m 142.129,1480.2 v 0 c 0,-0.01 0,-0.01 0,-0.01 0,0.01 0,0 0,0.01" />
            <path id="path997" style="fill:#ffffff;fill-opacity:1;fill-rule:nonzero;stroke:none" d="m 300.074,1117.15 c -0.004,0.03 -0.011,0.06 -0.015,0.08 l -0.082,-0.08 h 0.097" />
            <path id="path1001" style="fill-opacity:1;fill-rule:nonzero;stroke:none" d="m 1408.34,1292.13 c -11.49,-10.91 -11.98,-26.03 -44.22,-37.59 0,56.58 -10.14,81.66 -1,105.39 16.62,-11.87 25.14,-42.24 45.22,-67.8" />
         </g>
      </g>
   </g>
   <g style="display:inline">
      <path transform="matrix(0.03527778,0,0,-0.03527778,0,83.34516)" id="path991" style="fill-opacity:1;fill-rule:nonzero;stroke:none" d="m 616.383,1778.01 c -62.731,0 -113.59,13.86 -113.59,30.98 0,17.1 50.859,30.98 113.59,30.98 62.73,0 113.59,-13.88 113.59,-30.98 0,-17.12 -50.86,-30.98 -113.59,-30.98" />
      <path transform="matrix(0.03527778,0,0,-0.03527778,0,83.34516)" id="path999" style="fill-opacity:1;fill-rule:nonzero;stroke:none" d="m 1274.58,2362.09 c 0,0 -45.47,-22.13 -45.47,-104.06 0,-81.92 25.31,-120.71 25.31,-120.71 l -2.92,-18.5 c 0,0 -48.08,-4.17 -76.86,-0.77 -17.25,2.04 -41.89,7.16 -63.85,7.09 -15.09,-0.05 -29.39,-3.91 -37.21,-7.49 -19.2,-8.78 -43.27,-17.61 -62.64,-20.39 -19.377,-2.78 -33.272,-3.63 -43.682,-8.67 -10.418,-5.05 -33.137,-9.68 -33.137,-9.68 0,0 -31.316,24.7 -59.379,36.02 -28.062,11.32 -79.293,40.14 -107.289,63.06 -28,22.91 -29.976,14.89 -44.285,42.2 -14.305,27.3 -31.895,72.7 -33.184,86.4 -1.289,13.69 0.02,19.03 -5.437,20.37 -5.461,1.35 -20.02,-11.98 -17.172,-32.68 2.844,-20.71 6.594,-32.79 6.594,-32.79 0,0 -27.414,-0.71 -53.989,11.49 -26.578,12.19 -43.437,28.21 -55.242,27.77 -11.812,-0.44 -10.621,-6.72 -10.621,-6.72 0,0 -12.941,2.57 -17.465,-5.52 -4.523,-8.09 2.071,-16.56 2.071,-16.56 0,0 -5.09,-6.05 -0.95,-14.33 4.141,-8.28 17.051,-16.8 17.051,-16.8 0,0 -6.316,-7.02 2.539,-17.78 8.86,-10.75 32.887,-25.24 51.071,-31.5 36.363,-12.53 78.589,-25.72 78.589,-25.72 0,0 16.43,-15.59 42.782,-40.38 26.351,-24.78 78.984,-80.29 115.179,-102.74 21.454,-13.31 47.414,-33.62 68.7,-37.26 21.281,-3.65 73.015,0 73.015,0 0,0 8.098,-15.19 5.969,-32.13 -2.141,-16.95 3.113,-42.08 3.113,-42.08 0,0 25.169,10.61 42.229,3.76 17.06,-6.84 27.55,-13.28 27.55,-13.28 0,0 11.35,-51.5 40.89,-130.45 29.53,-78.95 68.6,-121.05 68.6,-121.05 0,0 11.23,-15.25 4.41,-31.79 -3.4,-8.27 -13.35,-40.39 -15.42,-66.07 -2.07,-25.68 3.73,-44.92 3.73,-44.92 0,0 -5.24,-28.29 5.66,-67.2 10.9,-38.92 25.98,-109.37 29.29,-144.96 3.3,-35.58 1.65,-73.18 5.54,-79.04 3.9,-5.85 15.01,-4.76 15.01,-4.76 0,0 16.55,-36.99 4.87,-71.06 -11.68,-34.08 -48.71,-103.92 -49.65,-156.762 -0.94,-52.839 12.28,-126.238 12.85,-153.218 0.55,-26.969 0.78,-37.602 0.78,-37.602 0,0 -13.52,-14.816 -13.94,-27.187 -0.42,-12.371 -0.67,-30.25 -0.67,-30.25 0,0 -14.44,-13.243 -16.38,-35.321 -1.93,-22.09 9.1,-41.129 9.1,-41.129 h 118.56 c 0,0 14.28,19.661 12.79,40.469 -1.47,20.82 -18.72,42.781 -21.05,50.25 -4.68,14.942 -4.68,15.93 -4.68,27.61 0,11.671 -6.06,25.601 -7.8,36 -1.73,10.41 6.65,91.339 13.64,121.289 6.99,29.941 18.34,61.519 24.49,87.431 2.68,11.33 9.08,43.64 16.33,65.02 9.33,27.55 18.56,30.39 19.54,43.66 0.97,13.28 0.97,73.99 0.97,73.99 0,0 11.52,-2.79 13.47,0.2 0.8,1.23 0.05,15.68 1.13,23.17 1.56,10.83 4.87,15.57 4.87,15.57 0,0 4.88,-18.24 19.47,-37.97 6.68,-9.05 28.24,-32.13 28.24,-32.13 0,0 4.87,-1.95 11.71,-3.04 5.51,-10.02 11.79,-15.55 13.6,-24.22 1.37,-6.55 0.55,-17.13 1.94,-22.39 4.31,-16.31 8.57,-26.99 21.43,-44.79 22.5,-31.13 43.29,-47.7 67.75,-38.52 24.45,9.19 25.96,22.39 20.83,45.33 -5.13,22.94 -18.29,51.94 -22.96,75.23 -1.54,7.67 -6.96,35.23 -12.26,44.32 -4.45,7.6 -24.42,3.55 -24.42,3.55 l 0.26,14.19 c 0,0 10.2,6.27 34.27,10.91 24.07,4.64 39.73,13.54 42.61,33.62 2.88,20.07 1.01,27.84 -3.87,54.76 -4.86,26.94 -13.61,74 -19.46,101.26 -5.86,27.27 -11.53,79.13 -20.37,106.73 -8.84,27.61 -21.97,53.92 -29.53,83.12 -7.55,29.2 -12.89,42.24 -19.96,53.73 -7.06,11.49 -14.21,25.63 -13.51,41.78 0.71,16.15 0.62,22.28 0.62,22.28 0,0 -16.14,18.6 -18.29,42.4 -2.16,23.81 -8.98,33.42 -3.14,59.82 5.84,26.39 18.51,57.44 18.51,57.44 0,0 31.03,-30.6 35.31,-36.23 4.29,-5.64 9.6,-20.86 9.6,-20.86 0,0 10.59,10.35 16.42,13.27 5.84,2.92 8.06,2.56 8.06,2.56 0,0 11.42,-15.19 27.96,-22.01 0,0 32.44,-14.69 60.03,-25.37 27.59,-10.67 61.3,-38.22 74.91,-55.06 13.62,-16.84 9.89,-64.67 24.75,-78.22 14.86,-13.55 25.13,-32.92 29.41,-29.1 1.83,1.62 4.76,7.88 3.81,14.05 -1.28,8.31 -6.96,16.8 -6.96,16.8 0,0 13.4,-7.27 17.92,-3.7 4.53,3.57 4.07,10.76 4.07,10.76 0,0 5.34,-2.59 8.98,1.54 3.63,4.14 2.72,14.17 2.72,14.17 0,0 5.96,0.6 7.19,6.16 1.23,5.56 -1.17,10.97 -1.17,10.97 0,0 4.09,4.3 1.52,11.92 -2.57,7.61 -23.96,22.62 -35.39,30.96 -11.43,8.34 -80.19,93.49 -96.56,109.11 -16.37,15.62 -71.39,57.76 -71.39,57.76 l 7.55,16.02 c 0,0 -39.96,28.35 -54.22,63.82 -14.26,35.46 -27.28,78.23 -66.48,90.57 -39.2,12.33 -92.4,22.3 -97.25,40.21 -4.86,17.92 -1.76,21.87 -1.76,21.87 0,0 33.38,23.72 41.31,70.01 7.92,46.29 4.69,81.05 -4.08,105.91 -8.78,24.86 -28.89,33.64 -28.89,33.64 l -98.75,-0.45" />
      <path id="path1003" style="fill-opacity:1;fill-rule:nonzero;stroke:none" d="m 55.0547,824.609 c -0.6484,0.743 -0.9609,1.692 -0.7852,3.52 1.3672,1.562 5.4922,3.062 12.0039,4.519 l 1.7852,-13.277 c -7.168,1.508 -11.2813,3.238 -13.0039,5.238 z m 6.1562,100.61 c 12.0664,-1.797 32.8282,-3.559 68.3941,-5.25 l 3.067,-72.059 c -28.567,-2.18 -47.5548,-4.5 -60.1681,-6.801 z M 60.168,933 c 12.332,1.891 35.8281,3.75 68.652,5.34 l 0.473,-11.078 c -33.0274,1.578 -56.6719,3.437 -69.0742,5.34 z m 73.973,-119.621 c -27.118,1.23 -45.973,2.742 -58.5394,4.652 l -2.1524,16.039 c 13.7539,2.418 34.1248,4.649 59.5308,6.578 z m 1.554,-36.508 2.782,-3.402 12.453,-3.039 c -39.442,-4.27 -58.2737,-8.899 -67.1995,-12.942 l -7.125,53.063 c 12.7226,-1.832 31.1095,-3.289 57.8435,-4.492 z m 0.61,158.758 c 1.113,-1.68 3.383,-2.129 5.062,-1.008 1.449,0.957 1.914,2.77 1.301,4.348 28.488,1.211 62.898,2.222 102.266,2.929 l 1.375,-18.199 c -30.145,0.531 -57.438,1.242 -81.387,2.09 l -0.024,1.031 c -0.07,2.008 -1.753,3.59 -3.765,3.532 -2.016,-0.071 -3.598,-1.75 -3.539,-3.774 l 0.019,-0.519 c -7.34,0.281 -14.34,0.562 -20.996,0.851 l -0.375,8.809 z m 115.312,-81.988 c -30.289,-0.86 -58.941,-2.039 -84.34,-3.473 l -2.125,68.344 c 24.879,-0.883 52.403,-1.59 81.707,-2.094 z m 0.547,-7.223 2.738,-36.137 c -33.855,0.5 -62.464,1.117 -86.445,1.84 l -0.957,30.801 c 25.391,1.449 53.957,2.637 84.664,3.496 z m 9.43,86.582 c 0.91,-1.449 1.449,-2.629 1.836,-3.641 l -1.27,-2.211 c -2.359,1.301 -5.754,4.321 -8.371,8.461 -0.504,0.801 -0.894,1.52 -1.226,2.192 l -0.301,4 c 2.281,-0.801 6.273,-3.949 9.332,-8.801 z m -1.188,30.25 c 0.789,2 0.731,4.609 -0.218,7.648 0.546,-0.828 1.101,-1.668 1.664,-2.519 -1.461,-2.598 -0.84,-6.77 1.738,-11.508 0.914,-1.672 2.098,-3.371 3.414,-4.961 -0.711,0.281 -1.406,0.461 -2.098,0.531 z m -4.34,22.23 c 1.122,2.489 1.25,5.95 0.184,9.719 -1.645,5.881 -6.133,12.111 -11.199,12.111 -0.348,0 -0.653,-0.18 -0.985,-0.24 l -5.441,7.78 c 0.082,0.1 0.188,0.12 0.266,0.22 1.863,2.46 2.207,6.63 0.933,11.16 -1.644,5.87 -6.133,12.1 -11.199,12.1 l -2.93,5.86 c 0.266,0.24 0.586,0.37 0.821,0.65 1.992,2.44 2.66,6.54 1.797,11.01 -1.27,6.56 -5.266,11.45 -9.493,12.06 l -5.914,20.09 c 0.274,0.23 0.59,0.37 0.828,0.65 1.993,2.43 2.664,6.54 1.797,11.01 -1.273,6.6 -5.297,11.48 -9.539,12.07 l -3.551,21.32 c 0.559,0.35 1.114,0.71 1.559,1.25 1.992,2.42 2.66,6.52 1.797,10.99 -1.344,6.95 -5.719,12.16 -10.215,12.27 l -2.73,12.72 c 0.5,0.35 1.011,0.65 1.41,1.13 1.992,2.43 2.664,6.53 1.797,11 -1.254,6.49 -5.164,11.3 -9.336,12.01 l -4.614,20.77 c 0.559,0.34 1.118,0.68 1.594,1.2 2.129,2.37 3.125,6.42 2.649,10.85 -0.653,6.23 -3.891,10.89 -7.786,12.03 l -1.164,18.59 c 0.969,0.35 1.879,0.87 2.649,1.73 2.133,2.37 3.125,6.43 2.656,10.85 -0.758,7.12 -4.824,12.48 -9.461,12.49 l -2.805,22.47 c 0.84,0.36 1.625,0.89 2.309,1.65 2.129,2.37 3.121,6.43 2.652,10.85 -0.582,5.52 -3.164,9.89 -6.453,11.64 l -3.672,18.38 c 0.95,0.35 1.844,0.88 2.606,1.73 2.129,2.37 3.125,6.43 2.648,10.84 -0.75,7.14 -4.828,12.51 -9.465,12.51 -0.214,0 -0.402,-0.11 -0.613,-0.14 l -1.316,27.86 c 1.199,0.29 2.34,0.83 3.265,1.86 2.133,2.37 3.125,6.43 2.657,10.85 -0.645,6.05 -3.719,10.62 -7.465,11.93 v 4.36 c 1.578,0.11 3.031,0.78 4.203,2.07 2.129,2.37 3.121,6.42 2.652,10.85 -0.758,7.13 -4.828,12.5 -9.469,12.5 -1.238,0 -2.347,-0.49 -3.375,-1.22 -2.82,2 -4.964,4.7 -4.964,8.64 0,0.39 0.035,0.66 0.05,0.99 7.157,-4.15 20.395,-7.37 36.864,-9.86 -0.317,-0.24 -0.668,-0.41 -0.957,-0.72 -2.129,-2.36 -3.121,-6.43 -2.653,-10.85 0.606,-5.71 3.375,-10.16 6.836,-11.75 l 2.907,-14.52 c -0.567,-0.34 -1.133,-0.68 -1.61,-1.21 -2.129,-2.38 -3.125,-6.43 -2.656,-10.85 0.535,-5.03 2.762,-9.08 5.637,-11.09 v -20.85 c -0.176,-0.16 -0.383,-0.23 -0.551,-0.41 -2.129,-2.37 -3.121,-6.43 -2.653,-10.85 0.754,-7.13 4.825,-12.5 9.469,-12.5 0.082,0 0.153,0.05 0.235,0.05 l 2.023,-12.15 c -0.871,-0.36 -1.676,-0.89 -2.379,-1.67 -2.129,-2.38 -3.125,-6.43 -2.652,-10.85 0.547,-5.16 2.855,-9.32 5.836,-11.27 l 1.468,-14.71 c -1.96,-2.41 -2.89,-6.28 -2.437,-10.53 0.625,-5.94 3.602,-10.46 7.242,-11.86 l 1.977,-15.79 c -0.84,-0.36 -1.625,-0.9 -2.309,-1.66 -2.129,-2.38 -3.117,-6.43 -2.652,-10.84 0.679,-6.42 4.078,-11.17 8.121,-12.12 l 2.285,-16 c -0.613,-0.36 -1.23,-0.74 -1.758,-1.33 -2.191,-2.37 -3.285,-6.36 -2.918,-10.66 0.528,-6.23 3.934,-11.04 8.028,-12.11 l 2.546,-14.01 c -0.078,-0.09 -0.183,-0.12 -0.261,-0.21 -2.129,-2.36 -3.125,-6.42 -2.656,-10.84 0.648,-6.11 3.777,-10.72 7.578,-11.97 l 2.265,-15.85 c -1.5,-2.4 -2.218,-5.92 -1.847,-9.88 0.652,-6.92 4.175,-12.09 8.265,-12.42 l 1.364,-15 c -1.883,-2.36 -2.524,-6.48 -1.688,-11.12 0.813,-4.51 3.008,-9.03 6.008,-11.12 1.465,-5.4 2.93,-11 3.894,-14.89 -0.488,-0.32 -0.972,-0.63 -1.359,-1.13 -1.871,-2.35 -2.328,-6.59 -1.215,-11.32 1.199,-5.12 4.199,-10.28 7.949,-11.74 l 2.446,-12.65 c -1.332,-2.45 -1.637,-6.13 -0.66,-10.29 1.343,-5.75 4.937,-11.51 9.332,-12.08 l 6.359,-10.601 c -0.469,-2.34 -0.25,-5.297 0.789,-8.528 1.926,-5.98 6.281,-12.031 10.898,-12.031 0.168,0 0.297,0.102 0.461,0.11 l 2.578,-3.86 c -1.042,-2.609 -0.406,-6.441 1.973,-10.808 2.715,-5 7.625,-10.25 12.063,-11.364 0.152,-0.41 0.281,-0.738 0.425,-1.148 -4.296,-0.039 -8.511,-0.09 -12.753,-0.141 0.402,2.52 -0.415,5.84 -2.407,9.5 -3.047,5.61 -8.871,11.551 -13.672,11.582 -4.523,6.93 -7.738,11.59 -10.043,14.699 z m -0.933,-20.519 c -1.985,0.508 -5.61,3.699 -7.883,8.68 -0.941,2.078 -1.293,3.668 -1.379,4.82 l 1.875,1.449 -0.098,0.129 c 2.071,-1.039 5.102,-4.039 7.094,-8.41 1.453,-3.188 1.528,-5.301 1.336,-6.289 z m -11.332,34.019 0.035,-0.05 3.332,2.34 c 1.605,-1.379 3.422,-3.911 4.395,-7.391 0.382,-1.348 0.519,-2.508 0.542,-3.559 -1.468,1.481 -2.066,1.489 -2.632,1.489 v -4.598 c -1.746,1.098 -4.004,3.961 -5.137,7.988 -0.406,1.43 -0.531,2.692 -0.535,3.781 z m -5.094,7.26 1.434,-2.05 c -0.102,-0.19 -0.203,-0.37 -0.293,-0.57 -0.332,0.9 -0.696,1.77 -1.141,2.62 z m 5.215,-21.412 -4.527,5.82 c 0.031,0.032 0.078,0.043 0.109,0.082 0.305,0.411 0.512,0.93 0.734,1.43 0.989,-2.672 2.516,-5.238 4.367,-7.16 -0.218,-0.078 -0.48,-0.07 -0.683,-0.172 z m -7.813,10.031 -1.144,1.481 -2.188,-1.699 c -1.57,1.41 -3.308,3.871 -4.257,7.259 -0.559,1.99 -0.637,3.65 -0.481,4.91 l 2.766,1.67 c 1.715,-1.21 3.855,-4.03 4.937,-7.9 0.688,-2.42 0.684,-4.408 0.367,-5.721 z m -12.687,13.601 c -0.012,0.04 -0.012,0.08 -0.027,0.12 -1.422,5.07 -4.965,10.4 -9.172,11.76 l -1.297,3.63 c 1.687,-1.78 3.64,-2.96 5.722,-3.16 l 5.801,-9.68 c -0.469,-0.77 -0.804,-1.68 -1.027,-2.67 z m -4.25,-6.24 -2.254,-1.25 0.359,-0.65 c -1.789,0.68 -4.504,3.67 -5.797,8.26 -0.714,2.54 -0.695,4.62 -0.332,5.91 l 0.137,-0.38 2.613,0.93 c 1.7,-1.25 3.75,-3.98 4.809,-7.77 0.586,-2.06 0.648,-3.77 0.465,-5.05 z m -2.801,43.27 c -0.785,0.37 -1.601,0.6 -2.43,0.68 l -2.871,10.51 c 0.098,0.11 0.231,0.17 0.317,0.27 0.062,-0.67 0.097,-1.32 0.23,-2.02 0.762,-3.96 2.563,-7.22 4.754,-9.44 z m 6.942,3.48 -0.872,1.72 -2.968,-1.48 c -1.258,1.44 -2.504,3.67 -3.082,6.64 -0.297,1.55 -0.317,2.92 -0.196,4.04 l 4.567,1.36 c 1.148,-1.46 2.246,-3.59 2.769,-6.32 0.496,-2.58 0.289,-4.66 -0.218,-5.96 z m -3.043,-22 -1.809,-1.08 c -1.785,0.7 -4.477,3.68 -5.762,8.25 -0.789,2.79 -0.668,4.98 -0.187,6.22 l 2.054,0.56 c 1.778,-0.99 4.168,-3.87 5.356,-8.1 0.715,-2.5 0.699,-4.57 0.348,-5.85 z m 3.886,9.11 c -0.051,-0.06 -0.074,-0.16 -0.117,-0.24 -1.047,2.84 -2.695,5.56 -4.703,7.52 0.508,-0.22 1.027,-0.33 1.547,-0.42 l 3.379,-6.78 c -0.032,-0.03 -0.078,-0.04 -0.106,-0.08 z m 3.199,-5.74 3.575,1.78 c 1.562,-1.41 3.265,-3.86 4.207,-7.21 0.668,-2.38 0.676,-4.31 0.375,-5.62 l -0.473,0.69 -2.25,-1.58 c -1.711,1.23 -3.805,4.01 -4.883,7.83 -0.441,1.58 -0.582,2.96 -0.551,4.11 z m 6.719,-17.47 1.567,-2.23 c -1.868,2 -4.067,3.36 -6.411,3.36 -0.261,0 -0.476,-0.14 -0.718,-0.17 l -5.27,8.78 c 0.133,0.15 0.313,0.21 0.442,0.37 0.046,0.07 0.066,0.17 0.117,0.24 1.914,-5.17 5.84,-10.09 10.273,-10.35 z m -29.957,93.27 2.391,0.4 c 1.578,-1.1 3.492,-3.89 4.246,-7.8 0.648,-3.35 0.09,-5.89 -0.75,-6.94 l -1.168,-0.34 c -1.652,0.37 -4.293,3.42 -5.223,8.2 -0.57,2.99 -0.179,5.26 0.504,6.48 z m -1.387,-26.05 -3.98,14.93 c 0.27,0.23 0.582,0.36 0.813,0.64 0.062,0.08 0.101,0.2 0.164,0.28 1.711,-5.06 4.945,-8.64 8.488,-9.23 l 5.941,-20.19 c -0.246,-0.21 -0.527,-0.34 -0.742,-0.58 -0.156,-0.2 -0.25,-0.45 -0.391,-0.66 -0.121,0.95 -0.293,1.93 -0.582,2.93 -1.484,5.3 -5.273,10.82 -9.711,11.88 z m 5.215,-19.41 -2.054,-0.55 c -1.774,0.98 -4.172,3.87 -5.36,8.08 -0.515,1.82 -0.629,3.37 -0.535,4.59 l 3.848,1.04 c 1.48,-1.47 3.031,-3.8 3.91,-6.94 0.793,-2.79 0.668,-4.98 0.191,-6.22 z m -1.539,-5.79 c 0.039,0 0.074,-0.02 0.11,-0.02 l 0.058,-0.19 c -0.054,0.08 -0.113,0.15 -0.168,0.21 z m -0.875,-14.02 -2.66,-0.95 c -1.715,1.2 -3.851,4.03 -4.941,7.89 -0.856,3.05 -0.633,5.37 -0.059,6.52 l 0.043,-0.12 1.441,0.56 c 1.793,-0.68 4.512,-3.67 5.805,-8.27 0.672,-2.39 0.676,-4.33 0.371,-5.63 z m -8.797,111.33 c 1.586,-1.09 3.52,-3.88 4.286,-7.81 0.39,-2.04 0.316,-3.7 0.035,-4.99 l -4.145,-0.69 c -1.246,1.45 -2.461,3.66 -3.027,6.58 -0.344,1.77 -0.344,3.29 -0.153,4.51 l 3.36,0.72 z m -4.515,-33.59 -4.856,18.2 c 0.504,0.34 1.016,0.64 1.426,1.13 0.641,0.78 1.09,1.79 1.449,2.86 1.617,-4.24 4.328,-7.24 7.34,-8.2 l 3.723,-22.33 c -0.215,-0.19 -0.477,-0.3 -0.664,-0.52 -0.071,-0.09 -0.106,-0.21 -0.168,-0.29 -1.676,4.95 -4.805,8.45 -8.25,9.15 z m 0.207,-18.49 c -1.223,1.44 -2.422,3.65 -2.981,6.54 -0.593,3.04 -0.172,5.35 0.535,6.55 l 1.915,0.51 c 1.644,-0.83 3.851,-3.68 4.683,-7.99 0.34,-1.74 0.348,-3.26 0.16,-4.47 z m 0.617,-6.12 c 0.34,-0.12 0.672,-0.24 1.02,-0.3 l 0.382,-1.42 c -0.441,0.61 -0.91,1.18 -1.402,1.72 z m 0.582,-15.06 -0.293,0.75 -3.508,-1.35 c -1.472,1.47 -3.023,3.79 -3.902,6.91 -0.945,3.38 -0.598,5.95 0.129,6.92 0.133,0.16 0.23,0.14 0.332,0.17 l 0.562,-1.56 1.731,0.62 c 1.629,-1.35 3.484,-3.92 4.472,-7.46 0.579,-2.04 0.645,-3.72 0.477,-5 z m -9.117,33.12 -0.688,1.94 c 0.481,0.34 0.985,0.65 1.36,1.15 0.933,1.22 1.48,2.88 1.648,4.79 l 0.633,-2.4 c -0.332,-0.27 -0.711,-0.46 -1,-0.81 -0.988,-1.18 -1.641,-2.8 -1.953,-4.67 z m -5.84,36.89 c -0.543,2.8 -0.23,4.98 0.375,6.25 l 2.453,0.66 c 1.594,-1.07 3.543,-3.88 4.309,-7.83 0.625,-3.22 0.129,-5.66 -0.657,-6.78 l -1.519,-0.41 c -1.66,0.62 -4.078,3.56 -4.961,8.11 z m -0.324,-11.5 -0.75,2.24 c 1.433,-1.83 3.121,-2.94 4.89,-3.47 l 1.129,-4.24 c -1.429,2.35 -3.238,4.35 -5.269,5.47 z m 2.961,-19.36 c -0.231,-0.31 -0.41,-0.33 -0.586,-0.33 -1.68,0 -5.051,3.32 -6.52,8.55 -0.953,3.37 -0.601,5.95 0.121,6.91 0.235,0.31 0.41,0.33 0.594,0.33 1.68,0 5.047,-3.33 6.516,-8.56 0.949,-3.37 0.597,-5.95 -0.125,-6.9 z m -8.352,35.53 c 0.067,0.07 0.164,0.1 0.227,0.18 0.359,0.49 0.613,1.07 0.863,1.68 -0.301,-1.13 -0.484,-2.35 -0.488,-3.68 z m -3.328,3.84 -1.937,-0.64 c -1.786,0.9 -4.274,3.81 -5.497,8.14 -0.945,3.38 -0.597,5.96 0.129,6.92 0.235,0.3 0.41,0.32 0.586,0.32 0.024,0 0.047,-0.03 0.074,-0.03 l 0.137,-0.7 1.113,0.21 c 1.762,-1.08 4.047,-3.94 5.188,-8.04 0.781,-2.76 0.672,-4.93 0.207,-6.18 z m -11.66,61.16 -1.918,10.27 c 1.414,-4.09 4.023,-6.83 7.004,-7.57 l 5.566,-21.15 c -0.418,-0.31 -0.859,-0.52 -1.23,-0.93 -1.965,-2.2 -2.91,-5.84 -2.68,-9.86 l -1.141,6.09 c 0.372,0.31 0.789,0.53 1.094,0.93 1.86,2.46 2.207,6.62 0.93,11.16 -1.242,4.43 -4.11,9.06 -7.625,11.06 z m 3.426,-17.24 -3.754,-0.71 0.019,-0.1 c -1.5,1.45 -3.086,3.82 -3.984,6.99 -0.945,3.36 -0.602,5.93 0.129,6.89 l 0.183,-1 2.262,0.43 c 1.66,-1.3 3.629,-3.97 4.656,-7.64 0.559,-1.96 0.637,-3.59 0.489,-4.86 z m -12.52,41.35 c -1.25,1.44 -2.484,3.67 -3.058,6.62 -0.653,3.38 -0.086,5.94 0.769,6.98 0.371,0.45 0.66,0.45 0.797,0.45 1.609,0 4.586,-3.25 5.57,-8.35 0.387,-2 0.317,-3.65 0.043,-4.93 z m -5.492,40.75 c -0.141,-0.18 -0.254,-0.23 -0.367,-0.3 l -0.735,-0.1 c -1.617,0.25 -4.199,3.33 -4.972,8.17 -0.45,2.85 -0.028,5.07 0.656,6.35 l 2.816,0.37 c 1.45,-1.21 3.067,-3.85 3.641,-7.48 0.535,-3.38 -0.137,-5.96 -1.039,-7.01 z m -6.973,41.79 c -1.523,0.69 -3.496,3.53 -3.949,7.85 -0.387,3.62 0.531,6.07 1.434,7.08 0.5,0.54 0.879,0.54 1.007,0.54 1.54,0 4.106,-3.17 4.633,-8.14 0.387,-3.62 -0.531,-6.08 -1.433,-7.08 -0.02,-0.02 -0.032,-0.02 -0.051,-0.04 z m -6.004,63.18 -0.617,18.98 c 1.145,0.31 2.231,0.82 3.176,1.79 0.047,0.04 0.082,0.12 0.129,0.17 -0.11,-1.22 -0.141,-2.47 0.008,-3.77 0.59,-5.62 3.273,-10.04 6.648,-11.71 l 1.09,-16.37 c -0.27,-0.22 -0.578,-0.35 -0.832,-0.63 -2.129,-2.38 -3.117,-6.42 -2.649,-10.84 0.688,-6.51 4.172,-11.34 8.301,-12.17 l 2.157,-15.09 c -0.375,-0.27 -0.782,-0.48 -1.114,-0.84 -1.097,-1.22 -1.883,-2.91 -2.328,-4.84 -0.562,5.25 -2.941,9.51 -6,11.41 l -2.945,22.1 c 1.687,2.43 2.496,6.03 2.074,9.98 -0.621,5.85 -3.516,10.34 -7.098,11.83 z m 0.825,-19.43 c -0.098,-0.1 -0.161,-0.11 -0.254,-0.18 l -0.739,-0.1 0.036,-0.26 c -0.016,0 -0.04,-0.01 -0.051,-0.01 -1.535,0 -4.106,3.17 -4.637,8.15 -0.383,3.62 0.531,6.08 1.434,7.07 0.504,0.56 0.886,0.56 1.011,0.56 1.536,0 4.106,-3.17 4.633,-8.15 0.387,-3.61 -0.531,-6.07 -1.433,-7.08 z m -6.672,50.89 c -0.067,3.65 1.105,6.17 2.125,7.2 0.226,0.22 0.433,0.24 0.648,0.34 l 1.445,-0.12 c 1.313,-0.93 2.762,-3.64 2.832,-7.51 0.067,-3.5 -1.007,-5.87 -2,-6.99 v 0.12 l -2.73,-0.09 c -1.141,1.23 -2.25,3.71 -2.32,7.05 z m 0.148,38.53 c 0.223,1.87 0.672,3.39 1.277,4.06 0.5,0.55 0.879,0.55 1.008,0.55 1.539,0 4.106,-3.18 4.633,-8.15 0.387,-3.62 -0.531,-6.07 -1.433,-7.08 -0.172,-0.19 -0.309,-0.25 -0.45,-0.33 l -1.328,0.12 c -0.652,0.33 -1.336,0.95 -1.988,2 1.285,1.06 2.387,2.38 3.203,4.01 0.902,1.8 0.172,4.01 -1.633,4.91 -1.086,0.54 -2.281,0.44 -3.289,-0.09 z m -2.344,7.31 c -2.129,-2.38 -3.121,-6.42 -2.652,-10.85 0.02,-0.2 0.102,-0.36 0.129,-0.56 -0.129,-0.03 -0.207,-0.11 -0.332,-0.13 -4.715,-0.76 -11.852,3.02 -14.902,6.06 -1.383,1.39 -2.383,5.56 -0.872,9.21 1.75,4.24 6.208,6.46 12.891,6.46 2.922,0 11.113,-1.25 22.945,-3.39 -2.519,-3.46 -2.66,-8.16 -2.66,-9.99 0,-2.09 0.391,-4.02 0.977,-5.87 -0.555,-0.14 -1.086,-0.27 -1.582,-0.56 -0.965,6.75 -4.836,11.79 -9.313,11.79 -1.754,0 -3.351,-0.75 -4.629,-2.17 z m 7.672,-33.74 0.977,10.79 c 0.355,0.12 0.695,0.25 1.027,0.43 0.672,-4.69 2.75,-8.46 5.481,-10.38 v -15.06 c -0.434,-0.23 -0.836,-0.55 -1.223,-0.91 0.133,0.97 0.207,1.99 0.184,3.03 -0.114,6.09 -2.793,10.71 -6.446,12.1 z m 11.895,17.72 c 0.867,-1.41 1.609,-3.37 1.863,-5.78 0.383,-3.59 -0.512,-5.99 -1.406,-7.03 v 1.51 h -3.649 c -0.937,1.42 -1.746,3.47 -2.019,6.03 -0.379,3.63 0.535,6.08 1.433,7.08 0.504,0.56 0.887,0.56 1.012,0.56 0.465,0 1.031,-0.38 1.602,-0.94 0.367,-0.49 0.746,-0.96 1.164,-1.43 z m 10.801,-18.14 v -6.49 c -0.625,-0.35 -1.243,-0.74 -1.77,-1.34 -2.129,-2.36 -3.121,-6.43 -2.652,-10.84 0.078,-0.74 0.269,-1.4 0.418,-2.09 -1.356,3.63 -3.653,6.29 -6.34,7.23 v 13.61 c 1.328,0.24 2.578,0.82 3.594,1.94 1.211,1.35 2.007,3.28 2.418,5.47 0.859,-3.25 2.371,-5.85 4.332,-7.49 z m 6.082,-24.08 -3.594,-0.18 c -0.953,1.42 -1.793,3.49 -2.07,6.1 -0.223,2.09 0.031,3.66 0.421,4.92 h 4.028 v 1.31 c 1.172,-1.37 2.293,-3.64 2.625,-6.74 0.371,-3.49 -0.477,-5.81 -1.34,-6.88 z m 5.464,-54.57 -0.035,0.17 -1.863,-0.37 c -1.496,0.85 -3.316,3.62 -3.75,7.75 -0.387,3.62 0.531,6.08 1.43,7.09 0.504,0.55 0.883,0.55 1.011,0.55 1.536,0 4.102,-3.18 4.629,-8.15 0.379,-3.59 -0.523,-6.02 -1.422,-7.04 z m 5.137,-42.03 -2.785,-0.35 c -1.34,1.21 -2.762,3.79 -3.137,7.34 -0.379,3.6 0.528,6.03 1.426,7.04 l 0.027,-0.16 1.872,0.37 c 1.492,-0.87 3.316,-3.63 3.75,-7.77 0.339,-3.19 -0.372,-5.3 -1.153,-6.47 z m -8.93,-71.59 3.797,0.36 -0.047,0.56 c 1.192,-1.36 2.348,-3.67 2.68,-6.82 0.254,-2.38 -0.109,-4.03 -0.605,-5.31 l -0.274,1.01 -4.258,-1.12 c -0.898,1.41 -1.675,3.45 -1.933,5.93 -0.258,2.43 0.125,4.1 0.64,5.39 z m -2.921,38.42 c -1.153,1.37 -2.266,3.63 -2.586,6.69 -0.313,2.91 0.273,4.83 0.965,6.08 l 2.855,0.34 -0.07,0.63 c 1.39,-1.12 2.929,-3.84 3.32,-7.56 0.371,-3.46 -0.465,-5.77 -1.324,-6.84 l -0.094,0.94 z m -14.391,94.95 2.863,0.18 -0.051,0.71 c 1.383,-1.15 2.899,-3.82 3.282,-7.51 0.308,-2.85 -0.246,-4.71 -0.91,-5.98 l -3.348,-0.48 c -1.234,1.33 -2.465,3.7 -2.813,6.97 -0.312,2.92 0.282,4.86 0.977,6.11 z m 1.055,27.23 -0.02,0.33 -4.148,-0.27 c -0.977,1.43 -1.84,3.5 -2.121,6.15 -0.36,3.37 0.437,5.63 1.269,6.74 h 2.742 c 1.317,-1.25 2.688,-3.77 3.059,-7.25 0.285,-2.64 -0.188,-4.41 -0.781,-5.7 z m 11.734,-72.8 c 0.285,-2.62 -0.184,-4.37 -0.762,-5.65 l -0.054,0.42 -4.067,-0.48 c -1.004,1.41 -1.902,3.51 -2.187,6.23 -0.352,3.3 0.41,5.49 1.222,6.62 l 2.579,0.36 c 1.375,-1.14 2.882,-3.82 3.269,-7.5 z m -3.367,12.66 -2.168,15.17 c 0.34,0.26 0.723,0.44 1.027,0.78 1.082,1.19 1.864,2.85 2.317,4.74 0.015,-0.18 -0.004,-0.32 0.015,-0.49 0.578,-5.52 3.168,-9.9 6.449,-11.65 l 3.676,-18.38 c -0.953,-0.35 -1.843,-0.87 -2.601,-1.72 -0.192,-0.2 -0.325,-0.5 -0.504,-0.75 -0.004,0.06 0.004,0.1 0,0.16 -0.688,6.45 -4.129,11.25 -8.211,12.14 z m -2.742,66.35 c -0.086,0.82 -0.321,1.55 -0.493,2.31 1.071,-3.08 2.778,-5.54 4.864,-6.87 l 1.515,-31.79 c -0.695,-1.06 -1.269,-2.27 -1.613,-3.69 -0.016,0.17 0.004,0.32 -0.008,0.49 -0.703,6.59 -4.277,11.5 -8.476,12.22 l -0.989,14.78 c 0.93,0.35 1.797,0.87 2.543,1.7 2.129,2.37 3.125,6.43 2.657,10.85 z m 5.211,-168.48 c -0.114,-0.97 -0.141,-1.97 -0.094,-3 l -0.477,2.54 c 0.203,0.14 0.387,0.3 0.571,0.46 z m -5.84,23.48 -2.676,18.76 c 0.168,0.16 0.383,0.24 0.539,0.42 2.043,2.41 2.852,6.49 2.141,10.94 -0.907,5.73 -3.938,10.16 -7.489,11.68 l -2.359,17.67 c 0.852,0.37 1.652,0.9 2.34,1.67 1.098,1.22 1.883,2.91 2.332,4.83 0.617,-5.77 3.449,-10.22 6.969,-11.77 l 2.363,-20.11 c -0.191,-0.17 -0.414,-0.25 -0.594,-0.45 -2.129,-2.37 -3.121,-6.43 -2.652,-10.85 0.566,-5.34 2.996,-9.71 6.14,-11.55 l 2.59,-27.19 c -0.293,-0.21 -0.601,-0.39 -0.871,-0.66 0.11,1.53 0.067,3.13 -0.262,4.83 -1.171,6.04 -4.667,10.58 -8.511,11.78 z m 23.281,-2.87 1.223,-19.58 c -0.508,-0.33 -1.028,-0.62 -1.465,-1.11 -0.387,-0.42 -0.692,-0.97 -0.996,-1.5 -1.133,5.29 -4.051,9.11 -7.59,9.98 l -2.449,25.72 c 1.101,0.33 2.14,0.86 3.007,1.81 2.133,2.38 3.125,6.43 2.661,10.85 -0.719,6.76 -4.45,11.79 -8.789,12.32 l -2.164,18.41 c 0.8,0.37 1.546,0.9 2.207,1.63 0.191,0.2 0.324,0.52 0.5,0.75 0.003,-0.06 -0.008,-0.1 0.003,-0.16 0.606,-5.73 3.387,-10.16 6.856,-11.74 l 3.062,-24.51 0.625,0.09 c -0.187,-0.17 -0.41,-0.24 -0.586,-0.45 -2.128,-2.37 -3.121,-6.42 -2.652,-10.85 0.586,-5.55 3.223,-9.96 6.547,-11.66 z m 1.391,4.88 c -1.332,1.23 -2.727,3.77 -3.098,7.3 -0.387,3.62 0.531,6.07 1.434,7.08 0.5,0.56 0.878,0.56 1.007,0.56 1.536,0 4.102,-3.19 4.629,-8.16 0.356,-3.29 -0.402,-5.46 -1.218,-6.61 z m 6.894,-41.99 -0.125,0.58 -3.906,-0.87 c -1.051,1.42 -2.012,3.56 -2.309,6.38 -0.363,3.35 0.418,5.56 1.254,6.69 l 2.656,0.16 c 1.344,-1.2 2.778,-3.79 3.161,-7.36 0.273,-2.56 -0.168,-4.29 -0.731,-5.58 z m -5.238,-39.12 -0.387,1.47 -3.344,-0.9 c -1.019,1.42 -1.949,3.53 -2.242,6.31 -0.254,2.37 0.114,4.02 0.606,5.31 l 0.273,-1.02 4.258,1.13 c 0.898,-1.42 1.676,-3.46 1.934,-5.94 0.332,-3.11 -0.34,-5.16 -1.098,-6.36 z m -1.442,-17.07 c -1.136,4.08 -3.664,8.27 -6.789,10.5 l -1.734,9.26 c 1.219,-4.11 3.559,-7.1 6.395,-8.2 l 4.5,-16.86 c -0.254,-0.23 -0.563,-0.35 -0.789,-0.63 -0.477,-0.58 -0.868,-1.27 -1.192,-2.02 0.52,2.27 0.442,5.01 -0.391,7.95 z m 7.059,27.54 c -0.144,-0.18 -0.234,-0.43 -0.363,-0.62 -1.258,4.85 -4.024,8.3 -7.367,9.13 l -5.567,21.14 c 0.418,0.29 0.86,0.53 1.231,0.94 0.386,0.42 0.687,0.96 1,1.5 1.086,-5.07 3.789,-8.77 7.125,-9.83 l 4.793,-21.59 c -0.278,-0.24 -0.61,-0.38 -0.852,-0.67 z m 3.109,-4.45 3.305,0.73 c 1.449,-1.31 3.039,-3.82 3.707,-7.28 0.445,-2.32 0.297,-4.19 -0.101,-5.51 l -3.45,-0.74 c -1.421,1.34 -2.933,3.79 -3.589,7.16 -0.461,2.39 -0.297,4.32 0.128,5.64 z m 3.735,-18.38 3.039,-14.17 c -0.047,-0.05 -0.106,-0.07 -0.149,-0.12 -0.64,-0.78 -1.089,-1.78 -1.449,-2.86 -1.789,4.69 -4.918,7.94 -8.293,8.47 l -4.179,15.66 c 0.664,0.36 1.3,0.8 1.859,1.41 0.422,0.48 0.766,1.05 1.098,1.65 1.484,-5.21 4.582,-9.04 8.074,-10.04 z m -33.453,266.93 c -0.918,1.4 -1.703,3.4 -1.992,5.9 0.05,-0.03 0.089,-0.04 0.136,-0.07 0.895,-1.06 2.18,-1.77 3.68,-1.77 1.434,0 2.406,0.37 3.195,0.84 0.203,-3.22 -0.558,-5.53 -1.398,-6.46 -0.227,-0.24 -0.418,-0.36 -0.582,-0.44 v 2 z m -10.832,52.25 c 0.968,1.16 2.461,1.7 4.539,1.7 1.636,-0.02 7.304,-1.43 15.949,-3.87 -9.098,-2.34 -15.703,-4.92 -19.367,-7.7 -0.942,0.17 -1.832,0.33 -2.739,0.49 0.004,0.24 0.063,0.47 0.024,0.73 -0.25,1.58 -0.457,6.26 1.594,8.65 z m 40.359,-8.02 c 13.707,-4.14 30.43,-9.34 48.727,-15.13 l 1.035,-4.65 c -26.114,5.48 -51.723,10.75 -72.461,14.78 5.722,1.7 13.316,3.38 22.699,5 z m 42.227,5.59 c 0.136,-0.11 0.277,-0.18 0.429,-0.26 -1.015,-2.14 -1.582,-4.67 -1.488,-7.36 0.043,-1.16 0.34,-2.18 0.582,-3.24 -8.769,2.75 -17.238,5.38 -25.152,7.81 7.793,1.07 16.375,2.09 25.629,3.05 z m 5.894,-0.63 c 0.629,0.67 1.305,0.99 2,0.99 2.145,0 4.649,-3.27 4.813,-7.98 0.101,-2.74 -0.696,-5.3 -2.047,-6.76 -0.211,0.07 -0.426,0.14 -0.629,0.2 l -0.309,1.4 -2.406,-0.54 c -0.699,0.23 -1.395,0.44 -2.09,0.66 -0.769,1.36 -1.347,3.12 -1.418,5.22 -0.097,2.76 0.699,5.39 2.086,6.81 z m -0.375,15.61 c 1,1.33 3.008,1.78 5.977,1.35 2.074,-0.29 5.832,-1.88 10.726,-4.37 -6.093,-0.49 -12.027,-1.02 -17.777,-1.58 0.004,1.73 0.219,3.46 1.074,4.6 z m 32.328,-11.68 c 16.098,-9.43 36.641,-22.58 54.981,-34.68 -10.879,0.13 -21.168,0.36 -31.008,0.65 -2.625,0.85 -5.274,1.7 -7.949,2.57 -1.524,1.37 -3.25,2.36 -5.207,2.36 -0.446,0 -0.848,-0.19 -1.282,-0.27 -10.566,3.38 -21.296,6.82 -31.836,10.15 1.391,2.31 2.141,5.32 2.028,8.48 -0.121,3.48 -1.227,6.57 -2.91,8.85 7.418,0.67 15.074,1.32 23.183,1.89 z m 21.364,1.38 c 14.496,-17.48 35,-29.71 58.269,-33.83 v -2.4 c -3.848,0 -7.543,0.03 -11.297,0.06 -7.058,4.71 -14.316,9.48 -21.301,14.03 -13.218,8.58 -24.539,15.69 -34.3,21.61 2.875,0.16 5.683,0.36 8.629,0.53 z m 58.269,-53.49 c -6.922,2.27 -14.844,4.85 -23.562,7.69 5.121,-0.06 9.714,-0.11 13.718,-0.13 3.508,-2.37 6.77,-4.58 9.844,-6.67 z m 0,-12.95 c -0.816,0.3 -1.609,0.66 -2.496,0.66 -2.035,0 -3.945,-0.85 -5.5,-2.47 -2.305,-2.38 -3.594,-6.27 -3.453,-10.37 0.254,-7.1 4.5,-12.67 9.683,-12.67 0.61,0 1.18,0.22 1.766,0.38 v -22.06 c -0.434,0.08 -0.824,0.34 -1.273,0.34 -2.043,0 -3.946,-0.85 -5.508,-2.47 -2.305,-2.39 -3.594,-6.26 -3.453,-10.37 0.254,-7.1 4.504,-12.68 9.683,-12.68 0.192,0 0.36,0.11 0.551,0.13 v -22.42 c -0.434,0.09 -0.824,0.35 -1.273,0.35 -2.043,0 -3.946,-0.85 -5.508,-2.47 -2.305,-2.39 -3.594,-6.26 -3.453,-10.38 0.254,-7.09 4.504,-12.67 9.683,-12.67 0.192,0 0.36,0.11 0.551,0.13 v -20.26 c -0.023,0 -0.039,0.01 -0.059,0.01 -2.039,0 -3.945,-0.85 -5.503,-2.47 -2.309,-2.38 -3.594,-6.26 -3.45,-10.37 0.239,-6.78 4.153,-12.02 9.012,-12.49 v -20.31 c -0.023,0 -0.039,0.01 -0.059,0.01 -2.039,0 -3.945,-0.85 -5.503,-2.47 -2.309,-2.39 -3.594,-6.26 -3.45,-10.37 0.239,-6.78 4.153,-12.03 9.012,-12.49 v -17.04 c -1.355,-0.35 -2.652,-0.95 -3.738,-2.09 -2.305,-2.38 -3.594,-6.27 -3.449,-10.37 0.207,-5.9 3.222,-10.52 7.187,-12.01 v -18.23 c -0.664,-0.39 -1.332,-0.77 -1.914,-1.37 -2.305,-2.39 -3.594,-6.27 -3.453,-10.37 0.176,-4.94 2.355,-9.01 5.367,-11.11 v -21.84 c -0.223,-0.18 -0.484,-0.27 -0.699,-0.49 -2.305,-2.39 -3.594,-6.27 -3.445,-10.38 0.144,-4.22 1.804,-7.73 4.144,-10.02 V 950.18 c -2.543,-0.012 -5.125,-0.012 -7.66,-0.012 -0.41,0.863 -1.211,1.402 -2.125,1.742 1.266,2.41 1.711,5.602 1.113,8.981 -1.191,6.777 -5.894,12.039 -10.789,12.269 l -4.18,11.141 c 1.903,0.109 3.7,0.918 5.063,2.449 2.152,2.43 3.141,6.371 2.621,10.531 -0.855,6.979 -5.492,12.459 -10.562,12.459 -0.196,0 -0.364,-0.11 -0.555,-0.13 l -2.192,13.2 c 1.582,0.28 3.09,0.95 4.282,2.25 2.211,2.42 3.316,6.33 2.953,10.46 -0.535,6.13 -4.051,10.87 -8.32,12.05 l -4.356,12.15 c 0.918,0.42 1.773,1.01 2.539,1.8 2.309,2.4 3.594,6.28 3.453,10.39 -0.215,6.04 -3.379,10.74 -7.488,12.09 l -2.18,14.9 c 0.453,0.31 0.942,0.54 1.352,0.95 2.305,2.41 3.59,6.28 3.449,10.39 -0.187,5.2 -2.539,9.53 -5.801,11.51 -0.312,3.69 -0.738,9.12 -1.113,13.89 0.336,0.26 0.715,0.41 1.027,0.73 2.305,2.39 3.594,6.27 3.453,10.38 -0.234,6.63 -4,11.74 -8.707,12.41 l -1.132,13.66 c 0.984,0.42 1.91,1.04 2.734,1.88 2.312,2.39 3.594,6.28 3.453,10.38 -0.215,6.04 -3.367,10.73 -7.469,12.09 l -2.109,15.74 c 0.645,0.39 1.297,0.76 1.867,1.34 2.305,2.39 3.594,6.28 3.453,10.38 -0.215,6.09 -3.437,10.83 -7.601,12.13 l -3.078,14.06 c 1.339,0.34 2.613,0.96 3.691,2.08 2.305,2.38 3.594,6.26 3.453,10.37 -0.215,6.03 -3.375,10.73 -7.469,12.08 l -1.636,12.4 c 1.117,0.41 2.183,1.01 3.105,1.95 2.305,2.4 3.594,6.28 3.453,10.38 -0.215,6.02 -3.355,10.71 -7.437,12.08 l -1.117,14.5 c 1.179,0.39 2.308,0.99 3.273,1.98 2.305,2.4 3.594,6.28 3.453,10.38 -0.211,5.95 -3.269,10.6 -7.281,12.04 l -2.336,18.71 c 1.355,0.35 2.644,0.95 3.734,2.08 2.305,2.39 3.594,6.27 3.446,10.38 -0.215,6.2 -3.536,10.98 -7.793,12.17 v 10.16 c 0.66,0.38 1.328,0.76 1.91,1.36 2.305,2.39 3.594,6.28 3.453,10.38 -0.227,6.31 -3.656,11.16 -8.023,12.24 l -0.727,7.12 c 1.031,0.42 2.008,1.02 2.867,1.9 0.277,0.29 0.5,0.68 0.75,1.02 31.969,-5.89 50.703,-9.15 61.836,-10.83 z m 0,-19.11 c -0.566,-0.52 -1.152,-0.87 -1.766,-0.87 -2.148,0 -4.656,3.26 -4.816,7.97 -0.098,2.77 0.699,5.39 2.09,6.81 0.625,0.68 1.301,1 1.996,1 0.84,0 1.707,-0.63 2.496,-1.51 z m 0,-47.45 c -0.191,-0.05 -0.359,-0.28 -0.551,-0.28 -2.148,0 -4.648,3.27 -4.816,7.98 -0.098,2.77 0.703,5.39 2.09,6.82 0.625,0.66 1.304,0.98 2.004,0.98 0.414,0 0.843,-0.22 1.273,-0.45 z m 0,-47.46 c -0.191,-0.05 -0.359,-0.28 -0.551,-0.28 -2.148,0 -4.648,3.27 -4.816,7.98 -0.098,2.76 0.703,5.39 2.09,6.82 0.625,0.66 1.304,0.98 2.004,0.98 0.414,0 0.843,-0.22 1.273,-0.46 z m 0,-45.68 c -1.969,0.59 -4.004,3.52 -4.144,7.75 -0.102,2.76 0.699,5.39 2.085,6.81 0.629,0.67 1.301,0.99 2,0.99 0.02,0 0.04,-0.02 0.059,-0.02 z m 0,-45.63 c -1.969,0.58 -4.004,3.51 -4.144,7.74 -0.102,2.76 0.699,5.39 2.085,6.82 0.629,0.66 1.301,0.98 2,0.98 0.02,0 0.04,-0.02 0.059,-0.02 z m 0,-40.72 c -1.226,1.39 -2.223,3.61 -2.324,6.47 -0.098,2.77 0.703,5.39 2.09,6.82 0.074,0.07 0.156,0.04 0.234,0.11 z m 0,-38.6 c -0.269,0.94 -0.457,1.96 -0.496,3.09 -0.051,1.38 0.129,2.74 0.496,3.92 z m 0,-203.08 c -2.195,2.461 -4.672,4.449 -7.109,5.32 l -0.02,0.609 c 2.36,0.012 4.75,0.012 7.129,0.02 z m 0,-14.192 c -0.762,0.41 -1.617,0.992 -2.535,1.801 0.832,0.07 1.687,0.133 2.535,0.191 z m 0,-33 c -1.871,0.121 -3.726,0.262 -5.512,0.422 l -0.773,25.289 c 2.078,-0.008 4.195,-0.008 6.285,-0.008 z m 0,-34.508 c -1.488,-0.011 -2.957,-0.011 -4.449,-0.019 l -0.918,30.098 c 1.777,-0.149 3.562,-0.309 5.367,-0.43 z m 0,-45.98 c -1.039,0.012 -2.012,0.02 -3.043,0.031 l -1.18,38.629 c 1.403,0.012 2.813,0.012 4.223,0.02 z m 0,-29.551 c -0.707,-0.008 -1.426,0 -2.133,-0.019 l -0.683,22.289 c 0.914,-0.008 1.894,-0.02 2.816,-0.028 z m 0,-13.269 -1.195,5.961 c 0.394,0 0.797,0 1.195,0 z m 0,-45.989 -4.57,-5.222 -0.086,7.621 4.656,-0.41 z m -5.004,33.758 4.649,-23.219 -4.399,1.059 z m -1.715,175.41 -0.152,4.922 1.734,0.789 c 1.555,-1.422 3.176,-3.41 4.567,-5.781 -1.949,-0.141 -3.871,-0.301 -5.781,-0.488 -0.129,0.187 -0.239,0.379 -0.368,0.558 z m -13.453,-214.89 c -27.07,0.703 -52.371,2.019 -75.672,3.75 l 83.887,4.531 0.094,-8.391 c -2.77,0.051 -5.559,0.039 -8.309,0.11 z m -152.5,11.781 -0.351,11.301 113.297,-10.063 -85.727,-4.636 c -9.582,1.078 -18.695,2.207 -27.219,3.398 z m -1.191,38.441 c 0.847,0.079 1.719,0.149 2.578,0.219 L 302.633,733.422 170.539,745.16 Z m 101.219,177.36 c 0.886,-1.102 1.769,-2.27 2.531,-3.68 0.851,-1.562 1.281,-2.793 1.562,-3.84 l -2.093,-1.711 0.363,-0.441 c -2.203,1.301 -5.254,4.25 -7.473,8.312 -0.254,0.477 -0.394,0.86 -0.582,1.278 1.906,0.031 3.766,0.062 5.692,0.082 z m 3.89,12.168 -2.07,-1.809 c -1.738,1.559 -3.613,3.801 -5.102,6.539 -0.816,1.492 -1.242,2.692 -1.527,3.723 l 2.547,1.637 c 2.105,-1.481 4.668,-4.098 6.621,-7.688 1.226,-2.25 1.687,-3.93 1.844,-5.09 -0.762,0.879 -1.43,1.68 -2.313,2.688 z m 6.18,-31.27 c -2.371,0.02 -4.77,0.051 -7.113,0.082 l -5.196,3 c 0.071,1.258 -0.25,2.739 -0.797,4.321 2.403,-2.133 5.008,-3.582 7.364,-3.582 0.797,0 1.519,0.218 2.179,0.539 z m 16.48,19.403 c 1.285,-3.282 2.375,-5.872 3.262,-7.793 -0.707,-2.59 -0.008,-6.149 2.184,-10.18 0.25,-0.469 0.55,-0.949 0.843,-1.41 -0.277,-0.078 -0.55,-0.16 -0.836,-0.239 -0.359,0 -0.71,0 -1.074,0.008 -2.129,1.793 -3.828,3.16 -5.261,4.282 0.003,2.332 -0.754,5.109 -2.434,8.199 -1.352,2.48 -3.27,4.98 -5.379,7.043 2.855,0.027 5.797,0.058 8.695,0.09 z m -10.254,27.66 c 2.145,-1.422 4.879,-4.16 6.926,-7.91 1.356,-2.5 1.778,-4.274 1.875,-5.442 l -1.883,-0.66 c -2.207,1.23 -5.371,4.262 -7.636,8.422 -0.899,1.656 -1.348,2.969 -1.61,4.039 z m -35.523,486.948 c -1.094,0.24 -2.18,0.47 -3.273,0.71 -1.778,2.72 -4.274,4.52 -7.141,4.52 -0.992,0 -1.949,-0.22 -2.852,-0.61 l -0.484,2.18 c 7.43,-2.36 15.078,-4.79 22.859,-7.27 -3.136,0.15 -6.109,0.31 -9.109,0.47 z M 278.355,1073 c 0.563,0.61 1.188,0.93 1.856,0.93 2.203,0 4.945,-3.32 5.359,-8.11 0.246,-2.75 -0.402,-5.33 -1.691,-6.74 -0.566,-0.62 -1.191,-0.93 -1.863,-0.93 -2.2,0 -4.942,3.33 -5.36,8.11 -0.246,2.75 0.41,5.33 1.699,6.74 z m -7.171,38.92 c 0.586,0.63 1.23,0.95 1.906,0.95 2.183,0 4.844,-3.31 5.183,-8.05 0.188,-2.78 -0.507,-5.38 -1.832,-6.79 -0.582,-0.62 -1.226,-0.94 -1.906,-0.94 -2.18,0 -4.844,3.31 -5.176,8.07 -0.195,2.76 0.504,5.36 1.825,6.76 z m -5.606,44.22 c 0.559,0.62 1.184,0.93 1.856,0.93 2.199,0 4.945,-3.33 5.359,-8.09 0.246,-2.77 -0.406,-5.36 -1.695,-6.76 -0.567,-0.63 -1.184,-0.94 -1.86,-0.94 -2.203,0 -4.941,3.33 -5.359,8.12 -0.246,2.75 0.41,5.34 1.699,6.74 z m -7.09,44.98 h 4.375 v 0.55 c 1.492,-1.31 2.821,-3.77 3.047,-7 0.195,-2.77 -0.508,-5.36 -1.828,-6.79 -0.586,-0.62 -1.227,-0.94 -1.902,-0.94 -2.184,0 -4.856,3.31 -5.188,8.06 -0.172,2.45 0.453,4.64 1.496,6.12 z m -0.011,42.98 c 2.164,0 4.746,-3.29 4.996,-8.02 0.121,-2.27 -0.481,-4.26 -1.403,-5.75 h -4.078 v -1.45 c -1.687,1.1 -3.234,3.85 -3.426,7.46 -0.148,2.76 0.606,5.37 1.957,6.8 0.61,0.63 1.266,0.96 1.954,0.96 z m -6.821,45.28 c 0.61,0.64 1.266,0.97 1.953,0.97 2.164,0 4.746,-3.29 4.996,-8.02 0.141,-2.77 -0.601,-5.38 -1.96,-6.8 -0.606,-0.64 -1.262,-0.97 -1.954,-0.97 -2.16,0 -4.75,3.29 -4.992,8.02 -0.148,2.76 0.606,5.37 1.957,6.8 z m -2.738,42.34 c 2.148,0 4.652,-3.27 4.816,-7.98 0.102,-2.77 -0.703,-5.38 -2.089,-6.82 -0.629,-0.66 -1.301,-0.98 -2,-0.98 -2.145,0 -4.649,3.27 -4.817,7.98 -0.09,2.77 0.703,5.38 2.09,6.82 0.633,0.65 1.305,0.98 2,0.98 z m -0.965,40.69 1.031,0.11 c 2.028,-0.44 4.18,-3.45 4.336,-7.8 0.094,-2.78 -0.703,-5.39 -2.093,-6.83 -0.625,-0.65 -1.301,-0.98 -1.997,-0.98 -2.144,0 -4.656,3.27 -4.82,7.97 -0.094,2.78 0.703,5.39 2.094,6.83 0.457,0.47 0.953,0.59 1.449,0.7 z m -5.781,73.59 c 1.164,-0.24 2.32,-0.44 3.469,-0.66 -0.356,-1.01 -0.797,-1.93 -1.411,-2.56 -0.171,-0.19 -0.371,-0.15 -0.546,-0.28 l -0.332,1.84 -0.778,-0.14 z m 0.027,-22.55 0.031,-0.16 4.774,0.97 -0.055,0.28 c 1.41,-1.31 2.606,-3.72 2.719,-6.88 0.098,-2.79 -0.703,-5.4 -2.09,-6.84 -0.629,-0.65 -1.305,-0.98 -2,-0.98 -2.144,0 -4.648,3.28 -4.816,7.98 -0.078,2.21 0.531,4.14 1.437,5.63 z m 48.977,-405.74 c -0.567,-0.63 -1.184,-0.93 -1.856,-0.93 -2.199,0 -4.945,3.32 -5.363,8.1 -0.242,2.76 0.41,5.34 1.699,6.74 0.567,0.62 1.184,0.93 1.856,0.93 2.199,0 4.945,-3.32 5.363,-8.11 0.242,-2.75 -0.41,-5.33 -1.699,-6.73 z m 9.793,-34.8 c -0.469,-0.558 -0.996,-0.82 -1.617,-0.82 -2.289,0 -5.442,3.41 -6.293,8.308 -0.579,3.293 0.175,5.59 1.066,6.653 0.461,0.558 0.988,0.82 1.613,0.82 2.289,0 5.434,-3.41 6.293,-8.312 0.578,-3.289 -0.176,-5.579 -1.062,-6.649 z m 8.719,59.37 c 0.566,0.61 1.191,0.92 1.859,0.92 2.203,0 4.941,-3.33 5.363,-8.1 0.242,-2.76 -0.41,-5.35 -1.699,-6.76 -0.563,-0.6 -1.188,-0.92 -1.856,-0.92 -2.203,0 -4.945,3.33 -5.363,8.1 -0.242,2.76 0.406,5.35 1.696,6.76 z m 19.671,-99.46 0.125,-3.968 c -0.3,-1.274 -0.246,-2.774 0.137,-4.43 l 0.078,-2.582 c -2.844,4.41 -7.051,8.601 -10.965,9.519 -0.214,0.45 -0.437,0.93 -0.664,1.391 3.762,0.02 7.473,0.051 11.289,0.07 z m -7.082,7.239 c -0.488,0 -0.964,-0.008 -1.453,-0.008 0.067,0.32 0.196,0.597 0.242,0.929 0.375,-0.378 0.813,-0.589 1.211,-0.921 z m 6.078,-26.879 c 0.036,-0.149 0.024,-0.239 0.047,-0.379 -0.918,0 -1.8,0.008 -2.714,0.008 0.878,0.132 1.777,0.25 2.667,0.371 z m -10.121,9.601 1.621,2.188 c 0.235,0.09 0.422,0 0.649,0 0.762,-0.571 1.527,-1.309 2.344,-2.188 z m 2.903,-2.492 1.922,0.41 c 0.031,0.102 0.043,1.289 0.043,1.821 1.207,-1.34 2.39,-2.848 3.418,-4.711 -1.879,-0.25 -3.747,-0.52 -5.551,-0.829 -0.699,0.942 -1.395,1.899 -1.992,3.008 -0.438,0.801 -0.719,1.492 -0.989,2.153 1.387,-2.172 2.051,-2.09 3.149,-1.852 z m -9.696,12.43 c 0.485,-0.117 0.938,-0.399 1.434,-0.41 0.363,-0.797 0.684,-1.481 1.008,-2.161 -0.297,-0.296 -0.66,-0.488 -0.879,-0.859 -0.598,-1 -0.774,-2.309 -0.727,-3.75 -2.203,1.789 -4.527,3.012 -6.656,3.012 -0.324,0 -0.582,-0.172 -0.883,-0.223 -0.535,1.242 -1.16,2.801 -1.765,4.313 2.82,0.027 5.617,0.058 8.468,0.078 z m -2.086,7.23 c -0.015,0 -0.023,0 -0.039,0 -0.921,1.403 -1.679,3.199 -1.941,5.332 -0.34,2.758 0.215,5.34 1.438,6.707 0.527,0.614 1.105,0.891 1.765,0.891 2.235,0 5.141,-3.359 5.731,-8.18 0.226,-1.82 -0.098,-3.359 -0.614,-4.687 C 315.355,950 315.023,950 314.688,950 c -0.313,0.68 -0.625,1.371 -0.934,2.039 l -4.434,-2.008 c 0.016,-0.031 0.028,-0.051 0.035,-0.082 z m -2.046,-16.859 c 2,-1.078 4.761,-3.699 6.992,-7.328 -1.828,-0.371 -3.582,-0.782 -5.305,-1.203 -0.543,0.781 -1.105,1.519 -1.582,2.382 -0.652,1.207 -1.051,2.207 -1.355,3.11 v 3.34 c 0.761,0 1.261,-0.379 1.398,-0.532 -0.039,0.051 -0.102,0.172 -0.148,0.231 z m -14.813,-19.668 c 1.043,0.59 2.27,1.199 3.602,1.789 1.711,-1.551 3.507,-3.5 5.047,-5.93 2.187,-3.48 2.578,-5.742 2.449,-6.531 -1.961,0.121 -6.785,3.629 -10.254,9.129 -0.356,0.562 -0.582,1.031 -0.844,1.543 z m 11.258,-15.613 c 1.789,0 3.281,0.839 4.09,2.3 1.433,2.61 0.492,6.891 -2.59,11.77 -0.824,1.301 -1.938,2.57 -3.024,3.832 0.286,0 0.567,0 0.852,-0.012 0.457,-0.39 0.934,-0.789 1.379,-1.179 l 1.023,1.16 c 1.743,-0.008 3.5,-0.02 5.254,-0.032 2.039,-1.558 4.149,-2.617 6.11,-2.617 1.785,0 3.308,0.84 4.179,2.297 0.043,0.07 0.047,0.16 0.082,0.242 2.891,-0.019 5.68,-0.05 8.582,-0.07 l 0.27,-24.43 c -27.254,3.45 -43.082,10.602 -43.082,16.16 0,0.801 0.402,1.641 1.031,2.469 l 1.68,-0.961 c 3.566,-5.386 9.574,-10.929 14.164,-10.929 z m 26.465,57.8 -0.039,0.082 -4.426,-2.011 0.246,-0.551 c -1.945,1.109 -3.984,3.961 -4.652,7.762 -0.575,3.289 0.172,5.589 1.058,6.648 0.465,0.563 0.996,0.82 1.614,0.82 2.293,0 5.445,-3.41 6.304,-8.308 0.321,-1.832 0.196,-3.27 -0.105,-4.442 z M 262.23,810.18 l -2.757,36.429 c 22.718,0.602 46.515,1.02 70.972,1.231 l 0.426,-38.469 c -24.93,0.238 -47.762,0.5 -68.641,0.809 z m 16.067,-31.75 -14.551,11.789 -0.957,12.633 c 20.633,-0.282 43.32,-0.543 68.164,-0.782 l 0.254,-22.519 c -18.098,-0.211 -35.785,-0.582 -52.91,-1.121 z m 39.16,-41.11 -121.754,29.7 c 23.395,1.691 50.129,3.089 80.07,4.058 z m -30.488,34.09 c 14.117,0.399 28.894,0.692 44.316,0.871 l 0.41,-37.101 z m 30.554,233.38 c 2.196,-0.24 4.911,-3.46 5.481,-8.11 0.336,-2.739 -0.211,-5.321 -1.441,-6.711 -0.528,-0.578 -1.102,-0.891 -1.762,-0.891 -2.238,0 -5.137,3.363 -5.735,8.203 -0.336,2.739 0.215,5.319 1.442,6.709 0.043,0.04 0.094,0.01 0.137,0.06 l 1.945,0.33 z m -45.625,421.71 c -2.304,-2.38 -3.593,-6.26 -3.445,-10.37 0.223,-6.48 3.844,-11.47 8.402,-12.33 v -9.56 c -0.902,-0.41 -1.753,-1.03 -2.519,-1.81 -2.305,-2.39 -3.594,-6.27 -3.453,-10.37 0.195,-5.56 2.871,-10.07 6.492,-11.82 l 2.387,-19.09 c -1.078,-0.4 -2.102,-0.99 -2.992,-1.92 -2.305,-2.39 -3.594,-6.27 -3.45,-10.37 0.2,-5.81 3.129,-10.41 7.004,-11.96 l 1.133,-14.71 c -1.031,-0.41 -2.008,-1.01 -2.863,-1.91 -2.305,-2.38 -3.594,-6.27 -3.453,-10.37 0.211,-5.88 3.211,-10.5 7.156,-12 l 1.648,-12.55 c -1.011,-0.41 -1.961,-1.01 -2.8,-1.89 -2.305,-2.39 -3.594,-6.26 -3.454,-10.37 0.196,-5.51 2.829,-10.02 6.407,-11.8 l 3.199,-14.61 c -0.945,-0.42 -1.824,-1.03 -2.617,-1.86 -2.305,-2.38 -3.594,-6.26 -3.45,-10.37 0.227,-6.53 3.899,-11.56 8.5,-12.36 l 2.008,-14.92 c -1.004,-0.42 -1.957,-1.03 -2.797,-1.9 -2.304,-2.38 -3.593,-6.27 -3.453,-10.37 0.215,-6.08 3.418,-10.8 7.563,-12.11 l 1.219,-14.64 c -0.579,-0.38 -1.168,-0.68 -1.68,-1.21 -2.305,-2.39 -3.594,-6.27 -3.449,-10.38 0.246,-6.96 4.355,-12.38 9.398,-12.6 l 0.484,-6.12 c 0.168,-2.05 0.297,-3.7 0.426,-5.16 -1.621,-0.26 -3.148,-0.93 -4.426,-2.25 -2.304,-2.38 -3.593,-6.27 -3.449,-10.37 0.242,-6.84 4.207,-12.11 9.106,-12.52 l 1.98,-13.55 c -0.988,-0.42 -1.933,-1.03 -2.765,-1.89 -2.305,-2.39 -3.594,-6.27 -3.454,-10.37 0.215,-6.07 3.383,-10.75 7.5,-12.1 l 4.442,-12.38 c -0.824,-0.42 -1.61,-0.96 -2.285,-1.69 -2.211,-2.42 -3.313,-6.34 -2.953,-10.47 0.445,-5.13 2.972,-9.39 6.285,-11.35 l 2.718,-16.34 c -0.085,-0.08 -0.199,-0.1 -0.289,-0.2 -2.152,-2.43 -3.132,-6.37 -2.621,-10.53 0.629,-5.141 3.325,-9.43 6.719,-11.352 l -1.219,-0.469 5.004,-13.359 c -0.347,-0.281 -0.758,-0.449 -1.058,-0.828 -1.227,-1.453 -1.942,-3.473 -2.219,-5.711 -1.742,1.648 -3.746,2.789 -5.887,2.789 -1.914,0 -3.687,-0.852 -5.094,-2.289 l -2.437,13.027 c 0.578,0.391 1.172,0.731 1.641,1.293 2.074,2.457 2.871,6.43 2.14,10.617 -1.211,6.93 -6.082,12.342 -11.09,12.342 -0.332,0 -0.629,-0.16 -0.953,-0.21 l -2.515,10.03 c 0.914,0.44 1.765,1.04 2.496,1.85 2.218,2.42 3.32,6.32 2.961,10.47 -0.618,7.03 -5.106,12.54 -10.215,12.54 -0.43,0 -0.828,-0.18 -1.242,-0.27 l -2.743,16.46 c 1.453,0.34 2.836,0.97 3.938,2.18 2.219,2.41 3.316,6.32 2.961,10.47 -0.578,6.58 -4.602,11.68 -9.313,12.31 v 16.68 h -0.73 c 1.965,2.43 3.015,6.04 2.742,9.91 -0.473,6.78 -4.59,12.02 -9.469,12.43 l -1.394,19.55 c 0.883,0.42 1.715,1.01 2.426,1.79 2.218,2.42 3.316,6.32 2.96,10.47 -0.617,7.03 -5.105,12.54 -10.214,12.54 -0.223,0 -0.418,-0.12 -0.637,-0.14 l 1.48,23.65 c 1.793,2.43 2.743,5.87 2.489,9.55 -0.422,6.04 -3.754,10.72 -7.903,12.02 v 17.33 c 0.77,0.41 1.524,0.9 2.188,1.59 2.269,2.39 3.5,6.28 3.281,10.4 -0.312,6.02 -3.551,10.71 -7.668,12.05 l -3.238,21.88 c 0.992,0.43 1.929,1.05 2.754,1.91 2.273,2.39 3.504,6.29 3.281,10.4 -0.316,6.04 -3.563,10.73 -7.695,12.06 l -2.856,17.3 c 0.793,0.39 1.559,0.89 2.242,1.61 2.305,2.38 3.594,6.26 3.446,10.37 -0.203,5.91 -3.243,10.55 -7.215,12.02 l 0.25,16.62 c 1.117,0.39 2.176,1 3.097,1.95 2.305,2.39 3.594,6.27 3.454,10.37 -0.211,5.95 -3.278,10.61 -7.289,12.04 l -2.696,28.62 c 1.039,0.42 2.016,1.01 2.879,1.91 2.313,2.38 3.594,6.26 3.453,10.37 -0.234,6.59 -3.953,11.66 -8.613,12.4 l -1.313,7.21 c 1.129,0.4 2.196,1.01 3.129,1.96 1.25,1.29 2.172,3.06 2.758,5.03 3.063,-0.57 6.074,-1.13 8.942,-1.67 2.855,-0.53 5.609,-1.03 8.3,-1.54 1.325,-2.76 3.301,-4.71 5.704,-5.52 l 0.765,-7.54 c -0.82,-0.41 -1.601,-0.92 -2.305,-1.65 z m 9.805,-51.66 -2.062,-0.27 c -1.883,0.77 -3.75,3.61 -3.887,7.66 -0.074,1.94 0.422,3.65 1.133,5.09 h 4.836 v 1.86 c 1.504,-1.24 2.812,-3.8 2.929,-7.12 0.098,-2.77 -0.703,-5.39 -2.089,-6.82 -0.266,-0.29 -0.575,-0.27 -0.852,-0.42 z m 3.117,-42.9 -0.058,0.8 -4.125,-0.33 c -1.285,1.38 -2.352,3.65 -2.453,6.61 -0.098,2.77 0.703,5.39 2.089,6.82 0.043,0.06 0.094,0.04 0.141,0.08 l 0.113,-0.89 4.039,0.51 c 1.325,-1.36 2.411,-3.67 2.52,-6.68 0.098,-2.78 -0.699,-5.39 -2.09,-6.82 -0.055,-0.07 -0.121,-0.04 -0.176,-0.1 z m 1.043,-39.33 -1.8,-0.24 c -1.938,0.66 -3.907,3.57 -4.051,7.71 -0.098,2.77 0.699,5.4 2.09,6.82 0.625,0.67 1.3,0.99 1.996,0.99 2.148,0 4.652,-3.27 4.812,-7.98 0.098,-2.76 -0.695,-5.39 -2.09,-6.81 -0.3,-0.32 -0.636,-0.32 -0.957,-0.49 z m 1.504,-37.32 c -2.14,0 -4.648,3.28 -4.812,7.98 -0.094,2.78 0.703,5.39 2.093,6.83 0.625,0.65 1.301,0.98 1.993,0.98 2.148,0 4.66,-3.29 4.82,-7.98 0.098,-2.78 -0.699,-5.39 -2.09,-6.83 -0.629,-0.65 -1.301,-0.98 -2.004,-0.98 z m 5.602,-37.54 -3.707,-0.49 c -1.61,1.15 -3.039,3.86 -3.168,7.37 -0.098,2.77 0.703,5.39 2.09,6.82 0.625,0.67 1.304,0.99 2.004,0.99 2.14,0 4.648,-3.27 4.808,-7.98 0.094,-2.72 -0.687,-5.26 -2.027,-6.71 z m 2.91,-40.3 -1.371,-0.11 c -1.969,0.58 -4.004,3.52 -4.153,7.74 -0.101,2.77 0.7,5.39 2.086,6.82 0.629,0.67 1.305,0.99 2.004,0.99 2.141,0 4.649,-3.27 4.809,-7.98 0.101,-2.76 -0.699,-5.39 -2.086,-6.81 -0.406,-0.43 -0.848,-0.49 -1.289,-0.65 z m 4.937,-37.69 c -0.511,-0.54 -1.07,-0.72 -1.632,-0.8 l -0.707,-0.06 c -2.067,0.32 -4.317,3.39 -4.473,7.85 -0.098,2.76 0.703,5.39 2.09,6.82 0.625,0.66 1.304,0.98 2.004,0.98 2.14,0 4.648,-3.27 4.808,-7.98 0.098,-2.76 -0.699,-5.39 -2.09,-6.81 z m 4.579,-60.05 c 2.144,0 4.648,-3.26 4.812,-7.97 0.102,-2.77 -0.699,-5.39 -2.086,-6.82 -0.238,-0.26 -0.508,-0.23 -0.762,-0.38 l -0.832,2.33 -3.164,-1.15 c -1.097,1.42 -1.965,3.53 -2.054,6.19 -0.102,2.76 0.699,5.39 2.086,6.81 0.628,0.67 1.304,0.99 2,0.99 z m -2.141,23.54 c -0.524,-0.55 -1.09,-0.73 -1.66,-0.82 l -0.574,-0.1 c -2.09,0.24 -4.422,3.37 -4.579,7.91 -0.097,2.77 0.7,5.4 2.086,6.81 0.453,0.48 0.942,0.58 1.43,0.71 0.027,-0.21 0.066,-0.35 0.102,-0.53 l 0.703,0.74 c 0.566,-0.07 1.133,-0.35 1.691,-0.82 h -2.379 c 0.453,-2.53 1.039,-2.59 2.422,-2.54 l 1.699,0.07 c 0.606,-1.28 1.082,-2.78 1.141,-4.61 0.105,-2.76 -0.695,-5.39 -2.082,-6.82 z m -23.621,319.63 c 1.347,-1.34 2.48,-3.68 2.586,-6.75 0.097,-2.77 -0.699,-5.39 -2.086,-6.81 -0.059,-0.07 -0.129,-0.04 -0.18,-0.1 h -3.098 v -0.44 c -1.753,0.97 -3.406,3.74 -3.535,7.52 -0.082,2.28 0.551,4.27 1.504,5.76 l 0.219,-2.14 4.84,0.5 z m -56.297,-245.75 c 0.504,0.55 0.883,0.55 1.012,0.55 1.535,0 4.101,-3.18 4.629,-8.15 0.339,-3.23 -0.387,-5.38 -1.18,-6.53 l -2.68,-0.39 c -1.367,1.19 -2.832,3.81 -3.211,7.43 -0.386,3.62 0.532,6.07 1.43,7.09 z m -7.617,36.56 3.051,0.43 c 1.445,-1.15 2.945,-3.75 3.253,-7.42 0.243,-2.88 -0.406,-5.62 -1.656,-6.97 -0.129,-0.15 -0.226,-0.17 -0.344,-0.26 l -1.492,-0.27 c -1.679,0.48 -3.886,3.32 -4.277,7.9 -0.231,2.7 0.379,5.16 1.465,6.59 z m -6.047,40.1 2.781,0.36 c 1.34,-1.21 2.762,-3.79 3.137,-7.34 0.387,-3.63 -0.531,-6.08 -1.434,-7.09 -0.121,-0.12 -0.199,-0.15 -0.308,-0.23 l -1.09,-0.15 c -1.543,0.43 -3.754,3.38 -4.242,7.98 -0.34,3.19 0.371,5.3 1.156,6.47 z m -5.652,62.05 c -1.54,0 -4.102,3.17 -4.629,8.15 -0.387,3.62 0.531,6.07 1.433,7.08 0.5,0.55 0.879,0.55 1.008,0.55 1.539,0 4.102,-3.17 4.629,-8.15 0.387,-3.62 -0.531,-6.08 -1.438,-7.08 -0.496,-0.55 -0.878,-0.55 -1.003,-0.55 z m 1.675,-21.28 c 0.496,0.55 0.879,0.55 1.004,0.55 1.539,0 4.102,-3.18 4.629,-8.15 0.387,-3.62 -0.531,-6.07 -1.433,-7.08 -0.5,-0.55 -0.879,-0.55 -1.008,-0.55 -1.539,0 -4.102,3.17 -4.629,8.15 -0.387,3.61 0.531,6.08 1.437,7.08 z m -18.711,141.83 c -1.007,1.41 -1.914,3.53 -2.199,6.25 -0.387,3.62 0.531,6.07 1.438,7.08 0.496,0.55 0.879,0.55 1.004,0.55 1.539,0 4.109,-3.17 4.632,-8.15 0.344,-3.21 -0.375,-5.32 -1.164,-6.49 l -0.289,1.44 z m 3.93,-26.67 0.195,-0.98 4.344,0.87 c 0.875,-1.41 1.629,-3.4 1.883,-5.82 0.383,-3.62 -0.535,-6.07 -1.438,-7.08 -0.496,-0.56 -0.878,-0.56 -1.003,-0.56 -1.54,0 -4.102,3.18 -4.629,8.16 -0.266,2.44 0.129,4.11 0.648,5.41 z m 5.797,-56.49 c -1.535,0.65 -3.551,3.49 -4.016,7.87 -0.386,3.63 0.532,6.08 1.438,7.08 0.496,0.56 0.879,0.56 1.004,0.56 1.539,0 4.105,-3.18 4.633,-8.15 0.32,-2.98 -0.297,-4.93 -1.008,-6.18 l -2.196,-0.36 z m 35.391,-213.47 c 1.027,-0.46 3.027,-3.13 3.476,-7.93 0.34,-3.63 -0.488,-6.35 -1.402,-7.35 -0.082,-0.09 -0.305,-0.31 -0.469,-0.31 -0.879,0 -3.305,2.84 -3.801,8.12 -0.183,1.99 -0.004,3.67 0.328,4.97 l 2.18,0.32 z m 10.707,-53.7 c -0.079,-0.11 -0.2,-0.23 -0.286,-0.23 -0.964,0 -3.738,2.83 -4.734,8.33 -0.656,3.61 -0.094,6.29 0.703,7.24 0.082,0.1 0.199,0.21 0.289,0.21 0.961,0 3.739,-2.83 4.731,-8.32 0.66,-3.61 0.097,-6.29 -0.703,-7.23 z m 7.586,-38.56 c 0,0 -0.008,0 -0.024,0 -1.172,0 -4.078,3.2 -5.301,8.45 -0.761,3.23 -0.461,5.28 -0.07,6.38 l 1.988,0.03 c 1.332,-1.28 2.992,-3.86 3.848,-7.53 1.125,-4.78 -0.039,-7.14 -0.441,-7.33 z m 10.316,-33.5 -1.352,-0.81 c -1.375,0.84 -3.527,3.68 -4.554,8.07 -0.817,3.47 -0.418,5.64 0.004,6.65 l 1.316,0.26 c 1.387,-0.93 3.449,-3.76 4.445,-8.02 0.715,-3.05 0.489,-5 0.141,-6.15 z m 10.887,-16.809 c 1.511,-0.863 4.011,-3.761 5.457,-8.25 0.347,-1.089 0.566,-2.043 0.691,-2.902 l -0.691,1.031 -3.145,-2.09 c -1.004,1.43 -2.015,3.192 -2.738,5.442 -0.594,1.887 -0.781,3.367 -0.801,4.547 l 1.879,1.121 z m 10.093,-6.769 c -1.921,5.969 -6.281,12.008 -10.898,12.008 -0.734,0 -1.422,-0.18 -2.051,-0.49 l -4.746,7.91 c 0.027,0.04 0.07,0.06 0.102,0.08 1.871,2.38 2.328,6.6 1.215,11.33 -1.415,6.07 -5.321,12.21 -10.043,12.21 -0.059,0 -0.11,-0.04 -0.168,-0.04 l -1.973,10.18 c 0.43,0.31 0.887,0.57 1.23,1.01 1.871,2.36 2.332,6.6 1.219,11.33 -1.18,5.04 -4.094,10.09 -7.754,11.66 -0.929,3.89 -2.332,9.2 -3.554,13.76 0.843,0.32 1.64,0.8 2.273,1.55 1.953,2.34 2.613,6.54 1.762,11.24 -1.059,5.85 -4.438,11.71 -8.907,12.22 l -1.378,15.18 c 1.902,2.35 2.816,6.28 2.406,10.73 -0.676,7.14 -4.391,12.53 -8.649,12.53 -0.14,0 -0.254,-0.07 -0.386,-0.08 l -1.887,13.2 c 0.582,0.34 1.16,0.7 1.66,1.25 2.129,2.37 3.125,6.43 2.649,10.85 -0.743,7.01 -4.692,12.25 -9.227,12.44 l -2.309,12.7 c 0.578,0.35 1.172,0.69 1.672,1.26 2.196,2.37 3.289,6.36 2.922,10.66 -0.523,6.2 -3.887,10.98 -7.945,12.09 l -2.34,16.39 c 0.402,0.28 0.836,0.49 1.187,0.89 2.133,2.38 3.125,6.43 2.657,10.85 -0.606,5.73 -3.387,10.17 -6.856,11.75 l -2.015,16.08 c 0.703,0.36 1.371,0.84 1.957,1.48 2.129,2.37 3.125,6.43 2.652,10.85 -0.754,7.13 -4.828,12.5 -9.469,12.5 -0.066,0 -0.125,-0.04 -0.195,-0.04 l -1.137,11.33 c 1.211,0.29 2.348,0.84 3.281,1.87 2.129,2.38 3.125,6.42 2.657,10.85 -0.602,5.66 -3.325,10.08 -6.742,11.71 l -2.458,14.77 c 2.012,2.41 2.965,6.33 2.504,10.63 -0.707,6.7 -4.382,11.68 -8.679,12.28 v 18.13 c 1.332,0.25 2.582,0.82 3.593,1.95 2.129,2.37 3.125,6.42 2.649,10.85 -0.645,6.13 -3.793,10.74 -7.606,11.96 l -2.773,13.89 c 0.82,0.35 1.582,0.89 2.25,1.63 2.133,2.37 3.125,6.42 2.656,10.85 -0.437,4.16 -2.078,7.56 -4.234,9.8 10.301,-1.33 21.512,-2.41 33.078,-3.29 2.457,-0.48 4.898,-0.93 7.34,-1.4 0.664,-4.66 2.953,-8.41 6.125,-9.97 l 1.922,-8.62 c -0.539,-0.36 -1.102,-0.64 -1.578,-1.13 -2.309,-2.39 -3.594,-6.27 -3.454,-10.37 0.211,-6.01 3.336,-10.7 7.407,-12.07 l 2.691,-28.56 c -1.082,-0.42 -2.105,-1.01 -2.996,-1.94 -2.305,-2.39 -3.594,-6.27 -3.449,-10.37 0.207,-5.92 3.238,-10.56 7.211,-12.02 l -0.246,-16.63 c -1.114,-0.4 -2.18,-1 -3.098,-1.95 -2.305,-2.39 -3.594,-6.27 -3.453,-10.38 0.234,-6.59 3.965,-11.67 8.64,-12.39 l -0.519,-0.09 2.75,-16.64 c -0.981,-0.42 -1.898,-1.04 -2.711,-1.88 -2.281,-2.4 -3.504,-6.29 -3.289,-10.41 0.316,-6.02 3.555,-10.72 7.668,-12.06 l 3.238,-21.9 c -0.996,-0.41 -1.929,-1.02 -2.75,-1.87 -2.277,-2.41 -3.504,-6.29 -3.289,-10.42 0.332,-6.32 3.875,-11.19 8.289,-12.22 v -16.87 c -0.988,-0.42 -1.918,-1.02 -2.726,-1.89 -2.243,-2.41 -3.414,-6.31 -3.125,-10.43 0.496,-7.07 4.902,-12.59 10.039,-12.59 0.355,0 0.672,0.16 1.019,0.22 l -1.445,-23.2 c -2.043,-2.44 -3.07,-6.16 -2.727,-10.12 0.539,-6.17 4.082,-10.92 8.371,-12.07 l 1.481,-20.75 c -0.418,-0.3 -0.879,-0.51 -1.258,-0.91 -2.238,-2.42 -3.41,-6.31 -3.117,-10.43 0.492,-7.07 4.894,-12.59 10.031,-12.59 0.598,0 1.145,0.22 1.711,0.37 v -15.21 c -0.504,-0.35 -1.047,-0.61 -1.48,-1.1 -2.215,-2.41 -3.321,-6.32 -2.957,-10.47 0.461,-5.33 3.168,-9.76 6.679,-11.61 l 3.27,-19.6 0.101,0.02 c -2.058,-2.43 -3.105,-6.18 -2.754,-10.19 0.528,-6.04 3.981,-10.75 8.18,-12.01 l 3.082,-12.29 c -2.047,-2.46 -2.832,-6.41 -2.109,-10.581 1.129,-6.411 5.414,-11.348 10.023,-12.059 l 4.289,-22.949 h 0.016 c 0.211,-1.66 0.656,-3.211 1.254,-4.641 -1.223,-0.012 -2.461,-0.019 -3.68,-0.031 -0.281,0.75 -0.555,1.43 -0.832,2.18 0.352,0.32 0.762,0.57 1.008,1 1.539,2.582 0.918,6.812 -1.691,11.613 -3.059,5.629 -8.903,11.598 -13.711,11.598 -0.215,0 -0.379,-0.122 -0.582,-0.149 l -2.532,3.789 c 1.223,2.5 1.239,6.27 -0.129,10.512 z m 0.598,-50.731 1.59,0.848 c 0.09,-0.059 0.184,-0.129 0.277,-0.211 v -4.5 h 1.567 c 0.168,0.082 0.812,1.5 0.812,1.5 0.078,0.184 0.141,0.352 0.195,0.512 1.192,-1.34 2.375,-2.852 3.379,-4.699 0.383,-0.719 0.629,-1.301 0.879,-1.922 -0.699,0.312 -1.086,0.34 -1.355,0.34 v -4.188 c -2.176,1.367 -5.047,4.188 -7.168,8.098 -0.977,1.801 -1.445,3.211 -1.692,4.32 0.633,-0.871 1.075,-1.551 1.211,-1.891 -0.086,0.223 -0.214,1.02 0.305,1.793 z m -28.644,-16.113 -0.36,4.723 c 1.711,-1.883 3.606,-3.571 5.508,-4.789 -1.703,0.027 -3.461,0.047 -5.148,0.066 z m 23.363,-7.59 6.695,-3.859 c -1.062,-1.539 -1.691,-3.168 -1.691,-4.899 0,-10.628 21.359,-17.761 48.008,-21.031 l 0.343,-31.09 c -24.023,-0.218 -48.105,-0.64 -71.437,-1.25 l -4.731,62.442 c 7.442,-0.129 15.172,-0.223 22.813,-0.313 z M 168.688,804.801 c 23.835,-0.731 52.425,-1.313 86.773,-1.832 l 1.121,-14.867 1.344,-2.563 9.242,-7.488 c -34.492,-1.223 -66.332,-3.082 -94.117,-5.5 l -3.391,0.82 z M 89.6523,752.328 c 11.3087,4.031 36.1287,8.332 72.9847,11.922 l 0.578,-18.449 z m 71.7187,52.692 0.93,-29.852 -19.43,4.742 -1.098,25.82 c 6.094,-0.25 12.676,-0.48 19.598,-0.71 z m -21.418,43.441 -3.027,71.18 c 1.562,-0.071 3.078,-0.153 4.691,-0.219 5.199,-0.211 10.738,-0.422 16.219,-0.621 l 2.148,-69.039 c -0.808,-0.051 -1.703,-0.09 -2.5,-0.153 -6.199,-0.371 -12.004,-0.769 -17.531,-1.148 z m 20.258,-5.981 0.934,-30.14 c -6.965,0.23 -13.524,0.48 -19.684,0.73 l -1.195,28.11 c 6.371,0.461 13.031,0.89 19.945,1.3 z m -72.6719,-97.281 75.9019,-6.738 0.34,-10.91 c -39.465,5.808 -66.031,12.437 -76.2419,17.648 z M 231.078,976.551 c 0.231,0.308 0.406,0.328 0.582,0.328 1.68,0 5.055,-3.32 6.52,-8.559 0.953,-3.359 0.605,-5.941 -0.121,-6.902 -0.235,-0.309 -0.411,-0.328 -0.586,-0.328 -1.68,0 -5.055,3.332 -6.524,8.551 -0.945,3.379 -0.601,5.961 0.129,6.91 z m 152.867,-204.09 c 2.188,-0.012 4.328,-0.031 6.489,-0.051 v -11.109 l -6.489,-14.422 z m 0,29.199 c 2.164,-0.012 4.328,-0.019 6.489,-0.031 v -21.918 c -2.153,0.008 -4.325,0.019 -6.489,0.027 z m 0,46.32 c 2.184,0 4.336,-0.019 6.489,-0.031 v -39.008 c -2.161,0 -4.305,0 -6.489,0.008 z m 0,36.821 c 2.184,0.14 4.348,0.308 6.489,0.5 V 855.25 c -2.192,0.012 -4.379,0.031 -6.489,0.031 z m 0,30.621 c 2.164,0 4.336,0 6.489,0.019 v -25.273 c -2.11,-0.188 -4.266,-0.348 -6.489,-0.496 z m 0,9.367 c 2.227,-0.148 4.379,-0.328 6.489,-0.508 v -1.551 c -2.161,-0.011 -4.305,-0.019 -6.489,-0.019 z m 0,18.121 c 3.696,-0.012 7.325,-0.031 10.969,-0.039 l 0.031,-14.18 c -3.605,0.379 -7.269,0.7 -11,0.938 z m 0,15.899 c 0.227,0.191 0.485,0.269 0.696,0.492 2.308,2.398 3.593,6.277 3.449,10.379 -0.149,4.23 -1.809,7.73 -4.145,10.031 v 13.949 c 0.434,0.32 0.91,0.52 1.305,0.93 2.305,2.39 3.594,6.28 3.453,10.38 -0.168,4.59 -2.086,8.35 -4.758,10.57 v 14.52 c 0.063,0.06 0.141,0.08 0.2,0.14 2.304,2.38 3.593,6.27 3.453,10.37 -0.141,3.94 -1.578,7.28 -3.653,9.59 v 16.33 c 1.95,2.41 3.063,5.92 2.93,9.67 -0.125,3.5 -1.23,6.61 -2.93,8.88 v 19.79 c 0.227,0.2 0.485,0.29 0.696,0.5 2.308,2.4 3.593,6.28 3.449,10.38 -0.149,4.23 -1.809,7.74 -4.145,10.03 v 18.63 c 1.95,2.42 3.063,5.92 2.93,9.68 -0.125,3.5 -1.23,6.61 -2.93,8.88 v 16.32 c 0.434,0.3 0.91,0.52 1.305,0.93 2.305,2.39 3.594,6.28 3.453,10.38 -0.168,4.58 -2.086,8.35 -4.758,10.56 v 15.07 c 0.227,0.19 0.485,0.28 0.696,0.49 2.308,2.4 3.593,6.28 3.449,10.39 -0.149,4.22 -1.809,7.74 -4.145,10.02 v 21.51 c 0.032,0.03 0.059,0.04 0.09,0.07 2.305,2.4 3.594,6.27 3.449,10.38 -0.14,3.87 -1.523,7.18 -3.539,9.49 v 17.36 c 0.227,0.18 0.485,0.27 0.696,0.5 2.308,2.39 3.593,6.27 3.449,10.38 -0.149,4.23 -1.809,7.73 -4.145,10.02 v 15.78 c 0.434,0.31 0.91,0.53 1.305,0.93 2.305,2.4 3.594,6.28 3.453,10.39 -0.168,4.58 -2.086,8.34 -4.758,10.56 v 15.41 c 0.664,0.38 1.332,0.77 1.914,1.37 2.305,2.39 3.59,6.27 3.45,10.38 -0.176,4.94 -2.348,9.01 -5.364,11.11 v 36.9 c 20.368,5.71 42.485,11.91 64.711,18.13 5.328,0.27 10.582,0.58 15.782,0.89 0.207,-5.21 2.546,-9.55 5.886,-11.38 l -0.879,-4.83 c -0.3,0.04 -0.562,0.19 -0.871,0.19 -5.176,0 -9.422,-5.58 -9.672,-12.68 -0.14,-4.1 1.153,-8 3.457,-10.38 0.766,-0.79 1.621,-1.39 2.524,-1.8 l 0.707,-7.74 c -0.418,-0.31 -0.867,-0.51 -1.25,-0.89 -2.332,-2.38 -3.684,-6.25 -3.613,-10.34 0.093,-5.07 2.273,-9.26 5.363,-11.31 v -14.08 c -4.352,-1.1 -7.688,-5.95 -7.793,-12.26 -0.074,-4.1 1.285,-7.97 3.617,-10.35 0.715,-0.73 1.52,-1.25 2.348,-1.66 v -16.66 c -4.043,-1.4 -7.078,-6.09 -7.188,-12.1 -0.066,-4.1 1.285,-7.97 3.621,-10.34 0.766,-0.77 1.61,-1.36 2.504,-1.77 l -3.5,-17.54 c -4.504,-0.92 -7.988,-5.88 -8.097,-12.33 -0.075,-4.1 1.285,-7.97 3.617,-10.35 0.515,-0.52 1.109,-0.83 1.687,-1.18 l -2.043,-14.3 c -4.824,-0.53 -8.621,-5.74 -8.738,-12.51 -0.07,-4.09 1.281,-7.97 3.617,-10.34 1.168,-1.18 2.543,-1.81 3.981,-2.13 l 1.004,-13.11 c -4.145,-1.29 -7.282,-6.04 -7.383,-12.15 -0.074,-4.09 1.285,-7.96 3.613,-10.34 0.598,-0.6 1.273,-0.98 1.957,-1.37 l -1.101,-16.56 c -3.676,-1.71 -6.508,-6.2 -6.899,-11.75 -0.285,-4.14 0.879,-8.03 3.125,-10.43 0.742,-0.8 1.566,-1.39 2.453,-1.8 l -1.73,-11.27 c -4.817,-0.5 -8.856,-5.67 -9.324,-12.4 -0.286,-4.12 0.878,-8.03 3.121,-10.43 0.996,-1.08 2.191,-1.68 3.453,-2.06 v -9.89 c -3.606,-1.78 -6.516,-6.2 -7.168,-11.57 -0.512,-4.16 0.469,-8.09 2.621,-10.53 0.512,-0.57 1.144,-0.94 1.758,-1.32 l -1.387,-6.95 c -4.707,-0.6 -8.883,-5.66 -9.688,-12.23 -0.511,-4.15 0.469,-8.09 2.622,-10.53 0.484,-0.54 1.082,-0.87 1.652,-1.24 l -0.688,-6.91 c -3.906,-1.54 -7.144,-6.05 -7.843,-11.74 -0.516,-4.16 0.468,-8.1 2.621,-10.53 0.781,-0.89 1.718,-1.5 2.722,-1.93 v -5.46 c -4.148,-1.32 -7.656,-5.949 -8.386,-11.899 -0.516,-4.16 0.468,-8.089 2.625,-10.531 0.187,-0.211 0.441,-0.301 0.644,-0.48 l -1.168,-4.7 c -3.789,-1.64 -6.898,-6.109 -7.578,-11.671 -0.512,-4.161 0.473,-8.098 2.625,-10.528 0.008,-0.019 0.027,-0.019 0.035,-0.031 l -0.75,-2.02 c -1.457,0.321 -2.976,0.348 -4.527,-0.25 -0.598,-0.23 -1.164,-0.582 -1.731,-0.929 -4.414,0.027 -8.73,0.078 -13.187,0.097 -0.59,1.243 -1.832,2.114 -3.297,2.114 -1.445,-0.012 -2.664,-0.871 -3.254,-2.094 -3.758,0.023 -7.558,0.023 -11.34,0.031 z m 0,425.721 c 0.27,-0.94 0.461,-1.96 0.493,-3.08 0.054,-1.39 -0.125,-2.75 -0.493,-3.93 z m 11.032,61.21 c -0.309,-0.08 -0.618,-0.15 -0.922,-0.24 0.086,0.08 0.179,0.16 0.265,0.23 0.223,0 0.438,0.01 0.657,0.01 z m -11.032,12.79 c 5.703,1.4 11.246,3.22 16.516,5.56 -3.211,-2.8 -6.523,-5.7 -9.953,-8.71 -2.153,-0.05 -4.391,-0.07 -6.563,-0.12 z m 66.321,34.92 c 4.336,-0.12 8.656,-0.24 12.797,-0.4 -1.114,-1.92 -2.012,-4.08 -2.317,-6.56 -0.48,-3.93 0.406,-7.61 2.313,-10.06 -14.426,-6.7 -28.938,-13.61 -42.489,-20.14 -4.843,-0.19 -9.757,-0.34 -14.734,-0.5 16.625,14.46 32.418,27.89 44.43,37.66 z m 14.199,-28.84 c -7.176,-1.93 -14.445,-3.9 -21.707,-5.87 7.359,3.5 14.629,6.92 21.656,10.19 0,-0.03 -0.016,-0.06 -0.016,-0.09 -0.179,-1.47 -0.117,-2.87 0.067,-4.23 z m 5.707,43.77 c 0.453,-1.16 0.652,-3.44 0.512,-5.91 -2.895,0.11 -5.762,0.23 -8.594,0.32 3.672,2.79 6.426,4.7 8.082,5.59 z m 4.34,-21.89 c -0.289,-2.36 -1.133,-4.34 -2.176,-5.78 -0.168,-0.08 -0.332,-0.16 -0.5,-0.24 -0.277,-0.12 -0.563,-0.2 -0.828,-0.36 -1.012,-0.48 -2.024,-0.93 -3.035,-1.41 -0.321,0.15 -0.668,0.16 -0.957,0.49 -1.223,1.38 -1.778,3.96 -1.438,6.7 0.383,3.14 1.77,5.55 3.301,6.93 1.484,-0.06 2.992,-0.11 4.453,-0.18 0.981,-1.46 1.488,-3.67 1.18,-6.15 z m 3.652,-17.65 c -0.027,-0.21 -0.105,-0.38 -0.144,-0.58 -2.872,-0.77 -5.778,-1.55 -8.711,-2.35 -0.051,0.77 -0.184,1.5 -0.079,2.34 0.145,1.18 0.434,2.29 0.821,3.28 2.355,1.08 4.726,2.19 7.035,3.23 0.894,-1.45 1.367,-3.54 1.078,-5.92 z m 0.645,23.58 c 6.05,-0.29 11.847,-0.6 17.414,-0.94 -5.692,-2.51 -11.535,-5.14 -17.477,-7.84 0.195,0.77 0.504,1.45 0.594,2.25 0.293,2.33 0.066,4.56 -0.531,6.53 z m 70.531,-5.72 c -6.367,-1.2 -33.563,-8.33 -66.297,-17.09 0.121,2.69 -0.336,5.23 -1.391,7.25 10.961,4.99 21.157,9.52 30.453,13.53 14.34,-1.08 26.754,-2.33 37.235,-3.69 z m 8.629,-14.41 c 0,-1.28 -0.219,-2.67 -0.543,-4.06 -16.125,-2.77 -37.188,-5.36 -62.231,-7.5 21.098,5.86 41.035,11.39 58.215,16.11 2.008,-0.47 4.559,-1.63 4.559,-4.55 z m 0.207,-22.25 c -0.27,-1.84 -0.852,-3.32 -1.504,-4.61 l -4.766,0.61 -0.332,-2.69 c -0.566,1.33 -0.875,3.42 -0.5,5.97 0.043,0.32 0.16,0.56 0.219,0.88 2.43,-0.3 4.832,0.29 7.004,1.65 -0.012,-0.58 -0.024,-1.16 -0.121,-1.81 z m 6.359,9.51 c 14.602,2.84 25.422,6.09 31.043,9.73 -1.07,-1.94 -1.93,-4.08 -2.187,-6.57 -0.438,-4.14 0.609,-8.06 2.793,-10.49 0.703,-0.77 1.515,-1.37 2.39,-1.8 l -1.804,-10.82 c -2.793,-1.98 -4.504,-6.9 -4.961,-11.58 -0.496,-5.03 0.363,-9.31 2.304,-11.45 0.266,-0.3 0.539,-0.38 0.813,-0.58 L 592.797,1399 c -2.961,-1.84 -4.774,-6.91 -5.246,-11.75 -0.488,-4.91 0.344,-9.08 2.179,-11.26 l -1.023,-16.45 c -3.066,-1.75 -4.937,-6.92 -5.422,-11.84 -0.492,-5.03 0.367,-9.31 2.313,-11.45 0.199,-0.23 0.41,-0.27 0.617,-0.44 l -1.192,-20.29 c -4.617,-0.75 -8.597,-5.74 -9.281,-12.23 -0.433,-4.15 0.61,-8.06 2.793,-10.49 0.512,-0.56 1.133,-0.92 1.742,-1.3 l -2.293,-18.36 c -4.992,-0.16 -9.429,-5.54 -10.152,-12.45 -0.434,-4.14 0.609,-8.06 2.793,-10.48 0.793,-0.88 1.738,-1.51 2.746,-1.93 l -1.062,-14.9 c -4.649,-0.71 -8.661,-5.71 -9.344,-12.24 -0.434,-4.14 0.609,-8.06 2.793,-10.48 0.222,-0.26 0.523,-0.37 0.769,-0.58 l -2.636,-18.43 c -4.055,-1.41 -7.703,-5.93 -8.805,-11.68 -0.809,-4.19 -0.07,-8.17 1.965,-10.64 0.504,-0.61 1.137,-1 1.758,-1.4 l -3.555,-15.42 c -3.766,-1.68 -7.039,-6.06 -8.082,-11.47 -0.805,-4.19 -0.067,-8.18 1.969,-10.66 0.218,-0.26 0.523,-0.39 0.773,-0.6 l -3.687,-19.68 c -4.055,-1.41 -7.684,-5.92 -8.789,-11.66 -0.805,-4.19 -0.071,-8.18 1.972,-10.65 0.395,-0.49 0.922,-0.76 1.406,-1.12 l -2.046,-14.3 c -4.528,-0.83 -8.778,-5.66 -9.989,-11.98 -0.812,-4.19 -0.074,-8.17 1.965,-10.64 0.203,-0.26 0.496,-0.36 0.719,-0.58 l -7.535,-12.93 c -4.617,-0.69 -8.989,-5.62 -10.223,-12.03 -0.805,-4.2 -0.07,-8.17 1.973,-10.65 0.125,-0.15 0.312,-0.22 0.449,-0.37 l -5,-11.99 c -4.125,-0.09 -7.711,-6.302 -9.301,-12.098 -0.578,-2.114 -0.828,-4.024 -0.879,-5.793 -0.367,0.082 -0.703,0.269 -1.09,0.269 -4.504,0 -9.121,-5.258 -10.761,-12.207 -0.973,-4.152 -0.551,-7.922 1.015,-10.402 -3.722,-2.051 -7.515,-6.207 -9.867,-10.219 -0.293,-0.5 -0.398,-0.922 -0.641,-1.398 -4.64,0.058 -9.292,0.136 -14.007,0.199 l 0.8,1.199 c 0,0 0,0 0.004,0 4.934,0 10.098,6.102 12.461,11.828 1.684,4.102 1.918,7.711 0.844,10.274 l 3.242,4.32 c 0.371,-0.07 0.707,-0.262 1.094,-0.262 4.504,0 9.125,5.262 10.762,12.199 1.058,4.512 0.543,8.641 -1.391,11.091 -0.512,0.64 -1.137,1.11 -1.812,1.48 l 1.757,7.02 c 4.391,0.37 8.383,5.45 9.391,12.26 0.66,4.44 -0.187,8.53 -2.246,10.92 -0.481,0.55 -1.055,0.92 -1.641,1.28 l 2.246,7.48 c 3.95,1.06 7.411,5.71 8.336,11.96 0.653,4.44 -0.187,8.53 -2.246,10.92 -0.152,0.18 -0.359,0.25 -0.519,0.4 l 3.05,7.6 c 4.161,0.76 7.879,5.6 8.84,12.1 0.66,4.46 -0.187,8.55 -2.246,10.93 -0.426,0.49 -0.949,0.8 -1.449,1.12 l 2.598,12.14 c 0.117,-0.01 0.215,-0.07 0.336,-0.07 4.589,0 8.843,5.34 9.886,12.4 0.66,4.45 -0.179,8.53 -2.246,10.93 -1.094,1.26 -2.539,1.92 -4.07,2.08 l 2.234,14.57 c 4.117,0.5 6.594,6.9 7.211,13.31 0.543,5.55 -0.332,10.17 -2.332,12.38 -0.082,0.11 -0.172,0.11 -0.258,0.18 l 2.168,17.34 c 4.059,0.59 6.496,6.94 7.118,13.3 0.511,5.29 -0.282,9.68 -2.09,12 l 2.394,25.15 c 0.078,-0.01 0.188,-0.06 0.262,-0.06 4.57,0 6.68,6.84 6.75,13.62 0.039,4.25 -0.813,9.71 -3.332,12.25 -0.203,0.2 -0.406,0.24 -0.609,0.41 l 2.195,17.59 c 4.265,0.38 6.301,6.71 6.363,12.66 0.051,4.9 -1.187,9.24 -3.226,11.29 -0.586,0.61 -1.188,0.96 -1.75,1.17 l 0.851,11.83 c 3.735,1.02 5.531,6.94 5.59,12.51 0.051,4.49 -1.016,8.42 -2.75,10.64 l 2.176,15.21 c 3.636,1.14 5.39,6.98 5.441,12.49 0.055,4.91 -1.18,9.24 -3.226,11.3 -0.137,0.14 -0.266,0.16 -0.411,0.29 l 1.997,14.96 c 2.71,2.01 4.023,7.02 4.078,11.78 0.054,4.91 -1.188,9.25 -3.223,11.31 -0.348,0.35 -0.684,0.48 -1.023,0.69 l 1.785,14.36 c 3.476,1.58 6.39,5.99 7.226,11.64 0.367,2.47 0.227,4.79 -0.281,6.81 0.723,1.04 1.258,2.24 1.828,3.42 z m 9.84,23.03 c 8.137,-1.75 13.395,-3.52 15.777,-5.15 -3.363,-2.44 -11.086,-4.92 -22.679,-7.32 0.066,0.73 0.234,1.52 0.234,2.18 0,3.11 -0.965,5.66 -2.457,7.8 3.18,0.87 6.227,1.7 9.125,2.49 z m 35.16,9.21 c 0.172,-0.03 0.817,0.01 1.438,0.04 1.757,0.08 4.148,0.2 4.871,-0.6 0.265,-0.29 1.515,-2.03 0.586,-8.51 -1.043,-7.35 -2.856,-11.15 -5.414,-13.14 -0.469,1.17 -1.039,2.27 -1.817,3.12 -1.461,1.63 -3.386,2.52 -5.426,2.52 -1.257,0 -2.48,-0.34 -3.617,-0.95 1.129,2.6 0.606,4.89 0.188,5.96 -1.043,2.59 -4.188,4.91 -8.867,6.97 10.179,2.73 16.691,4.39 18.058,4.59 z m -7.758,-24.37 c -0.718,0 -1.39,-0.17 -2,-0.46 1.133,2.06 2.649,3.39 3.996,3.39 0.661,0 1.266,-0.3 1.813,-0.92 0.375,-0.4 0.566,-1.09 0.82,-1.69 -1.414,-0.23 -2.937,-0.32 -4.629,-0.32 z m 0.45,-12.64 -1.551,0.26 c -0.293,0.16 -0.617,0.15 -0.875,0.44 -0.746,0.83 -1.172,2.14 -1.406,3.59 0.875,-0.84 2.066,-1.38 3.382,-1.38 1.27,0 2.539,0.06 3.782,0.16 -0.965,-1.7 -2.161,-2.78 -3.332,-3.07 z m -2.012,-26.76 c -0.262,-2.72 -0.902,-4.72 -1.539,-6.09 l -1.836,0.23 c -0.262,1.28 -0.418,3.07 -0.188,5.38 0.227,2.33 0.735,4.1 1.278,5.44 l 2.199,-0.36 c 0.18,-1.22 0.277,-2.69 0.086,-4.6 z m -4.258,-40.77 c -0.172,-1.78 -0.523,-3.16 -0.914,-4.37 l 0.043,0.63 -2.781,0.17 c -0.039,0.9 -0.028,1.93 0.09,3.09 0.261,2.71 0.902,4.72 1.535,6.08 l 1.836,-0.22 c 0.261,-1.28 0.422,-3.06 0.191,-5.38 z m -4.258,-39.55 c -0.269,-2.71 -0.902,-4.72 -1.543,-6.09 l -1.82,0.11 c -0.273,1.28 -0.434,3.11 -0.207,5.5 0.359,3.65 1.387,6.06 2.187,7.26 l 0.797,-0.05 c 0.453,-1.17 0.914,-3.37 0.586,-6.73 z m -5.98,-51.94 0.219,1.81 -4.793,0.6 c -0.465,1.34 -0.743,2.89 -0.559,4.62 0.461,4.42 2.871,7.46 4.992,7.95 l 1.059,-0.07 c 0.453,-0.12 0.914,-0.21 1.304,-0.65 1.254,-1.39 1.86,-3.97 1.571,-6.73 -0.375,-3.57 -2.051,-6.36 -3.793,-7.53 z m -7.184,-41.87 -4.652,0.34 c -0.938,1.46 -1.461,3.57 -1.207,5.97 0.504,4.79 3.324,8.14 5.547,8.14 0.656,0 1.265,-0.3 1.808,-0.92 1.254,-1.38 1.86,-3.97 1.571,-6.73 -0.329,-3.05 -1.618,-5.42 -3.067,-6.8 z m -6.637,-40.64 0.047,0.31 -2.574,0.36 c -1.25,1.4 -1.855,3.97 -1.562,6.73 0.464,4.45 2.91,7.52 5.035,7.95 l 1,-0.06 c 0.457,-0.11 0.922,-0.22 1.324,-0.67 1.254,-1.38 1.855,-3.97 1.566,-6.73 -0.453,-4.3 -2.765,-7.3 -4.836,-7.89 z m -3.046,-33.28 c -0.887,-4.62 -3.766,-7.81 -6.028,-8.2 l -1.679,0.39 c -0.118,0.1 -0.223,0.13 -0.34,0.26 -0.867,1.06 -1.571,3.35 -0.938,6.64 0.946,4.92 4.172,8.35 6.481,8.35 0.386,0 0.972,-0.08 1.562,-0.79 0.871,-1.05 1.574,-3.36 0.942,-6.65 z m -7.911,-38.93 c -0.82,-4.25 -3.312,-7.24 -5.468,-8.02 l 0.019,0.12 -2.656,0.48 c -0.832,1.1 -1.492,3.3 -0.875,6.5 0.785,4.12 3.16,7.07 5.269,7.96 l 1.895,-0.44 0.137,0.6 c 0.242,-0.11 0.484,-0.26 0.738,-0.56 0.871,-1.06 1.574,-3.35 0.941,-6.64 z m -9.734,-42.6 c -0.746,-3.88 -2.902,-6.75 -4.914,-7.83 l 0.094,0.64 -3.59,0.52 c -0.637,1.21 -1.098,3.05 -0.574,5.76 0.621,3.25 2.25,5.73 3.945,7.12 l 3.848,-0.72 0.222,1.17 c 0.012,-0.01 0.016,-0.01 0.028,-0.01 0.867,-1.06 1.57,-3.36 0.941,-6.65 z m -8.664,-38.05 c -0.727,-3.77 -2.785,-6.63 -4.754,-7.77 l -3.219,1.87 -0.437,-0.76 c -0.641,1.22 -1.094,3.05 -0.578,5.75 0.687,3.58 2.59,6.33 4.453,7.59 l -0.09,-0.68 4.203,-0.61 c 0.535,-1.24 0.891,-2.93 0.422,-5.39 z m -15.066,-36.18 c -0.844,-4.4 -3.497,-7.46 -5.704,-8.1 l -2.562,1.07 c -0.734,1.18 -1.285,3.17 -0.719,6.11 0.817,4.26 3.321,7.25 5.477,8.03 l 2.027,-1.19 0.453,0.78 c 0.031,-0.03 0.055,-0.03 0.086,-0.06 0.867,-1.05 1.57,-3.35 0.942,-6.64 z m -17.239,-35.108 c -0.468,-1.704 -1.043,-3.063 -1.625,-4.262 l -2.457,1.238 c 0.114,0.563 0.188,1.094 0.364,1.731 1.023,3.73 2.507,6.171 3.609,7.453 l 0.832,-0.352 c 0.094,-1.262 0.008,-3.16 -0.723,-5.808 z m -16.55,-24.282 c -0.329,1.289 -0.387,3.149 0.152,5.43 1.211,5.16 4.375,8.449 6.019,8.449 0.161,0 0.368,-0.09 0.602,-0.34 z m -8.594,-15.57 c 2.261,3.488 5.019,6.059 7.094,7.289 l 2.003,-0.988 c -0.261,-1.16 -0.836,-2.781 -2.031,-4.801 -0.351,-0.59 -0.762,-1.059 -1.144,-1.609 -1.969,0.039 -3.942,0.07 -5.922,0.109 z m -9.383,-7.102 c 0.598,-0.007 1.18,-0.019 1.773,-0.027 0.008,-0.133 -0.062,-0.281 -0.058,-0.41 -0.52,0.23 -1.086,0.391 -1.715,0.437 z m 60.656,-1.25 -0.277,-16.187 c -6.231,-0.172 -12.66,-0.32 -19.219,-0.461 l 0.125,2.68 c 0.094,2.031 -1.465,3.73 -3.48,3.82 -2.012,0.09 -3.719,-1.461 -3.813,-3.48 l -0.148,-3.192 c -12.153,-0.25 -24.989,-0.469 -38.164,-0.656 1.511,1.457 2.929,2.996 4.113,4.527 1.598,2.102 3.769,5.473 4.262,8.551 l 1.015,0.621 c 0.473,-0.152 0.91,-0.359 1.446,-0.359 2.886,0 6.234,2.187 9.164,5.129 15.808,-0.282 30.832,-0.61 44.976,-0.993 z m 2.211,-160 2.356,3.352 0.355,20.262 c 34.57,1.527 65.645,3.679 90.109,6.527 l -2.273,-41.398 -16.953,-2.539 c -10.59,1.578 -23.367,3.128 -39.051,4.617 -14.992,1.441 -31.426,2.679 -48.844,3.742 z m 3.414,64.012 c 38.41,-1.57 68.637,-3.68 90.926,-6.051 l -1.121,-20.55 c -22.949,-2.61 -53.438,-4.879 -90.387,-6.52 z m 1.274,72.719 c 18.289,0.519 35.539,1.121 51.367,1.793 17.137,0.738 31.199,1.5 42.824,2.258 l -4.137,-75.52 c -25.336,2.801 -57.382,4.762 -91.199,6.129 z m 0.406,23.07 c 38.859,-1.09 70.863,-2.519 94.601,-4.109 L 637.855,929 c -23.742,-1.59 -55.707,-3 -94.46,-4.102 z m 95.09,-128.758 c 16.215,2.09 28.996,4.547 37.293,7.34 l -3.141,-57.301 -18.523,-5.179 c -4.02,2.039 -10.485,4.258 -20.836,6.488 l 2.699,2.981 z m 1.429,26.11 c 18.661,-2.223 30.743,-4.629 36.508,-7.051 l -0.234,-4.219 c -6.098,-2.66 -18.777,-5.25 -37.309,-7.582 z m 4.606,84.129 c 19.027,1.39 30.379,2.808 37.133,4.25 l -4.84,-88.231 c -8.047,2.801 -20.633,5.16 -36.504,7.11 z m 0.766,13.898 c 14.246,-1.039 24.941,-2.137 31.757,-3.277 -6.871,-1.129 -17.687,-2.242 -32.121,-3.301 z m -63.262,-207.058 71.078,19.898 c 0.051,-0.039 0.09,-0.098 0.133,-0.156 -3.262,-4.223 -26.914,-12.383 -71.211,-19.742 z m -74.492,0.378 0.687,14.821 103.555,15.48 c 13.531,-1.988 23.906,-4.058 30.953,-6.109 L 554.25,728.762 Z m -0.446,-9.57 0.102,2.274 20.418,-0.282 c -6.594,-0.699 -13.41,-1.351 -20.52,-1.992 z M 509.648,769 c 29.497,-1.609 54.825,-3.648 75.657,-5.91 l -76.461,-11.442 z m 24.332,35.199 -0.308,-17.34 -23.609,-9.019 1.183,25.519 c 7.715,0.243 15.289,0.532 22.734,0.84 z m -20.41,49.09 2.965,63.66 c 6.629,0.16 13.031,0.321 19.426,0.492 l -1.137,-64.871 c -7.047,0.25 -14.136,0.508 -21.254,0.719 z m 21.129,-8.07 -0.594,-33.75 c -7.265,-0.321 -14.792,-0.59 -22.519,-0.828 l 1.641,35.32 c 7.414,-0.231 14.562,-0.481 21.472,-0.742 z m -132.285,9.992 -0.07,31.437 c 23.48,3.243 42.117,9.602 44.277,18.793 2.199,1.539 4.352,3.168 6.227,4.84 2.39,2.11 4.066,3.969 5.363,5.668 17.543,0.223 34.598,0.52 51.004,0.86 L 506.27,853.5 c -36.735,1.051 -73.364,1.512 -103.856,1.711 z M 504.27,810.398 c -30.665,-0.929 -64.743,-1.457 -101.75,-1.48 l -0.086,38.98 c 38.652,-0.218 73.109,-0.839 103.5,-1.718 z m -1.575,-33.738 c -31.031,1.551 -64.859,2.539 -100.105,2.93 l -0.051,22.039 c 34.277,0.051 68.781,0.543 101.391,1.519 z m -1.211,-26.109 -69.976,-10.461 70.738,26.969 z m -0.98,-21.063 -82.77,1.16 83.399,12.481 z m -0.367,-7.84 -12.574,0.711 12.605,-0.16 z m -97.852,48.18 0.317,1.524 v 0.968 c 31.679,-0.359 60.679,-1.172 86.836,-2.34 l -91.665,-34.929 -0.039,-0.012 v 24.691 z m -0.027,152.934 v 0.136 c 0.312,-0.046 0.637,-0.089 0.945,-0.128 -0.32,-0.008 -0.625,-0.008 -0.945,-0.008 z m 17.84,-7.172 c -3.321,-3.5 -6.387,-7.699 -5.192,-10.66 0.274,-0.668 1.188,-2.239 3.711,-2.239 4.422,0 12.43,5.438 17.938,10.68 0.125,-0.082 0.234,-0.16 0.355,-0.223 -5.508,-5.058 -7.91,-8.968 -6.926,-11.57 0.496,-1.297 1.735,-2.039 3.293,-2.156 -6.75,-3.082 -17.339,-5.922 -30.949,-7.883 l -0.051,23.93 c 6.004,0.031 11.899,0.082 17.821,0.121 z m 1.617,21.629 c -0.524,-1.239 -1.231,-2.328 -2.016,-3.219 l -0.422,1.141 c -0.164,0.078 -1.863,0.078 -1.863,0.078 v -2.949 c -0.164,-0.09 -0.309,-0.301 -0.476,-0.36 -0.594,-0.23 -1.075,-0.109 -1.567,-0.031 -0.262,0.769 -0.125,1.461 -0.004,1.672 -0.148,-0.242 -0.586,-0.731 -1.094,-1.25 -1.593,1.308 -2.226,4.89 -0.55,8.828 0.261,0.633 0.683,1.101 1.027,1.652 2.633,-0.019 5.281,-0.031 7.879,-0.043 0.156,-1.609 -0.059,-3.519 -0.914,-5.519 z m 10.066,-21.559 c -4.551,-4.031 -8.957,-6.742 -11.535,-7.64 0.731,1.23 2.094,3.082 4.77,5.671 0.742,0.719 1.488,1.321 2.234,1.95 1.504,0.007 3.016,0.019 4.508,0.031 0.012,-0.012 0.019,-0.012 0.023,-0.012 z m 10.078,-7.551 c -2.414,-1.55 -4.554,-2.73 -6.121,-3.32 0.895,1.25 2.422,2.992 5.024,5.332 0.59,-0.691 0.914,-1.359 1.097,-2.012 z m -15.664,27.2 c 1.071,2.519 1.496,5.07 1.348,7.382 6.512,-0.05 12.918,-0.113 19.23,-0.179 -0.664,-0.903 -1.289,-1.813 -1.82,-2.703 -2.402,-4.098 -3.238,-7.707 -2.574,-10.321 l -0.957,-1.527 c -0.422,0.141 -0.902,0.238 -1.484,0.238 -2.813,0 -7.086,-2.301 -11.243,-5.258 -0.941,-0.011 -1.925,-0.019 -2.871,-0.019 -3.469,1.047 -7.176,2.019 -11.242,2.848 0.379,0.359 0.77,0.73 1.102,1.039 0.976,0 1.988,0.16 3,0.55 3.097,1.2 5.906,4.172 7.511,7.95 z m 4.532,35.222 0.105,0.418 c 0.285,-0.148 0.609,-0.14 0.867,-0.429 1.227,-1.391 1.778,-3.969 1.438,-6.711 -0.524,-4.258 -2.832,-7.239 -4.914,-7.911 l 0.597,1.582 -4.386,1.649 c -0.297,1.211 -0.414,2.601 -0.235,4.082 0.492,4.039 2.602,6.918 4.59,7.809 z m 15.371,117.419 h 4.781 v 1.37 c 0.09,-0.09 0.207,-0.05 0.289,-0.15 1.23,-1.39 1.777,-3.96 1.441,-6.71 -0.461,-3.76 -2.32,-6.57 -4.179,-7.65 l -3.473,0.69 c -1.074,1.43 -1.602,3.79 -1.285,6.37 0.312,2.53 1.273,4.63 2.426,6.08 z m 10.25,71.03 0.023,0.34 c 0.152,-0.12 0.332,-0.08 0.484,-0.24 1.321,-1.41 2.016,-4.01 1.821,-6.77 -0.188,-2.74 -1.176,-4.9 -2.371,-6.31 l -4.789,0.73 -0.164,-1.06 c -1.118,1.48 -1.762,3.75 -1.582,6.29 0.234,3.39 1.671,5.99 3.257,7.23 z m -1.207,40.13 3.375,0.26 c 0.121,-0.09 0.254,-0.05 0.367,-0.18 1.426,-1.44 2.273,-4.07 2.226,-6.86 -0.058,-3.5 -1.441,-6.22 -3.023,-7.34 l 0.09,1.37 -4.449,0.29 c -0.918,1.51 -1.555,3.42 -1.52,5.61 0.059,3.41 1.383,6.04 2.91,7.21 z m 10.226,69.29 c -0.058,-3.55 -1.465,-6.25 -3.062,-7.37 l -3.66,0.52 c -1.387,1.47 -2.223,4.03 -2.176,6.77 0.074,4.34 2.164,7.34 4.168,7.76 l 1.367,-0.27 c 0.379,-0.17 0.781,-0.19 1.141,-0.56 1.421,-1.44 2.269,-4.07 2.222,-6.85 z m 0.414,49.55 h 1.379 c 0.492,-0.15 0.996,-0.25 1.457,-0.71 1.422,-1.45 2.278,-4.08 2.227,-6.86 -0.059,-3.46 -1.399,-6.11 -2.953,-7.27 l -3.578,0.71 -0.079,-0.4 c -0.019,0.02 -0.043,0.01 -0.062,0.03 -1.422,1.44 -2.277,4.07 -2.227,6.85 0.071,4.11 1.942,6.98 3.836,7.65 z m 1.332,76.53 3.836,0.35 -0.144,1.56 c 1.843,-0.78 3.621,-3.61 3.691,-7.59 0.051,-2.78 -0.801,-5.41 -2.219,-6.86 -0.422,-0.43 -0.871,-0.49 -1.32,-0.64 v 2.36 h -4.031 c -0.742,1.36 -1.289,3.11 -1.328,5.22 -0.039,2.19 0.597,4.11 1.515,5.6 z m 9.16,48.31 0.125,0.68 -4.793,0.87 -0.277,-1.53 c -1.113,1.36 -1.976,3.47 -2.055,6.15 2.954,0.18 5.899,0.38 8.805,0.58 0.004,-0.18 0.063,-0.32 0.067,-0.51 0.05,-2.49 -0.711,-4.74 -1.872,-6.24 z M 447.934,934.922 c 0.32,0.738 0.695,1.519 1.218,2.406 1.172,2 2.543,3.711 3.899,5.113 1.258,-0.011 2.539,-0.019 3.785,-0.043 l 1.008,-0.668 c -0.285,-0.609 -0.559,-1.218 -0.977,-1.921 -2.199,-3.75 -5.035,-6.469 -7.254,-7.93 l 0.895,1.449 z m 3.707,-19.043 c -0.629,-0.629 -1.18,-1.207 -2.02,-1.949 -1.242,-1.121 -2.48,-2.039 -3.711,-2.981 -0.379,0.742 -0.84,1.461 -1.433,2.172 1.406,1.07 2.687,1.879 3.98,2.731 1.059,0.007 2.133,0.019 3.184,0.027 z m 21.48,17.223 c -0.422,-0.68 -0.859,-1.364 -1.488,-2.18 -2.695,-3.543 -5.68,-6.082 -8.098,-7.613 -0.926,-0.02 -1.812,-0.028 -2.742,-0.039 0.457,1.14 1.211,2.609 2.793,4.679 2.644,3.469 5.586,6 8.016,7.582 z m -13.398,-2.18 c -1.211,-1.582 -2.715,-3.91 -3.629,-6.262 -1.285,-0.16 -2.86,-0.742 -4.531,-1.5 -2.458,-0.019 -4.965,-0.039 -7.45,-0.07 l 1.848,2.969 c 0.332,-0.071 0.617,-0.258 0.977,-0.258 4.773,0 10.839,5.949 14.128,11.527 1.039,1.762 1.747,3.434 2.219,4.992 4.051,-0.05 8.086,-0.109 12.043,-0.172 -4.648,-0.128 -11.476,-5.828 -15.605,-11.226 z m 15.683,37.308 c -0.14,-1.05 -0.426,-2.281 -1.047,-3.789 -1.242,-3.031 -3.023,-5.339 -4.679,-6.871 l -3.18,2.121 -0.602,-0.89 c 0.153,1.051 0.43,2.277 1.051,3.777 1.508,3.684 3.813,6.34 5.703,7.723 z m 14.657,22 c -0.801,-3.378 -2.43,-5.839 -3.926,-7.23 l -3.133,2.359 -0.481,-0.64 c -0.117,1.191 -0.043,2.679 0.364,4.39 0.601,2.582 1.695,4.692 2.836,6.153 l 4.027,-1 0.41,1.668 c 0.387,-1.309 0.477,-3.262 -0.097,-5.7 z m 7.46,62.37 c 0.461,3.08 1.676,5.36 2.907,6.77 l 3.82,-1.54 0.18,0.45 c 0.34,-1.29 0.492,-2.97 0.199,-4.96 -0.551,-3.73 -2.203,-6.43 -3.66,-7.61 l -2.93,0.88 c -0.574,1.34 -0.894,3.44 -0.516,6.01 z m -6.726,-35.33 c -0.137,1.08 -0.168,2.3 0.039,3.69 0.477,3.25 1.797,5.61 3.09,6.97 l 3.09,-0.93 0.273,0.89 c 0.652,-1.3 1.051,-3.47 0.645,-6.21 -0.473,-3.23 -1.782,-5.59 -3.071,-6.95 l 0.364,1.43 z m 22.957,67.09 c -0.555,-3.77 -2.234,-6.52 -3.711,-7.67 l -2.961,1.19 c -0.516,1.33 -0.781,3.32 -0.426,5.74 0.426,2.91 1.528,5.1 2.684,6.53 l 4.152,-0.88 0.039,0.14 c 0.36,-1.3 0.528,-3.01 0.223,-5.05 z m 2.137,31.12 c -0.282,1.25 -0.383,2.82 -0.11,4.66 0.746,5.04 3.5,8.25 5.078,8.25 0.129,0 0.469,0 0.911,-0.51 0.906,-1.06 1.613,-3.64 1.113,-7.02 -0.641,-4.33 -2.727,-7.17 -4.313,-7.93 l 0.399,1.9 z m 10.089,46.02 c -0.394,-4.05 -1.476,-6.73 -2.316,-8.09 l -0.703,0.11 c -0.481,1.41 -0.891,3.97 -0.543,7.51 0.336,3.45 1.172,5.84 1.93,7.33 l 1.308,-0.17 c 0.364,-1.5 0.614,-3.72 0.324,-6.69 z m 6.696,43.21 c -0.348,-3.57 -1.219,-6 -2,-7.47 l -1.192,0.13 c -0.39,1.51 -0.675,3.78 -0.371,6.86 0.254,2.65 0.813,4.7 1.407,6.2 l 2.054,-0.2 c 0.215,-1.43 0.328,-3.27 0.102,-5.52 z m 4.566,43.76 c -0.465,1.52 -0.851,3.67 -0.82,6.47 0.043,4.25 0.992,7.01 1.695,8.22 l 0.379,-0.05 c 0.695,-1.24 1.508,-4.02 1.469,-8.12 -0.039,-4.06 -0.918,-6.82 -1.613,-8.09 l 0.14,1.45 z m 6.696,54.7 c 0.371,-1.3 0.667,-3.05 0.648,-5.28 -0.031,-2.49 -0.434,-4.42 -0.898,-5.76 l -1.958,0.24 c -0.394,1.33 -0.714,3.16 -0.687,5.48 0.023,2.32 0.379,4.13 0.809,5.47 z m -0.657,25.74 c -0.437,1.34 -0.801,3.25 -0.777,5.74 0.039,3.58 0.851,6.02 1.519,7.2 l 0.735,-0.11 c 0.613,-1.2 1.328,-3.57 1.293,-7.04 -0.024,-2.62 -0.469,-4.56 -0.965,-5.92 z m 7.637,44.13 c -0.027,-2.65 -0.477,-4.61 -0.98,-5.96 l -1.829,0.25 c -0.418,1.35 -0.761,3.25 -0.734,5.66 0.023,2.24 0.359,3.97 0.766,5.29 l 2.207,-0.29 c 0.332,-1.29 0.59,-2.89 0.57,-4.95 z m -0.414,32.79 c -0.402,1.34 -0.719,3.17 -0.695,5.49 0.027,2.2 0.351,3.91 0.742,5.22 l 2.242,-0.29 c 0.324,-1.27 0.582,-2.85 0.562,-4.88 -0.031,-2.51 -0.437,-4.45 -0.914,-5.79 z m -67.613,44.06 c 23.511,1.73 45.082,3.91 63.117,6.55 -0.367,-1.49 0,-2.95 0.879,-4.1 -0.207,-0.78 -0.504,-1.48 -0.633,-2.3 -0.652,-4.44 0.187,-8.54 2.254,-10.92 0.664,-0.77 1.465,-1.32 2.324,-1.69 l -1.785,-14.26 c -2.723,-2 -4.055,-7.01 -4.106,-11.8 -0.054,-4.9 1.184,-9.23 3.223,-11.3 0.356,-0.36 0.699,-0.49 1.051,-0.7 l -1.887,-14.09 c -3.211,-1.59 -4.765,-7.07 -4.824,-12.24 -0.047,-4.81 1.148,-9.04 3.117,-11.14 l -2.09,-14.61 c -3.941,-0.8 -5.832,-6.87 -5.894,-12.59 -0.047,-4.64 1.078,-8.7 2.926,-10.88 L 539.508,1309 c -2.203,-2.33 -3.293,-6.8 -3.336,-11.11 -0.043,-4.13 0.859,-7.75 2.348,-10.06 l -2.493,-19.95 c -2.984,-1.88 -4.422,-7.37 -4.472,-12.89 -0.032,-3.18 0.441,-7.04 1.738,-9.84 l -2.598,-27.29 c -3.648,-1.17 -5.847,-7.17 -6.425,-13.15 -0.465,-4.72 0.148,-8.66 1.554,-11.13 l -2.394,-19.14 c -3.301,-1.59 -5.305,-7.26 -5.856,-12.94 -0.461,-4.69 0.145,-8.62 1.531,-11.09 l -2.972,-19.33 c -2.5,-2.16 -4.508,-5.76 -5.164,-10.22 -0.637,-4.29 0.148,-8.18 2.051,-10.61 l -3,-13.99 c -3.887,-1.12 -7.27,-5.75 -8.184,-11.9 -0.652,-4.46 0.187,-8.55 2.25,-10.93 0.254,-0.3 0.598,-0.45 0.887,-0.68 l -2.868,-7.17 c -4.394,-0.37 -8.382,-5.45 -9.394,-12.26 -0.656,-4.45 0.184,-8.53 2.25,-10.93 0.375,-0.44 0.852,-0.69 1.289,-0.99 l -2.363,-7.89 c -3.754,-1.3 -6.981,-5.84 -7.871,-11.83 -0.653,-4.45 0.187,-8.53 2.25,-10.93 0.144,-0.15 0.339,-0.23 0.496,-0.39 l -2.145,-8.55 c -3.687,-1.41 -7.109,-5.798 -8.472,-11.58 -0.946,-4.031 -0.567,-7.679 0.882,-10.171 l -3.031,-4.047 c -0.371,0.078 -0.691,0.258 -1.094,0.258 -4.925,0 -10.097,-6.09 -12.457,-11.829 -1.933,-4.703 -2.07,-8.832 -0.371,-11.382 l -1.414,-2.118 c -0.512,0.161 -0.996,0.379 -1.582,0.379 -1.508,0 -3.148,-0.64 -4.789,-1.629 -9.312,0.118 -18.719,0.207 -28.289,0.278 l 0.379,1.011 c 0.344,-0.05 0.668,-0.23 1.019,-0.23 5.067,0 9.711,5.469 10.571,12.461 0.511,4.16 -0.473,8.098 -2.625,10.527 -0.926,1.051 -2.078,1.66 -3.297,2.063 l 0.59,2.39 c 0.09,-0.011 0.156,-0.05 0.238,-0.05 5.07,0 9.715,5.461 10.566,12.461 0.52,4.16 -0.468,8.089 -2.621,10.518 -0.781,0.89 -1.718,1.51 -2.718,1.94 v 5.46 c 4.144,1.31 7.656,5.94 8.382,11.89 0.52,4.16 -0.468,8.1 -2.621,10.53 -0.902,1.02 -2.027,1.64 -3.215,2.03 l 0.567,5.67 c 4.64,0.71 8.738,5.71 9.531,12.2 0.516,4.15 -0.473,8.09 -2.625,10.52 -0.449,0.52 -1.012,0.81 -1.543,1.17 l 1.43,7.17 c 4.594,0.76 8.644,5.71 9.43,12.17 0.515,4.16 -0.469,8.09 -2.622,10.52 -1.082,1.22 -2.468,1.88 -3.937,2.21 v 9.63 c 3.812,1.62 6.789,6.15 7.184,11.84 0.281,4.13 -0.879,8.02 -3.129,10.43 -0.43,0.46 -0.954,0.73 -1.442,1.06 l 1.895,12.32 c 4.265,1.19 7.722,5.93 8.148,12.08 0.289,4.13 -0.879,8.03 -3.125,10.43 -1.058,1.15 -2.34,1.76 -3.691,2.12 l 1.027,15.37 c 4.563,0.85 8.117,5.86 8.231,12.38 0.074,4.1 -1.286,7.96 -3.618,10.35 -0.832,0.84 -1.761,1.45 -2.746,1.85 l -1.054,13.69 c 3.554,1.79 6.105,6.31 6.203,11.83 0.066,4.1 -1.285,7.96 -3.617,10.35 -0.469,0.47 -1.016,0.74 -1.532,1.08 l 2.067,14.44 c 4.726,0.65 8.441,5.78 8.554,12.47 0.075,4.09 -1.285,7.96 -3.617,10.34 -0.637,0.65 -1.351,1.08 -2.082,1.47 l 3.594,17.97 c 4.246,1.21 7.476,5.99 7.586,12.2 0.066,4.11 -1.285,7.96 -3.621,10.35 -0.891,0.9 -1.903,1.5 -2.961,1.9 v 16.26 c 4.347,1.1 7.687,5.95 7.797,12.27 0.074,4.09 -1.285,7.94 -3.617,10.34 -0.719,0.73 -1.524,1.25 -2.356,1.66 v 13.15 c 1.75,0.19 3.41,0.89 4.797,2.3 2.328,2.38 3.68,6.25 3.605,10.35 -0.121,6.89 -4.05,12.23 -9.011,12.58 l -0.563,6.16 c 4.242,1.21 7.539,5.99 7.754,12.17 0.141,4.1 -1.152,7.97 -3.457,10.37 -0.027,0.03 -0.066,0.04 -0.098,0.06 l 1.157,6.36 c 1.543,0.29 3.019,0.93 4.257,2.19 2.336,2.37 3.688,6.24 3.614,10.34 -0.004,0.29 -0.106,0.52 -0.121,0.78 z m -10.664,-26.41 c 0.293,-1.1 0.488,-2.27 0.445,-3.53 -0.129,-3.64 -1.652,-6.37 -3.332,-7.44 l -0.219,2.4 -4.129,-0.37 c -0.762,1.46 -1.289,3.21 -1.222,5.25 0.16,4.7 2.66,7.96 4.804,7.96 h 0.016 l -0.637,-3.49 z m -2.602,-65.37 c 0.066,-0.06 0.145,-0.04 0.211,-0.11 1.426,-1.45 2.273,-4.06 2.227,-6.85 -0.059,-3.43 -1.387,-6.08 -2.93,-7.24 v 1.42 h -4.375 c -0.969,1.5 -1.633,3.48 -1.594,5.75 0.055,3.42 1.387,6.06 2.926,7.24 v -0.21 z M 458.473,1235.5 c 0.855,-1.49 1.461,-3.33 1.422,-5.44 -0.055,-3.19 -1.231,-5.64 -2.637,-6.92 l -3.512,-0.27 c -0.172,0.13 -0.363,0.09 -0.527,0.26 -1.422,1.44 -2.278,4.07 -2.227,6.85 0.063,3.58 1.504,6.3 3.129,7.39 l -0.176,-1.23 z m -6.692,-113.1 c 0.989,-1.49 1.59,-3.6 1.422,-5.99 -0.199,-2.91 -1.308,-5.16 -2.613,-6.56 h -4.578 v -0.35 c -1.227,1.47 -1.899,3.91 -1.723,6.57 0.262,3.69 1.918,6.45 3.664,7.52 l -0.086,-0.59 z m -6.531,-65.94 c 0.566,-1.41 0.902,-3.09 0.664,-5.03 -0.461,-3.75 -2.328,-6.59 -4.184,-7.66 l 0.012,0.12 -3.371,0.34 c -1.18,1.4 -1.726,3.9 -1.394,6.61 0.429,3.47 2.062,6.13 3.769,7.38 l -0.164,-0.84 z m -5.332,-30.82 0.211,2.12 c 0.023,-0.03 0.059,-0.01 0.086,-0.05 1.226,-1.38 1.777,-3.96 1.441,-6.7 -0.41,-3.33 -1.926,-5.86 -3.554,-7.18 v 1.1 h -4.508 c -0.723,1.45 -1.141,3.31 -0.875,5.48 0.308,2.5 1.246,4.58 2.383,6.05 l -0.032,-0.34 z m -2.184,-28.968 c 0.727,-1.442 1.149,-3.32 0.879,-5.481 -0.504,-4.101 -2.664,-7.011 -4.675,-7.832 l 0.441,1.782 -4.328,1.07 c -0.379,1.301 -0.574,2.769 -0.371,4.391 0.41,3.316 1.922,5.859 3.554,7.168 v -1.098 z m -26.898,-67.684 c -0.738,-0.687 -1.496,-1.379 -2.301,-2.097 -2.019,0.339 -4.176,0.609 -6.289,0.898 l -0.027,15.063 c 2.347,-0.012 4.629,-0.032 6.957,-0.043 -2.227,-5.45 -1.391,-10.899 1.66,-13.821 z M 397.734,714.41 v 5.84 l 63.59,-3.691 c -19.664,-1.047 -40.89,-1.789 -63.59,-2.149 z m -7.3,19.539 -4.61,-0.687 4.61,10.25 z m 0,-19.179 -4.297,6.14 4.297,-0.25 z M 76.9727,752.961 c -1.4141,-1.742 -1.4258,-3.223 -1.4258,-4.34 0,-11.062 36.3791,-21.141 88.4691,-28.621 l 0.07,-2.332 3.848,-3.527 29.855,1.621 c 38.785,-4.274 82.738,-7.223 125.633,-8.352 2.848,-0.07 5.723,-0.058 8.582,-0.101 l 0.019,-1.731 6.395,-2.359 3.461,3.961 c 0.641,-0.02 1.269,-0.02 1.91,-0.032 v -48.179 h 40.156 v 47.941 c 1.028,0.012 2.028,0.031 3.047,0.039 l 4.102,-5.859 6.64,2.09 v 3.922 c 150.508,2.519 263.375,23.41 263.375,41.519 0,0.66 -0.035,1.469 -0.336,2.379 l 16.629,4.66 2.661,3.309 3.492,63.66 c 0.715,0.48 1.347,0.949 1.836,1.422 1.855,1.847 2.242,3.699 2.242,4.937 0,1.231 -0.383,3.063 -2.199,4.883 -0.305,0.309 -0.805,0.598 -1.215,0.918 l 5.152,93.992 c 2.496,1.348 2.516,2.699 2.516,4.02 0,1.258 -0.008,2.527 -2.086,3.789 v 0.051 c 0.105,2.019 -1.43,3.73 -3.449,3.847 -1.301,0.071 -2.43,-0.597 -3.133,-1.59 -6.442,1.5 -17.66,3 -37.262,4.454 l 0.035,0.597 c 0.106,2.012 -1.437,3.731 -3.449,3.832 -2.012,0.11 -3.73,-1.429 -3.848,-3.429 l -0.023,-0.493 c -11.852,0.789 -26.313,1.571 -44.039,2.332 -15.766,0.688 -32.942,1.27 -51.145,1.789 -0.543,1.29 -1.808,2.231 -3.3,2.25 -1.477,0.02 -2.743,-0.832 -3.336,-2.082 -12.852,0.34 -26.348,0.633 -40.114,0.891 2.266,4.141 2.961,7.781 1.977,10.25 3.113,1.91 5.859,5.961 7.043,10.961 0.457,1.98 0.566,3.852 0.445,5.559 3.883,0.632 7.215,6.48 8.731,12 1.171,4.281 1.191,7.961 0.207,10.371 l 5.382,12.91 c 0.172,-0.01 0.309,-0.09 0.473,-0.09 4.992,0 9.938,5.4 11.262,12.29 0.808,4.21 0.07,8.19 -1.969,10.66 -0.406,0.47 -0.93,0.76 -1.41,1.12 l 7.078,12.13 c 0.035,0 0.07,-0.02 0.109,-0.02 4.985,0 9.934,5.41 11.258,12.3 0.813,4.19 0.074,8.18 -1.972,10.65 -0.508,0.61 -1.149,1.02 -1.782,1.41 l 1.981,13.9 c 4.695,0.57 9.187,5.58 10.437,12.09 0.809,4.2 0.071,8.17 -1.968,10.64 -0.782,0.96 -1.77,1.59 -2.829,2.01 l 3.313,17.65 c 4.969,0.01 9.894,5.4 11.219,12.29 0.812,4.21 0.074,8.18 -1.969,10.65 -0.922,1.13 -2.121,1.75 -3.41,2.14 l 3.269,14.16 c 4.535,0.81 8.805,5.68 10.02,11.99 0.812,4.2 0.074,8.18 -1.965,10.65 -0.793,0.96 -1.781,1.58 -2.844,2.01 l 2.344,16.42 c 0.008,0 0.016,0 0.016,0 5.089,0 9.656,5.49 10.39,12.51 0.434,4.15 -0.613,8.06 -2.801,10.48 -0.48,0.55 -1.082,0.88 -1.652,1.25 l 1.125,15.89 c 4.133,1.32 7.57,5.96 8.195,11.93 0.434,4.15 -0.609,8.06 -2.796,10.48 -0.282,0.32 -0.657,0.47 -0.973,0.74 l 2.391,19.15 c 4.621,0.75 8.609,5.73 9.289,12.22 0.433,4.14 -0.61,8.07 -2.797,10.49 -0.5,0.55 -1.114,0.9 -1.711,1.28 l 1.222,20.77 c 3.102,1.73 4.989,6.94 5.477,11.89 0.492,5.03 -0.367,9.31 -2.309,11.45 -0.218,0.25 -0.445,0.31 -0.675,0.47 l 0.957,15.36 c 3.589,1.18 5.757,6.89 6.285,12.27 0.492,5.03 -0.367,9.31 -2.305,11.45 -0.273,0.3 -0.543,0.37 -0.816,0.58 l 2.125,16.98 c 2.968,1.85 4.785,6.92 5.254,11.76 0.492,5.03 -0.368,9.31 -2.305,11.45 -0.336,0.37 -0.684,0.51 -1.031,0.73 l 1.75,10.48 c 3.465,0.92 6.363,4.22 7.715,8.75 7.007,2.14 12.8,7.82 14.882,22.39 1.09,7.63 0.102,13.01 -3.023,16.44 -3.809,4.18 -9.266,3.92 -12.527,3.77 -0.54,-0.03 -1.043,-0.05 -1.438,-0.05 -1.394,0 -14.824,-3.48 -35.246,-8.99 -11.691,2.53 -26.32,4.51 -42.231,6.05 15.618,6.28 26.321,9.8 29.344,9.19 8.348,-2.78 10.024,-6.26 9.731,-7.71 l 0.054,0.19 c -0.636,-1.92 0.395,-3.98 2.305,-4.63 1.918,-0.62 3.984,0.4 4.621,2.32 0.184,0.54 0.992,3.44 -0.808,7.05 -2.059,4.11 -6.664,7.39 -13.672,9.73 -4.887,1.63 -23.317,-4.75 -47.325,-14.78 -11.675,0.89 -23.683,1.6 -35.425,2.13 0.246,3.99 -0.039,9.7 -3.082,13.28 -1.758,2.07 -4.239,3.21 -6.996,3.21 -2.625,0 -10.446,-5.13 -23.336,-15.29 -0.793,0.02 -1.575,0.04 -2.364,0.06 8.809,14.68 13.977,31.79 13.977,50.12 0,53.93 -43.871,97.8 -97.805,97.8 -53.929,0 -97.801,-43.87 -97.801,-97.8 0,-19.51 5.801,-37.65 15.68,-52.93 -5.711,-0.34 -11.34,-0.7 -16.867,-1.09 -11.481,6.45 -19.227,10.03 -23,10.58 -8.629,1.23 -12.309,-2.97 -13.727,-5.58 -1.355,-2.49 -1.754,-5.5 -1.679,-8.35 -16.852,-1.76 -31.903,-3.82 -44.367,-6.16 -16.454,4.86 -28.016,7.95 -30.801,7.95 -5.36,0 -8.465,-2.33 -10.117,-4.28 -3.497,-4.13 -3.618,-9.87 -3.407,-12.79 -9.019,1.55 -15.461,2.46 -18.117,2.46 -13.133,0 -17.9374,-6.86 -19.6366,-10.96 -2.4571,-5.93 -1.4024,-13.3 2.4531,-17.17 4.1325,-4.12 13.4495,-9.38 21.2385,-8.11 0.539,0.09 1.019,0.29 1.527,0.43 1.098,-1.85 2.41,-3.35 3.961,-4.18 l -1.035,-11.36 c -0.676,-0.35 -1.336,-0.77 -1.918,-1.37 -2.289,-2.33 -3.602,-6.32 -3.52,-10.7 0.106,-5.39 2.18,-9.79 5.196,-11.68 l 0.644,-19.58 c -0.781,-0.37 -1.492,-0.9 -2.133,-1.61 -2.132,-2.37 -3.125,-6.42 -2.656,-10.85 0.758,-7.11 4.828,-12.5 9.477,-12.5 0.234,0 0.445,0.12 0.679,0.15 l 2.465,-18.48 c -1.136,-0.31 -2.211,-0.85 -3.093,-1.82 -2.129,-2.37 -3.122,-6.43 -2.653,-10.85 0.606,-5.7 3.363,-10.15 6.813,-11.74 l 2.367,-17.78 c -0.801,-0.38 -1.531,-0.92 -2.152,-1.65 -2.051,-2.41 -2.852,-6.49 -2.145,-10.94 1.066,-6.72 5.023,-11.71 9.352,-12.2 l 2.519,-17.63 c -0.547,-0.35 -1.098,-0.7 -1.543,-1.23 -1.992,-2.43 -2.66,-6.53 -1.797,-11 1.18,-6.1 4.727,-10.67 8.614,-11.82 l 3.242,-17.3 c -1.137,-0.32 -2.192,-0.88 -2.965,-1.91 -1.859,-2.46 -2.211,-6.62 -0.934,-11.16 1.5,-5.33 5.344,-10.9 9.832,-11.88 l 3.274,-17.48 c -1.426,-0.21 -2.735,-0.84 -3.653,-2.06 -1.859,-2.47 -2.211,-6.64 -0.929,-11.18 1.625,-5.78 6.008,-11.88 10.988,-12.07 l 4.531,-13.6 c -0.984,-0.36 -1.898,-0.91 -2.586,-1.82 -1.859,-2.46 -2.207,-6.62 -0.933,-11.16 1.457,-5.17 5.121,-10.61 9.437,-11.83 l 5.801,-16.24 c -0.984,-0.36 -1.895,-0.91 -2.578,-1.81 -1.859,-2.47 -2.211,-6.63 -0.93,-11.17 1.492,-5.33 5.332,-10.9 9.813,-11.89 L 196,1059.21 c -0.687,-0.39 -1.316,-0.88 -1.824,-1.54 -1.86,-2.46 -2.207,-6.63 -0.934,-11.17 1.602,-5.69 5.883,-11.69 10.774,-12.04 l 5.257,-14.72 c -0.562,-0.36 -1.117,-0.74 -1.546,-1.3 -1.856,-2.46 -2.207,-6.63 -0.93,-11.17 1.644,-5.87 6.133,-12.09 11.203,-12.09 0.668,0 1.277,0.211 1.883,0.429 l 8.398,-15.199 c -0.371,-0.301 -0.785,-0.531 -1.082,-0.922 -1.863,-2.457 -2.207,-6.617 -0.933,-11.168 1.648,-5.859 6.136,-12.09 11.207,-12.09 1.769,0 3.359,0.801 4.461,2.258 1.859,2.461 2.207,6.621 0.933,11.153 -1.476,5.257 -5.234,10.781 -9.64,11.879 l -9.809,17.761 c 0.172,0.438 0.277,0.949 0.387,1.439 0.015,-0.06 0.015,-0.09 0.031,-0.14 1.629,-5.81 6.051,-11.971 11.066,-12.08 l 6.215,-7.988 c -0.383,-2.434 0.164,-5.492 1.707,-8.883 2.598,-5.699 7.996,-11.75 12.879,-11.75 0.277,0 0.5,0.141 0.758,0.18 l 3.953,-9.481 c -0.098,-0.129 -0.262,-0.187 -0.351,-0.328 -0.137,-0.238 -0.098,-0.602 -0.2,-0.852 -2.691,-0.046 -5.508,-0.07 -8.168,-0.117 -0.152,2.02 -1.91,3.52 -3.918,3.367 -1.859,-0.148 -3.23,-1.668 -3.308,-3.488 -37.969,-0.68 -72.867,-1.68 -102.852,-2.969 -1.195,-0.062 -2.308,-0.101 -3.476,-0.152 l -3.063,4.59 -6.683,-2.18 0.117,-2.859 c -29.6409,-1.418 -48.8636,-2.879 -61.2893,-4.391 l -10.6954,3.582 -4.7734,-3.961 0.2891,-2.16 c -7.6524,-1.949 -7.6758,-3.898 -7.6758,-5.859 0,-2.063 0.0273,-4.16 9.2969,-6.231 L 65.332,839.672 C 47.8945,835.73 47.3633,832 47.0273,829.461 c -0.3359,-2.52 -0.4414,-6.242 2.5079,-9.641 2.7851,-3.211 8.1445,-5.84 19.5429,-8.019 l 7.8946,-58.84" transform="matrix(0.03527778,0,0,-0.03527778,0,83.34516)" />
   </g>
</svg>