<?xml version="1.0" encoding="UTF-8" standalone="no"?>
<svg width="100%" height="100%" viewBox="0 0 82.743484 74.289581" fill="currentColor">
   <g transform="translate(-61.954422,-81.450446)" style="display:inline">
      <path d="m 83.445443,154.32874 c -1.001818,-0.50121 -2.195316,-1.30488 -2.65222,-1.78594 -0.929333,-0.97845 -17.41677,-29.39726 -17.987418,-31.00427 -0.468511,-1.31936 -0.468511,-4.56722 0,-5.88659 0.570648,-1.607 17.058085,-30.025809 17.987418,-31.004268 0.456904,-0.481058 1.650402,-1.28473 2.65222,-1.785938 l 1.821485,-0.911288 h 18.052862 18.05286 l 1.82149,0.911288 c 1.00181,0.501208 2.19531,1.30488 2.65222,1.785938 0.92933,0.978459 17.41677,29.397268 17.98741,31.004268 0.20028,0.564 0.36414,1.88848 0.36414,2.9433 0,1.05481 -0.16386,2.3793 -0.36414,2.94329 -0.57064,1.60701 -17.05808,30.02582 -17.98741,31.00427 -0.45691,0.48106 -1.65041,1.28473 -2.65222,1.78594 l -1.82149,0.91129 H 103.31979 85.266928 Z m 24.449567,-14.32007 c 3.99869,-0.81312 7.96943,-2.88275 11.08513,-5.77779 8.68748,-8.07221 10.00355,-21.01968 3.12294,-30.72357 -1.4209,-2.00392 -4.66505,-5.084596 -5.89607,-5.598948 -1.82359,-0.761945 -3.99248,0.323675 -4.58276,2.293868 -0.4708,1.57137 -0.11611,2.31846 2.14371,4.5154 3.9998,3.88851 5.6248,7.47732 5.6248,12.4224 0,2.27386 -0.12551,3.16609 -0.69147,4.91554 -3.76443,11.63633 -18.43965,15.23397 -27.011943,6.622 -3.306967,-3.32227 -4.754708,-6.8807 -4.74785,-11.66983 0.0035,-2.47289 0.112051,-3.22177 0.721794,-4.98153 0.988022,-2.8515 2.233895,-4.72055 4.735165,-7.10366 2.019697,-1.92429 2.138416,-2.10069 2.259087,-3.35652 0.220549,-2.29531 -1.262486,-3.875951 -3.555722,-3.789739 -1.295035,0.04869 -2.330847,0.766654 -4.767054,3.304269 -4.323514,4.50347 -6.424834,9.72544 -6.428748,15.97603 -0.004,6.3954 2.019568,11.53067 6.317801,16.03281 3.631022,3.80328 8.2887,6.31512 13.259511,7.15071 1.689759,0.28405 6.531809,0.15082 8.411679,-0.23144 z m -2.59085,-19.6689 c 0.36381,-0.26231 0.89959,-0.8812 1.19063,-1.37531 0.5066,-0.86008 0.52917,-1.37424 0.52917,-12.05773 0,-10.858198 -0.0147,-11.179048 -0.54552,-11.889898 -0.9777,-1.30936 -1.90312,-1.821594 -3.29094,-1.821594 -1.38769,0 -2.313,0.512103 -3.290945,1.821348 -0.526484,0.70484 -0.548272,1.101168 -0.624544,11.360734 -0.04346,5.84673 -0.0078,11.01992 0.0792,11.49597 0.204462,1.11851 1.543249,2.63618 2.606399,2.95467 1.07828,0.32301 2.51145,0.11394 3.34655,-0.48819 z" id="path4517" />
   </g>
</svg>