<svg width="183" height="120" viewBox="0 0 183 120" fill="none" xmlns="http://www.w3.org/2000/svg">
<g clip-path="url(#clip0)">
<path d="M0 16C0 7.16344 7.16344 0 16 0H167C175.837 0 183 7.16345 183 16V104C183 112.837 175.837 120 167 120H16C7.16344 120 0 112.837 0 104V16Z" fill="url(#paint0_linear)"/>
<g filter="url(#filter0_ii)">
<path fill-rule="evenodd" clip-rule="evenodd" d="M160.842 34.0926C167.47 34.5266 173.109 29.5106 173.438 22.8889C173.767 16.2673 168.66 10.5476 162.033 10.1136C155.405 9.67954 149.766 14.6956 149.437 21.3173C149.108 27.9389 154.214 33.6586 160.842 34.0926Z" fill="url(#paint1_linear)"/>
</g>
<g filter="url(#filter1_d)">
<path d="M164.054 26.7689C162.518 27.5452 160.461 27.5006 158.44 26.4684C156.804 25.6379 155.479 24.2849 154.662 22.7847C155.071 23.1731 155.554 23.4943 156.075 23.7814C158.158 24.9342 160.293 25.0044 161.84 24.1615C161.839 24.1605 161.839 24.1598 161.838 24.1588C159.786 22.3605 158.079 20.0783 156.815 18.2233C156.545 17.9162 156.35 17.5416 156.152 17.2032C157.713 18.8246 160.215 20.9055 161.113 21.5071C159.261 19.2876 157.647 16.5777 157.714 16.6543C160.651 20.0298 163.443 22.0214 163.443 22.0214C163.536 22.0821 163.607 22.1323 163.664 22.1767C163.735 22.02 163.798 21.8566 163.852 21.6865C164.442 19.8803 163.977 17.7516 162.817 15.9395C165.611 17.8949 167.154 21.3237 166.304 24.0535C166.282 24.1272 166.258 24.1998 166.233 24.271C166.241 24.2816 166.248 24.2925 166.256 24.3037C167.589 26.1997 167.103 28.0849 166.943 27.7128C166.248 26.1314 164.796 26.506 164.054 26.769V26.7689Z" fill="url(#paint2_linear)"/>
</g>
<path d="M14.1322 22.1677C15.7641 22.1677 16.7704 21.3473 16.7704 20.0509L16.7704 20.0463C16.7704 19.0264 16.1675 18.4734 14.785 18.1878L14.0914 18.0473C13.3208 17.8887 13.0035 17.6348 13.0035 17.2087L13.0035 17.2042C13.0035 16.7147 13.4523 16.4064 14.1277 16.4019C14.8167 16.4019 15.27 16.7283 15.347 17.1951L15.3561 17.2495H16.6434L16.6389 17.1906C16.5528 16.0982 15.6553 15.2913 14.1277 15.2913C12.6772 15.2913 11.6346 16.0937 11.6346 17.3085L11.6346 17.313C11.6346 18.3057 12.2193 18.9403 13.5792 19.2168L14.2682 19.3573C15.0796 19.525 15.4014 19.7653 15.4014 20.1959L15.4014 20.2004C15.4014 20.7036 14.8983 21.0526 14.1685 21.0526C13.4024 21.0526 12.8721 20.7217 12.8222 20.2322L12.8177 20.1868H11.4986L11.5032 20.2594C11.5802 21.4198 12.5684 22.1677 14.1322 22.1677ZM19.2408 22H20.5327L21.7565 17.594H21.8291L23.0665 22H24.3493L26.0854 15.459H24.6712L23.6603 20.1325H23.5878L22.373 15.459H21.2171L20.025 20.1325H19.9524L18.9325 15.459H17.5092L19.2408 22ZM27.2776 22H28.6465L28.6465 15.459H27.2776L27.2776 22ZM30.233 22H31.602L31.602 19.4253H34.2628L34.2628 18.342H31.602L31.602 16.5877H34.5166L34.5166 15.459H30.233L30.233 22ZM37.3678 22H38.7367L38.7367 16.5877H40.6995L40.6995 15.459H35.405L35.405 16.5877H37.3678L37.3678 22Z" fill="white"/>
<path d="M11.2426 34H12.0572L12.5113 32.6481H14.4247L14.8753 34H15.6934L13.8874 28.9981H13.0486L11.2426 34ZM13.4368 29.8751H13.4958L14.2167 32.0242H12.7193L13.4368 29.8751ZM16.4768 35.2548H17.229L17.229 33.4038H17.2844C17.4855 33.8094 17.9257 34.0624 18.4422 34.0624C19.3989 34.0624 20.002 33.3137 20.002 32.1213L20.002 32.1143C20.002 30.9288 19.392 30.1697 18.4422 30.1697C17.9153 30.1697 17.5028 30.4158 17.2844 30.8283H17.229L17.229 30.2356H16.4768L16.4768 35.2548ZM18.2308 33.4211C17.6033 33.4211 17.2151 32.9254 17.2151 32.1213L17.2151 32.1143C17.2151 31.3101 17.6033 30.8144 18.2308 30.8144C18.8582 30.8144 19.236 31.3032 19.236 32.1143L19.236 32.1213C19.236 32.9289 18.8582 33.4211 18.2308 33.4211ZM20.9068 35.2548H21.6589L21.6589 33.4038H21.7144C21.9155 33.8094 22.3557 34.0624 22.8722 34.0624C23.8289 34.0624 24.432 33.3137 24.432 32.1213L24.432 32.1143C24.432 30.9288 23.8219 30.1697 22.8722 30.1697C22.3453 30.1697 21.9328 30.4158 21.7144 30.8283H21.6589L21.6589 30.2356H20.9068L20.9068 35.2548ZM22.6607 33.4211C22.0333 33.4211 21.6451 32.9254 21.6451 32.1213L21.6451 32.1143C21.6451 31.3101 22.0333 30.8144 22.6607 30.8144C23.2881 30.8144 23.6659 31.3032 23.6659 32.1143L23.6659 32.1213C23.6659 32.9289 23.2881 33.4211 22.6607 33.4211ZM25.3714 34H26.1236L26.1236 28.7589H25.3714L25.3714 34ZM27.6349 29.5631C27.8914 29.5631 28.1063 29.3517 28.1063 29.0952C28.1063 28.8352 27.8914 28.6237 27.6349 28.6237C27.3749 28.6237 27.1635 28.8352 27.1635 29.0952C27.1635 29.3517 27.3749 29.5631 27.6349 29.5631ZM27.2571 34H28.0058L28.0058 30.2356H27.2571L27.2571 34ZM30.6853 34.0728C31.6177 34.0728 32.155 33.5702 32.2902 32.8388L32.2971 32.8076H31.5761L31.5692 32.8249C31.4478 33.2305 31.1567 33.4454 30.6853 33.4454C30.0648 33.4454 29.68 32.9393 29.68 32.1074L29.68 32.1005C29.68 31.2893 30.0578 30.7902 30.6853 30.7902C31.1844 30.7902 31.4894 31.0675 31.5726 31.4384L31.5761 31.4488L32.2971 31.4453L32.2971 31.428C32.1931 30.6966 31.6281 30.1628 30.6818 30.1628C29.583 30.1628 28.914 30.908 28.914 32.1005L28.914 32.1074C28.914 33.3241 29.5864 34.0728 30.6853 34.0728ZM34.1828 34.0624C34.6819 34.0624 35.0771 33.8475 35.2989 33.4662H35.3579L35.3579 34H36.1031L36.1031 31.4245C36.1031 30.6342 35.5693 30.1628 34.623 30.1628C33.7668 30.1628 33.1741 30.5753 33.0839 31.1923L33.0805 31.2165H33.8049L33.8084 31.2027C33.8985 30.9358 34.1724 30.7833 34.5883 30.7833C35.0979 30.7833 35.3579 31.012 35.3579 31.4245L35.3579 31.7573L34.3388 31.8162C33.441 31.8717 32.9349 32.2634 32.9349 32.9358L32.9349 32.9428C32.9349 33.6256 33.4652 34.0624 34.1828 34.0624ZM33.6836 32.9116L33.6836 32.9046C33.6836 32.5649 33.9193 32.3778 34.4393 32.3466L35.3579 32.2876L35.3579 32.61C35.3579 33.0953 34.9454 33.4627 34.3838 33.4627C33.9783 33.4627 33.6836 33.2582 33.6836 32.9116ZM38.585 34.0243C38.7306 34.0243 38.8692 34.0069 38.9906 33.9861L38.9906 33.3865C38.8866 33.3969 38.8207 33.4003 38.7063 33.4003C38.3354 33.4003 38.1829 33.2339 38.1829 32.8284L38.1829 30.8283H38.9906L38.9906 30.2356H38.1829L38.1829 29.2858H37.4169L37.4169 30.2356H36.8276L36.8276 30.8283H37.4169L37.4169 33.0086C37.4169 33.7331 37.7566 34.0243 38.585 34.0243ZM40.2592 29.5631C40.5157 29.5631 40.7307 29.3517 40.7307 29.0952C40.7307 28.8352 40.5157 28.6237 40.2592 28.6237C39.9993 28.6237 39.7878 28.8352 39.7878 29.0952C39.7878 29.3517 39.9993 29.5631 40.2592 29.5631ZM39.8814 34H40.6301L40.6301 30.2356H39.8814L39.8814 34ZM43.32 34.0728C44.4223 34.0728 45.0982 33.3345 45.0982 32.1213L45.0982 32.1143C45.0982 30.9011 44.4188 30.1628 43.32 30.1628C42.2177 30.1628 41.5383 30.9046 41.5383 32.1143L41.5383 32.1213C41.5383 33.3345 42.2142 34.0728 43.32 34.0728ZM43.32 33.4454C42.6718 33.4454 42.3078 32.9566 42.3078 32.1213L42.3078 32.1143C42.3078 31.2789 42.6718 30.7902 43.32 30.7902C43.9647 30.7902 44.3322 31.2789 44.3322 32.1143L44.3322 32.1213C44.3322 32.9532 43.9647 33.4454 43.32 33.4454ZM45.996 34H46.7482L46.7482 31.792C46.7482 31.1853 47.0914 30.8075 47.6425 30.8075C48.1937 30.8075 48.4536 31.116 48.4536 31.74L48.4536 34H49.2024L49.2024 31.5632C49.2024 30.6654 48.7379 30.1628 47.8955 30.1628C47.3479 30.1628 46.9874 30.4054 46.8037 30.8075H46.7482L46.7482 30.2356H45.996L45.996 34ZM51.6218 34.0728C52.5162 34.0728 53.1817 33.5979 53.1817 32.9012L53.1817 32.8942C53.1817 32.35 52.8351 32.0415 52.1106 31.8717L51.5144 31.7365C51.0915 31.636 50.9182 31.4904 50.9182 31.2547L50.9182 31.2477C50.9182 30.9462 51.2163 30.7417 51.6288 30.7417C52.0517 30.7417 52.3186 30.9392 52.3914 31.2027L52.3914 31.2096H53.1089L53.1089 31.2061C53.043 30.5926 52.4919 30.1628 51.6322 30.1628C50.7795 30.1628 50.1695 30.6342 50.1695 31.2893L50.1695 31.2928C50.1695 31.8439 50.4988 32.1663 51.2094 32.3292L51.809 32.4679C52.2458 32.5684 52.4226 32.7279 52.4226 32.9636L52.4226 32.9705C52.4226 33.279 52.1002 33.4905 51.6357 33.4905C51.1886 33.4905 50.9147 33.2998 50.8211 33.0156L50.8177 33.0121H50.0655L50.0655 33.0156C50.1383 33.6464 50.7137 34.0728 51.6218 34.0728ZM56.4123 29.5631C56.6688 29.5631 56.8837 29.3517 56.8837 29.0952C56.8837 28.8352 56.6688 28.6237 56.4123 28.6237C56.1523 28.6237 55.9409 28.8352 55.9409 29.0952C55.9409 29.3517 56.1523 29.5631 56.4123 29.5631ZM56.0345 34H56.7832L56.7832 30.2356H56.0345L56.0345 34ZM60.097 34.1213C61.5425 34.1213 62.4298 33.1022 62.4298 31.5008L62.4298 31.4938C62.4298 29.8889 61.5355 28.8768 60.097 28.8768C58.6619 28.8768 57.7607 29.8855 57.7607 31.4938L57.7607 31.5008C57.7607 33.1057 58.6412 34.1213 60.097 34.1213ZM60.097 33.435C59.1334 33.435 58.5545 32.6724 58.5545 31.5008L58.5545 31.4938C58.5545 30.3118 59.1507 29.5631 60.097 29.5631C61.0433 29.5631 61.6361 30.3118 61.6361 31.4938L61.6361 31.5008C61.6361 32.6724 61.0468 33.435 60.097 33.435ZM65.1752 34.1213C66.3399 34.1213 67.0851 33.5251 67.0851 32.5684L67.0851 32.5649C67.0851 31.8231 66.6553 31.4003 65.605 31.1749L65.0608 31.0536C64.4126 30.915 64.1491 30.6723 64.1491 30.3014L64.1491 30.298C64.1491 29.8265 64.5824 29.5527 65.1682 29.5527C65.7748 29.5492 66.1665 29.8473 66.2324 30.2564L66.2393 30.3014H66.9915L66.9881 30.2529C66.9326 29.4764 66.2393 28.8768 65.1786 28.8768C64.1179 28.8768 63.3692 29.473 63.3658 30.3361L63.3658 30.3396C63.3658 31.0779 63.8025 31.5493 64.8181 31.7642L65.3658 31.8821C66.0279 32.0242 66.2983 32.2738 66.2983 32.6585L66.2983 32.662C66.2983 33.1265 65.8442 33.4454 65.2064 33.4454C64.5374 33.4454 64.0555 33.1542 64.014 32.7001L64.0105 32.662H63.2479L63.2514 32.7071C63.3207 33.5494 64.0452 34.1213 65.1752 34.1213ZM70.0488 34H70.8045L70.8045 30.3673H70.8599L73.4285 34H74.1287L74.1287 28.9981H73.373L73.373 32.6377H73.321L70.749 28.9981H70.0488L70.0488 34ZM76.3333 34.0624C76.8324 34.0624 77.2276 33.8475 77.4494 33.4662H77.5084L77.5084 34H78.2536L78.2536 31.4245C78.2536 30.6342 77.7198 30.1628 76.7735 30.1628C75.9173 30.1628 75.3246 30.5753 75.2344 31.1923L75.231 31.2165H75.9554L75.9589 31.2027C76.049 30.9358 76.3229 30.7833 76.7388 30.7833C77.2484 30.7833 77.5084 31.012 77.5084 31.4245L77.5084 31.7573L76.4893 31.8162C75.5915 31.8717 75.0854 32.2634 75.0854 32.9358L75.0854 32.9428C75.0854 33.6256 75.6157 34.0624 76.3333 34.0624ZM75.8341 32.9116L75.8341 32.9046C75.8341 32.5649 76.0698 32.3778 76.5898 32.3466L77.5084 32.2876L77.5084 32.61C77.5084 33.0953 77.0959 33.4627 76.5343 33.4627C76.1288 33.4627 75.8341 33.2582 75.8341 32.9116ZM80.7355 34.0243C80.8811 34.0243 81.0197 34.0069 81.1411 33.9861L81.1411 33.3865C81.0371 33.3969 80.9712 33.4003 80.8568 33.4003C80.4859 33.4003 80.3334 33.2339 80.3334 32.8284L80.3334 30.8283H81.1411L81.1411 30.2356H80.3334L80.3334 29.2858H79.5673L79.5673 30.2356H78.9781L78.9781 30.8283H79.5673L79.5673 33.0086C79.5673 33.7331 79.907 34.0243 80.7355 34.0243ZM82.4097 29.5631C82.6662 29.5631 82.8812 29.3517 82.8812 29.0952C82.8812 28.8352 82.6662 28.6237 82.4097 28.6237C82.1498 28.6237 81.9383 28.8352 81.9383 29.0952C81.9383 29.3517 82.1498 29.5631 82.4097 29.5631ZM82.0319 34H82.7806L82.7806 30.2356H82.0319L82.0319 34ZM84.9124 34H85.7131L87.0719 30.2356H86.2816L85.3457 33.2374H85.2868L84.3474 30.2356H83.5502L84.9124 34ZM89.2627 34.0728C90.2263 34.0728 90.7462 33.5182 90.871 33.0225L90.878 32.9913L90.1535 32.9948L90.1396 33.0225C90.0495 33.2166 89.7618 33.4558 89.28 33.4558C88.6595 33.4558 88.2644 33.0364 88.2505 32.3154H90.9196L90.9196 32.0519C90.9196 30.9219 90.2748 30.1628 89.2245 30.1628C88.1742 30.1628 87.4948 30.9496 87.4948 32.1247L87.4948 32.1282C87.4948 33.3206 88.1604 34.0728 89.2627 34.0728ZM89.228 30.7798C89.7375 30.7798 90.1154 31.1056 90.1743 31.7781H88.2609C88.3267 31.1299 88.715 30.7798 89.228 30.7798ZM93.1831 34.0728C94.0774 34.0728 94.7429 33.5979 94.7429 32.9012L94.7429 32.8942C94.7429 32.35 94.3963 32.0415 93.6718 31.8717L93.0756 31.7365C92.6527 31.636 92.4794 31.4904 92.4794 31.2547L92.4794 31.2477C92.4794 30.9462 92.7775 30.7417 93.19 30.7417C93.6129 30.7417 93.8798 30.9392 93.9526 31.2027L93.9526 31.2096H94.6701L94.6701 31.2061C94.6043 30.5926 94.0531 30.1628 93.1935 30.1628C92.3408 30.1628 91.7307 30.6342 91.7307 31.2893L91.7307 31.2928C91.7307 31.8439 92.06 32.1663 92.7706 32.3292L93.3703 32.4679C93.807 32.5684 93.9838 32.7279 93.9838 32.9636L93.9838 32.9705C93.9838 33.279 93.6614 33.4905 93.1969 33.4905C92.7498 33.4905 92.4759 33.2998 92.3823 33.0156L92.3789 33.0121H91.6267L91.6267 33.0156C91.6995 33.6464 92.2749 34.0728 93.1831 34.0728Z" fill="white" fill-opacity="0.6"/>
<path d="M68.8085 64.4392H12.0164C11.4132 64.4392 10.9242 64.9282 10.9242 65.5314C10.9242 66.1345 11.4132 66.6235 12.0164 66.6235H68.8085C69.4117 66.6235 69.9007 66.1345 69.9007 65.5314C69.9007 64.9282 69.4117 64.4392 68.8085 64.4392Z" fill="white" fill-opacity="0.2"/>
<path d="M41.5046 70.9922H12.0164C11.4132 70.9922 10.9242 71.4812 10.9242 72.0843C10.9242 72.6875 11.4132 73.1765 12.0164 73.1765H41.5046C42.1078 73.1765 42.5968 72.6875 42.5968 72.0843C42.5968 71.4812 42.1078 70.9922 41.5046 70.9922Z" fill="white" fill-opacity="0.2"/>
<path d="M52.4262 77.5452H12.0164C11.4132 77.5452 10.9242 78.0341 10.9242 78.6373C10.9242 79.2405 11.4132 79.7295 12.0164 79.7295H52.4262C53.0294 79.7295 53.5184 79.2405 53.5184 78.6373C53.5184 78.0341 53.0294 77.5452 52.4262 77.5452Z" fill="white" fill-opacity="0.2"/>
<path d="M41.5046 84.0981H12.0164C11.4132 84.0981 10.9242 84.5871 10.9242 85.1903C10.9242 85.7935 11.4132 86.2825 12.0164 86.2825H41.5046C42.1078 86.2825 42.5968 85.7935 42.5968 85.1903C42.5968 84.5871 42.1078 84.0981 41.5046 84.0981Z" fill="white" fill-opacity="0.2"/>
<path d="M54.0645 99.3884H13.1085C11.9021 99.3884 10.9242 100.366 10.9242 101.573C10.9242 102.779 11.9021 103.757 13.1085 103.757H54.0645C55.2708 103.757 56.2488 102.779 56.2488 101.573C56.2488 100.366 55.2708 99.3884 54.0645 99.3884Z" fill="white" fill-opacity="0.4"/>
</g>
<defs>
<filter id="filter0_ii" x="148.876" y="9.54132" width="25.1233" height="25.1235" filterUnits="userSpaceOnUse" color-interpolation-filters="sRGB">
<feFlood flood-opacity="0" result="BackgroundImageFix"/>
<feBlend mode="normal" in="SourceGraphic" in2="BackgroundImageFix" result="shape"/>
<feColorMatrix in="SourceAlpha" type="matrix" values="0 0 0 0 0 0 0 0 0 0 0 0 0 0 0 0 0 0 127 0" result="hardAlpha"/>
<feOffset dx="-0.546079" dy="-0.546079"/>
<feGaussianBlur stdDeviation="2"/>
<feComposite in2="hardAlpha" operator="arithmetic" k2="-1" k3="1"/>
<feColorMatrix type="matrix" values="0 0 0 0 1 0 0 0 0 1 0 0 0 0 1 0 0 0 0.25 0"/>
<feBlend mode="normal" in2="shape" result="effect1_innerShadow"/>
<feColorMatrix in="SourceAlpha" type="matrix" values="0 0 0 0 0 0 0 0 0 0 0 0 0 0 0 0 0 0 127 0" result="hardAlpha"/>
<feOffset dx="0.546079" dy="0.546079"/>
<feGaussianBlur stdDeviation="2"/>
<feComposite in2="hardAlpha" operator="arithmetic" k2="-1" k3="1"/>
<feColorMatrix type="matrix" values="0 0 0 0 1 0 0 0 0 1 0 0 0 0 1 0 0 0 0.25 0"/>
<feBlend mode="normal" in2="effect1_innerShadow" result="effect2_innerShadow"/>
</filter>
<filter id="filter1_d" x="127.724" y="-10.9991" width="66.3772" height="65.6978" filterUnits="userSpaceOnUse" color-interpolation-filters="sRGB">
<feFlood flood-opacity="0" result="BackgroundImageFix"/>
<feColorMatrix in="SourceAlpha" type="matrix" values="0 0 0 0 0 0 0 0 0 0 0 0 0 0 0 0 0 0 127 0"/>
<feOffset/>
<feGaussianBlur stdDeviation="13.4693"/>
<feColorMatrix type="matrix" values="0 0 0 0 0.250017 0 0 0 0 0.215353 0 0 0 0 0.847968 0 0 0 0.610768 0"/>
<feBlend mode="normal" in2="BackgroundImageFix" result="effect1_dropShadow"/>
<feBlend mode="normal" in="SourceGraphic" in2="effect1_dropShadow" result="shape"/>
</filter>
<linearGradient id="paint0_linear" x1="91.5" y1="1.30058e-06" x2="59.3235" y2="131.773" gradientUnits="userSpaceOnUse">
<stop stop-color="#FCC14F"/>
<stop offset="0.25" stop-color="#D04B69"/>
<stop offset="0.520833" stop-color="#D14B68"/>
<stop offset="1" stop-color="#491EB8"/>
</linearGradient>
<linearGradient id="paint1_linear" x1="161.438" y1="10.0874" x2="161.438" y2="34.1187" gradientUnits="userSpaceOnUse">
<stop stop-color="white"/>
<stop offset="0.171875" stop-color="white" stop-opacity="0.828125"/>
<stop offset="1" stop-color="white" stop-opacity="0"/>
</linearGradient>
<linearGradient id="paint2_linear" x1="160.912" y1="15.9395" x2="160.912" y2="27.7601" gradientUnits="userSpaceOnUse">
<stop stop-color="#F97532"/>
<stop offset="1" stop-color="#FD2721"/>
</linearGradient>
<clipPath id="clip0">
<path d="M0 16C0 7.16344 7.16344 0 16 0H167C175.837 0 183 7.16345 183 16V104C183 112.837 175.837 120 167 120H16C7.16344 120 0 112.837 0 104V16Z" fill="white"/>
</clipPath>
</defs>
</svg>
