<svg width="216" height="170" viewBox="0 0 216 170" fill="none" xmlns="http://www.w3.org/2000/svg">
<g filter="url(#filter0_bdi)">
<rect width="183" height="120" rx="16" fill="url(#paint0_radial)" fill-opacity="0.6"/>
<path fill-rule="evenodd" clip-rule="evenodd" d="M160.02 35.04C166.659 35.04 172.04 29.6585 172.04 23.02C172.04 16.3815 166.659 11 160.02 11C153.382 11 148 16.3815 148 23.02C148 29.6585 153.382 35.04 160.02 35.04Z" fill="url(#paint1_linear)"/>
<path d="M166.781 23.0326C166.781 22.1368 165.66 21.2878 163.94 20.7614C164.337 19.0083 164.16 17.6136 163.383 17.1671C163.204 17.0624 162.994 17.0128 162.765 17.0128V17.6274C162.892 17.6274 162.994 17.6522 163.08 17.6991C163.455 17.9141 163.617 18.7327 163.49 19.7856C163.46 20.0447 163.41 20.3176 163.35 20.596C162.81 20.4637 162.22 20.3617 161.6 20.2955C161.227 19.7856 160.842 19.3226 160.453 18.9174C161.351 18.0822 162.195 17.6247 162.768 17.6247V17.01C162.01 17.01 161.018 17.5502 160.015 18.4874C159.011 17.5558 158.019 17.021 157.261 17.021V17.6357C157.832 17.6357 158.678 18.0905 159.576 18.9201C159.191 19.3253 158.805 19.7856 158.438 20.2955C157.815 20.3617 157.225 20.4637 156.685 20.5987C156.622 20.3231 156.575 20.0557 156.542 19.7994C156.412 18.7465 156.572 17.9279 156.944 17.7101C157.027 17.6605 157.134 17.6385 157.261 17.6385V17.0238C157.03 17.0238 156.82 17.0734 156.638 17.1781C155.864 17.6247 155.69 19.0166 156.09 20.7641C154.375 21.2933 153.259 22.1395 153.259 23.0326C153.259 23.9284 154.381 24.7773 156.101 25.3038C155.704 27.0568 155.88 28.4515 156.657 28.898C156.837 29.0028 157.046 29.0524 157.278 29.0524C158.036 29.0524 159.028 28.5121 160.031 27.575C161.034 28.5066 162.027 29.0413 162.785 29.0413C163.016 29.0413 163.226 28.9917 163.408 28.887C164.182 28.4405 164.356 27.0485 163.956 25.301C165.665 24.7746 166.781 23.9256 166.781 23.0326ZM163.193 21.1941C163.091 21.5497 162.964 21.9163 162.821 22.2828C162.708 22.0623 162.589 21.8418 162.46 21.6213C162.333 21.4008 162.198 21.1858 162.063 20.9764C162.454 21.0342 162.832 21.1059 163.193 21.1941ZM161.93 24.1296C161.715 24.5017 161.495 24.8545 161.266 25.1825C160.855 25.2183 160.439 25.2376 160.02 25.2376C159.604 25.2376 159.188 25.2183 158.78 25.1853C158.551 24.8572 158.328 24.5072 158.113 24.1378C157.903 23.7768 157.713 23.4102 157.539 23.0408C157.71 22.6715 157.903 22.3021 158.11 21.9411C158.325 21.569 158.546 21.2162 158.774 20.8882C159.185 20.8523 159.601 20.833 160.02 20.833C160.436 20.833 160.853 20.8523 161.261 20.8854C161.489 21.2134 161.713 21.5634 161.928 21.9328C162.137 22.2939 162.327 22.6605 162.501 23.0298C162.327 23.3992 162.137 23.7685 161.93 24.1296ZM162.821 23.7713C162.969 24.1406 163.096 24.51 163.201 24.8683C162.84 24.9565 162.46 25.0309 162.065 25.0888C162.2 24.8765 162.335 24.6588 162.462 24.4355C162.589 24.215 162.708 23.9918 162.821 23.7713ZM160.026 26.7123C159.769 26.4476 159.513 26.1527 159.259 25.8302C159.507 25.8413 159.761 25.8495 160.017 25.8495C160.276 25.8495 160.533 25.844 160.784 25.8302C160.536 26.1527 160.279 26.4476 160.026 26.7123ZM157.975 25.0888C157.584 25.0309 157.206 24.9592 156.845 24.871C156.947 24.5155 157.074 24.1489 157.217 23.7823C157.33 24.0028 157.449 24.2233 157.578 24.4438C157.708 24.6643 157.84 24.8793 157.975 25.0888ZM160.012 19.3529C160.268 19.6175 160.525 19.9124 160.778 20.2349C160.53 20.2239 160.276 20.2156 160.02 20.2156C159.761 20.2156 159.505 20.2211 159.254 20.2349C159.502 19.9124 159.758 19.6175 160.012 19.3529ZM157.972 20.9764C157.837 21.1886 157.702 21.4063 157.575 21.6296C157.449 21.8501 157.33 22.0706 157.217 22.2911C157.068 21.9218 156.941 21.5524 156.837 21.1941C157.198 21.1087 157.578 21.0342 157.972 20.9764ZM155.478 24.4273C154.502 24.0111 153.871 23.4653 153.871 23.0326C153.871 22.5998 154.502 22.0513 155.478 21.6379C155.715 21.5359 155.974 21.4449 156.241 21.3595C156.398 21.8997 156.605 22.462 156.861 23.0381C156.608 23.6114 156.404 24.1709 156.25 24.7084C155.977 24.623 155.718 24.5292 155.478 24.4273ZM156.961 28.366C156.586 28.151 156.423 27.3324 156.55 26.2795C156.58 26.0204 156.63 25.7475 156.691 25.4692C157.231 25.6015 157.821 25.7034 158.441 25.7696C158.813 26.2795 159.199 26.7426 159.587 27.1477C158.689 27.9829 157.845 28.4405 157.272 28.4405C157.148 28.4377 157.043 28.4129 156.961 28.366ZM163.499 26.2657C163.628 27.3186 163.468 28.1373 163.096 28.355C163.014 28.4046 162.906 28.4267 162.779 28.4267C162.209 28.4267 161.362 27.9719 160.464 27.1422C160.85 26.7371 161.236 26.2768 161.602 25.7668C162.225 25.7007 162.815 25.5987 163.355 25.4636C163.419 25.742 163.468 26.0094 163.499 26.2657ZM164.56 24.4273C164.323 24.5292 164.064 24.6202 163.796 24.7057C163.639 24.1654 163.432 23.6031 163.176 23.0271C163.43 22.4537 163.634 21.8942 163.788 21.3567C164.061 21.4422 164.32 21.5359 164.563 21.6379C165.538 22.0541 166.17 22.5998 166.17 23.0326C166.167 23.4653 165.536 24.0138 164.56 24.4273Z" fill="#61DAFB"/>
<path d="M160.018 24.292C160.713 24.292 161.277 23.728 161.277 23.0323C161.277 22.3367 160.713 21.7727 160.018 21.7727C159.322 21.7727 158.758 22.3367 158.758 23.0323C158.758 23.728 159.322 24.292 160.018 24.292Z" fill="#61DAFB"/>
<g clip-path="url(#clip0)">
<g clip-path="url(#clip1)">
<path d="M11.7161 20.9233H13.0855V18.5291H14.2056L15.4253 20.9233H16.9761L15.5976 18.3251C16.3458 18.0304 16.7811 17.3094 16.7811 16.4705V16.4614C16.7811 15.1736 15.9286 14.3801 14.4413 14.3801H11.7161V20.9233ZM13.0855 17.5316V15.4503H14.2736C14.9583 15.4503 15.38 15.8584 15.38 16.4886V16.4977C15.38 17.1416 14.9764 17.5316 14.2917 17.5316H13.0855ZM18.1641 20.9233H22.4991V19.7943H19.5335V18.1392H22.3313V17.0872H19.5335V15.5092H22.4991V14.3801H18.1641V20.9233ZM23.474 20.9233H24.9114L25.3966 19.3363H27.7046L28.1898 20.9233H29.6318L27.3555 14.3801H25.7457L23.474 20.9233ZM26.5121 15.686H26.5937L27.3918 18.3115H25.7095L26.5121 15.686ZM33.2231 21.0911C34.8011 21.0911 35.9211 20.157 36.0616 18.7876L36.0662 18.7377H34.733L34.724 18.774C34.5789 19.4723 34.0121 19.9303 33.2276 19.9303C32.1937 19.9303 31.5544 19.0597 31.5544 17.654V17.6449C31.5544 16.2392 32.1937 15.3732 33.2231 15.3732C34.003 15.3732 34.5879 15.872 34.7285 16.6065V16.6383H36.0616V16.5839C35.9347 15.2009 34.7739 14.2123 33.2231 14.2123C31.3231 14.2123 30.1532 15.5228 30.1532 17.6449V17.654C30.1532 19.7761 31.3277 21.0911 33.2231 21.0911ZM38.7778 20.9233H40.1472V15.5092H42.1106V14.3801H36.8144V15.5092H38.7778V20.9233ZM45.6656 18.8783H48.681V17.6857H45.6656V18.8783ZM52.6079 20.9233H53.9773V18.5291H55.0973L56.3171 20.9233H57.8678L56.4894 18.3251C57.2375 18.0304 57.6729 17.3094 57.6729 16.4705V16.4614C57.6729 15.1736 56.8204 14.3801 55.3331 14.3801H52.6079V20.9233ZM53.9773 17.5316V15.4503H55.1653C55.85 15.4503 56.2717 15.8584 56.2717 16.4886V16.4977C56.2717 17.1416 55.8681 17.5316 55.1834 17.5316H53.9773ZM59.0559 20.9233H63.3908V19.7943H60.4253V18.1392H63.223V17.0872H60.4253V15.5092H63.3908V14.3801H59.0559V20.9233ZM64.3657 20.9233H65.8031L66.2883 19.3363H68.5964L69.0816 20.9233H70.5235L68.2472 14.3801H66.6375L64.3657 20.9233ZM67.4038 15.686H67.4854L68.2835 18.3115H66.6012L67.4038 15.686ZM74.1148 21.0911C75.6928 21.0911 76.8128 20.157 76.9534 18.7876L76.9579 18.7377H75.6248L75.6157 18.774C75.4706 19.4723 74.9038 19.9303 74.1193 19.9303C73.0855 19.9303 72.4461 19.0597 72.4461 17.654V17.6449C72.4461 16.2392 73.0855 15.3732 74.1148 15.3732C74.8947 15.3732 75.4797 15.872 75.6202 16.6065V16.6383H76.9534V16.5839C76.8264 15.2009 75.6656 14.2123 74.1148 14.2123C72.2149 14.2123 71.045 15.5228 71.045 17.6449V17.654C71.045 19.7761 72.2194 21.0911 74.1148 21.0911ZM79.6695 20.9233H81.0389V15.5092H83.0023V14.3801H77.7061V15.5092H79.6695V20.9233ZM86.6072 20.9233H87.9177V16.738H87.9902L91.0193 20.9233H92.1529V14.3801H90.8424V18.5473H90.7699L87.7499 14.3801H86.6072V20.9233ZM93.2774 20.9233H94.7148L95.2 19.3363H97.5081L97.9933 20.9233H99.4352L97.1589 14.3801H95.5492L93.2774 20.9233ZM96.3155 15.686H96.3971L97.1952 18.3115H95.5129L96.3155 15.686ZM101.426 20.9233H102.795V15.5092H104.759V14.3801H99.4624V15.5092H101.426V20.9233ZM105.969 20.9233H107.339V14.3801H105.969V20.9233ZM110.64 20.9233H112.327L114.508 14.3801H112.966L111.524 19.3998H111.442L109.996 14.3801H108.459L110.64 20.9233ZM115.628 20.9233H119.963V19.7943H116.997V18.1392H119.795V17.0872H116.997V15.5092H119.963V14.3801H115.628V20.9233Z" fill="white"/>
<path d="M12.5801 33.1084H13.3152L14.3867 29.3669H14.4352L15.5101 33.1084H16.2418L17.5941 28.1048H16.7862L15.8708 31.9953H15.8222L14.7716 28.1048H14.0503L13.0066 31.9953H12.958L12.0392 28.1048H11.2312L12.5801 33.1084ZM19.6538 33.1812C20.6178 33.1812 21.1379 32.6264 21.2628 32.1306L21.2697 32.0993L20.545 32.1028L20.5311 32.1306C20.441 32.3247 20.1532 32.564 19.6712 32.564C19.0505 32.564 18.6552 32.1444 18.6413 31.4232H21.3113V31.1596C21.3113 30.0292 20.6664 29.2698 19.6157 29.2698C18.565 29.2698 17.8854 30.057 17.8854 31.2325V31.2359C17.8854 32.4288 18.5512 33.1812 19.6538 33.1812ZM19.6192 29.8871C20.1289 29.8871 20.5068 30.213 20.5658 30.8857H18.6517C18.7176 30.2373 19.106 29.8871 19.6192 29.8871ZM24.2067 33.1708C25.1568 33.1708 25.7671 32.4114 25.7671 31.229V31.2221C25.7671 30.0292 25.1637 29.2768 24.2067 29.2768C23.69 29.2768 23.2497 29.5334 23.0485 29.9391H22.9931V27.8655H22.2406V33.1084H22.9931V32.5155H23.0485C23.267 32.9281 23.6796 33.1708 24.2067 33.1708ZM23.9952 32.5293C23.3676 32.5293 22.9792 32.0335 22.9792 31.229V31.2221C22.9792 30.4176 23.3676 29.9217 23.9952 29.9217C24.6228 29.9217 25.0008 30.4141 25.0008 31.2221V31.229C25.0008 32.0369 24.6228 32.5293 23.9952 32.5293ZM28.5966 31.4371H30.9164V30.747H28.5966V31.4371ZM34.0198 33.1084H34.7965V30.8926H37.366V33.1084H38.1392V28.1048H37.366V30.2199H34.7965V28.1048H34.0198V33.1084ZM39.6753 34.433C40.4382 34.433 40.8196 34.1521 41.1386 33.254L42.5395 29.3427H41.7489L40.8092 32.3525H40.7433L39.8002 29.3427H38.9888L40.355 33.1119L40.2995 33.306C40.1885 33.6875 39.977 33.8366 39.6268 33.8366C39.5401 33.8366 39.4465 33.8331 39.3737 33.8227V34.4157C39.4707 34.4261 39.5817 34.433 39.6753 34.433ZM45.3031 33.1708C46.2532 33.1708 46.8635 32.4114 46.8635 31.229V31.2221C46.8635 30.0292 46.2602 29.2768 45.3031 29.2768C44.7865 29.2768 44.3461 29.5334 44.145 29.9391H44.0895V27.8655H43.337V33.1084H44.0895V32.5155H44.145C44.3634 32.9281 44.7761 33.1708 45.3031 33.1708ZM45.0916 32.5293C44.464 32.5293 44.0756 32.0335 44.0756 31.229V31.2221C44.0756 30.4176 44.464 29.9217 45.0916 29.9217C45.7192 29.9217 46.0972 30.4141 46.0972 31.2221V31.229C46.0972 32.0369 45.7192 32.5293 45.0916 32.5293ZM47.7616 33.1084H48.5141V30.858C48.5141 30.3136 48.9059 29.9599 49.4815 29.9599C49.6237 29.9599 49.752 29.9772 49.8872 30.005V29.3115C49.8109 29.2941 49.6791 29.2768 49.5578 29.2768C49.055 29.2768 48.7048 29.5126 48.5695 29.9113H48.5141V29.3427H47.7616V33.1084ZM50.9968 28.67C51.2534 28.67 51.4684 28.4584 51.4684 28.2018C51.4684 27.9418 51.2534 27.7303 50.9968 27.7303C50.7367 27.7303 50.5252 27.9418 50.5252 28.2018C50.5252 28.4584 50.7367 28.67 50.9968 28.67ZM50.6188 33.1084H51.3678V29.3427H50.6188V33.1084ZM53.8367 33.1708C54.3638 33.1708 54.7764 32.9281 54.9949 32.5155H55.0538V33.1084H55.8028V27.8655H55.0538V29.9391H54.9949C54.7937 29.5334 54.3534 29.2768 53.8367 29.2768C52.8797 29.2768 52.2763 30.0292 52.2763 31.2221V31.229C52.2763 32.4114 52.8901 33.1708 53.8367 33.1708ZM54.0517 32.5293C53.4206 32.5293 53.0426 32.0369 53.0426 31.229V31.2221C53.0426 30.4141 53.4206 29.9217 54.0517 29.9217C54.6758 29.9217 55.0642 30.4176 55.0642 31.2221V31.229C55.0642 32.0335 54.6793 32.5293 54.0517 32.5293ZM58.504 33.1812C59.468 33.1812 59.9881 32.6264 60.1129 32.1306L60.1199 32.0993L59.3952 32.1028L59.3813 32.1306C59.2911 32.3247 59.0033 32.564 58.5213 32.564C57.9007 32.564 57.5054 32.1444 57.4915 31.4232H60.1615V31.1596C60.1615 30.0292 59.5165 29.2698 58.4659 29.2698C57.4152 29.2698 56.7356 30.057 56.7356 31.2325V31.2359C56.7356 32.4288 57.4013 33.1812 58.504 33.1812ZM58.4693 29.8871C58.9791 29.8871 59.357 30.213 59.416 30.8857H57.5019C57.5678 30.2373 57.9561 29.8871 58.4693 29.8871ZM65.1374 33.2298C66.2539 33.2298 67.0688 32.5917 67.2144 31.6312V31.6104H66.4446L66.4377 31.6243C66.2955 32.1895 65.7997 32.5432 65.1374 32.5432C64.2358 32.5432 63.6741 31.7977 63.6741 30.6118V30.6048C63.6741 29.4155 64.2358 28.67 65.1339 28.67C65.7927 28.67 66.2955 29.0687 66.4412 29.6825V29.6929H67.211L67.2144 29.6755C67.0827 28.6804 66.2366 27.9834 65.1339 27.9834C63.7434 27.9834 62.88 28.989 62.88 30.6048V30.6118C62.88 32.2242 63.7469 33.2298 65.1374 33.2298ZM68.1507 33.1084H68.9031V30.858C68.9031 30.3136 69.2949 29.9599 69.8705 29.9599C70.0127 29.9599 70.141 29.9772 70.2762 30.005V29.3115C70.2 29.2941 70.0682 29.2768 69.9468 29.2768C69.444 29.2768 69.0938 29.5126 68.9586 29.9113H68.9031V29.3427H68.1507V33.1084ZM72.492 33.1812C73.5947 33.1812 74.2708 32.4426 74.2708 31.229V31.2221C74.2708 30.0084 73.5912 29.2698 72.492 29.2698C71.3893 29.2698 70.7097 30.0119 70.7097 31.2221V31.229C70.7097 32.4426 71.3859 33.1812 72.492 33.1812ZM72.492 32.5536C71.8436 32.5536 71.4795 32.0647 71.4795 31.229V31.2221C71.4795 30.3864 71.8436 29.8975 72.492 29.8975C73.137 29.8975 73.5045 30.3864 73.5045 31.2221V31.229C73.5045 32.0612 73.137 32.5536 72.492 32.5536ZM76.5386 33.1812C77.4332 33.1812 78.099 32.7062 78.099 32.0092V32.0023C78.099 31.4579 77.7522 31.1492 77.0275 30.9793L76.4311 30.8441C76.0081 30.7435 75.8347 30.5979 75.8347 30.3621V30.3552C75.8347 30.0535 76.1329 29.8489 76.5455 29.8489C76.9686 29.8489 77.2356 30.0466 77.3084 30.3101V30.317H78.0262V30.3136C77.9603 29.6998 77.409 29.2698 76.549 29.2698C75.696 29.2698 75.0857 29.7414 75.0857 30.3968V30.4003C75.0857 30.9516 75.4151 31.2741 76.126 31.4371L76.7259 31.5758C77.1628 31.6763 77.3396 31.8358 77.3396 32.0716V32.0785C77.3396 32.3872 77.0171 32.5987 76.5525 32.5987C76.1052 32.5987 75.8312 32.408 75.7376 32.1236L75.7341 32.1202H74.9817V32.1236C75.0545 32.7547 75.6301 33.1812 76.5386 33.1812ZM80.2974 33.1812C81.192 33.1812 81.8578 32.7062 81.8578 32.0092V32.0023C81.8578 31.4579 81.511 31.1492 80.7863 30.9793L80.1899 30.8441C79.7669 30.7435 79.5935 30.5979 79.5935 30.3621V30.3552C79.5935 30.0535 79.8917 29.8489 80.3043 29.8489C80.7274 29.8489 80.9944 30.0466 81.0672 30.3101V30.317H81.785V30.3136C81.7191 29.6998 81.1678 29.2698 80.3078 29.2698C79.4548 29.2698 78.8445 29.7414 78.8445 30.3968V30.4003C78.8445 30.9516 79.1739 31.2741 79.8848 31.4371L80.4846 31.5758C80.9216 31.6763 81.0984 31.8358 81.0984 32.0716V32.0785C81.0984 32.3872 80.7759 32.5987 80.3113 32.5987C79.864 32.5987 79.59 32.408 79.4964 32.1236L79.4929 32.1202H78.7405V32.1236C78.8133 32.7547 79.3889 33.1812 80.2974 33.1812ZM82.7455 31.4371H85.0652V30.747H82.7455V31.4371ZM86.2269 33.1084H87.0036V31.3989H88.1756C89.1569 31.3989 89.8366 30.7297 89.8366 29.7518V29.7449C89.8366 28.7636 89.1569 28.1048 88.1756 28.1048H86.2269V33.1084ZM87.9814 28.7601C88.6541 28.7601 89.046 29.1242 89.046 29.7484V29.7553C89.046 30.3829 88.6541 30.747 87.9814 30.747H87.0036V28.7601H87.9814ZM90.7867 33.1084H91.5391V27.8655H90.7867V33.1084ZM93.6925 33.1708C94.1918 33.1708 94.5871 32.9558 94.809 32.5744H94.8679V33.1084H95.6135V30.532C95.6135 29.7414 95.0795 29.2698 94.1328 29.2698C93.2763 29.2698 92.6834 29.6825 92.5932 30.2997L92.5898 30.324H93.3145L93.318 30.3101C93.4081 30.0431 93.682 29.8905 94.0982 29.8905C94.6079 29.8905 94.8679 30.1194 94.8679 30.532V30.8649L93.8485 30.9239C92.9504 30.9793 92.4441 31.3712 92.4441 32.0439V32.0508C92.4441 32.7339 92.9747 33.1708 93.6925 33.1708ZM93.1931 32.0196V32.0127C93.1931 31.6728 93.4289 31.4856 93.949 31.4544L94.8679 31.3954V31.7179C94.8679 32.2034 94.4553 32.5709 93.8936 32.5709C93.4879 32.5709 93.1931 32.3663 93.1931 32.0196ZM98.0962 33.1327C98.2418 33.1327 98.3805 33.1153 98.5019 33.0945V32.4946C98.3979 32.505 98.332 32.5085 98.2176 32.5085C97.8465 32.5085 97.694 32.3421 97.694 31.9364V29.9356H98.5019V29.3427H97.694V28.3926H96.9277V29.3427H96.3382V29.9356H96.9277V32.1167C96.9277 32.8414 97.2675 33.1327 98.0962 33.1327ZM100.919 33.1812C101.883 33.1812 102.403 32.6264 102.528 32.1306L102.535 32.0993L101.81 32.1028L101.796 32.1306C101.706 32.3247 101.418 32.564 100.936 32.564C100.315 32.564 99.9201 32.1444 99.9063 31.4232H102.576V31.1596C102.576 30.0292 101.931 29.2698 100.881 29.2698C99.83 29.2698 99.1503 30.057 99.1503 31.2325V31.2359C99.1503 32.4288 99.8161 33.1812 100.919 33.1812ZM100.884 29.8871C101.394 29.8871 101.772 30.213 101.831 30.8857H99.9167C99.9825 30.2373 100.371 29.8871 100.884 29.8871ZM103.738 33.1084H104.487V29.9356H105.316V29.3427H104.48V28.982C104.48 28.6006 104.643 28.3995 105.059 28.3995C105.177 28.3995 105.277 28.4064 105.347 28.4168V27.8655C105.219 27.8447 105.073 27.8308 104.903 27.8308C104.119 27.8308 103.738 28.1984 103.738 28.9474V29.3427H103.117V29.9356H103.738V33.1084ZM107.611 33.1812C108.714 33.1812 109.39 32.4426 109.39 31.229V31.2221C109.39 30.0084 108.71 29.2698 107.611 29.2698C106.508 29.2698 105.829 30.0119 105.829 31.2221V31.229C105.829 32.4426 106.505 33.1812 107.611 33.1812ZM107.611 32.5536C106.963 32.5536 106.599 32.0647 106.599 31.229V31.2221C106.599 30.3864 106.963 29.8975 107.611 29.8975C108.256 29.8975 108.624 30.3864 108.624 31.2221V31.229C108.624 32.0612 108.256 32.5536 107.611 32.5536ZM110.288 33.1084H111.04V30.858C111.04 30.3136 111.432 29.9599 112.008 29.9599C112.15 29.9599 112.278 29.9772 112.414 30.005V29.3115C112.337 29.2941 112.206 29.2768 112.084 29.2768C111.581 29.2768 111.231 29.5126 111.096 29.9113H111.04V29.3427H110.288V33.1084ZM113.187 33.1084H113.939V30.7956C113.939 30.3032 114.276 29.9148 114.73 29.9148C115.174 29.9148 115.455 30.1853 115.455 30.6152V33.1084H116.204V30.7262C116.204 30.272 116.519 29.9148 116.998 29.9148C117.49 29.9148 117.726 30.1714 117.726 30.6915V33.1084H118.475V30.5112C118.475 29.7276 118.031 29.2698 117.272 29.2698C116.748 29.2698 116.315 29.5368 116.124 29.9425H116.065C115.898 29.5368 115.534 29.2698 115.021 29.2698C114.529 29.2698 114.161 29.5091 113.995 29.9217H113.939V29.3427H113.187V33.1084Z" fill="white" fill-opacity="0.6"/>
</g>
<g clip-path="url(#clip2)">
<rect x="10.9226" y="64.0583" width="58.997" height="2.18507" rx="1.09254" fill="white" fill-opacity="0.3"/>
<rect x="10.9226" y="70.6135" width="31.6836" height="2.18507" rx="1.09254" fill="white" fill-opacity="0.3"/>
<rect x="10.9226" y="77.1687" width="42.609" height="2.18507" rx="1.09254" fill="white" fill-opacity="0.3"/>
<g clip-path="url(#clip3)">
<rect x="10.9226" y="83.7241" width="31.6836" height="2.18507" rx="1.09254" fill="white" fill-opacity="0.3"/>
<rect x="10.9226" y="99.0195" width="45.3403" height="4.37015" rx="2.18507" fill="white" fill-opacity="0.6"/>
</g>
</g>
</g>
<g clip-path="url(#clip4)">
<rect x="124.002" y="86.3083" width="37.1463" height="2.18507" rx="1.09254" fill="white" fill-opacity="0.3"/>
<rect x="124.002" y="92.8635" width="20.7582" height="2.18507" rx="1.09254" fill="white" fill-opacity="0.3"/>
<g clip-path="url(#clip5)">
<rect x="124.002" y="99.4187" width="28.9522" height="4.37015" rx="2.18507" fill="white" fill-opacity="0.6"/>
</g>
</g>
</g>
<defs>
<filter id="filter0_bdi" x="-32.7761" y="-21.8507" width="248.552" height="191.015" filterUnits="userSpaceOnUse" color-interpolation-filters="sRGB">
<feFlood flood-opacity="0" result="BackgroundImageFix"/>
<feGaussianBlur in="BackgroundImage" stdDeviation="10.9254"/>
<feComposite in2="SourceAlpha" operator="in" result="effect1_backgroundBlur"/>
<feColorMatrix in="SourceAlpha" type="matrix" values="0 0 0 0 0 0 0 0 0 0 0 0 0 0 0 0 0 0 127 0"/>
<feOffset dy="16.3881"/>
<feGaussianBlur stdDeviation="16.3881"/>
<feColorMatrix type="matrix" values="0 0 0 0 0.387689 0 0 0 0 0.116111 0 0 0 0 0.733333 0 0 0 0.5 0"/>
<feBlend mode="normal" in2="effect1_backgroundBlur" result="effect2_dropShadow"/>
<feBlend mode="normal" in="SourceGraphic" in2="effect2_dropShadow" result="shape"/>
<feColorMatrix in="SourceAlpha" type="matrix" values="0 0 0 0 0 0 0 0 0 0 0 0 0 0 0 0 0 0 127 0" result="hardAlpha"/>
<feMorphology radius="0.5" operator="erode" in="SourceAlpha" result="effect3_innerShadow"/>
<feOffset/>
<feComposite in2="hardAlpha" operator="arithmetic" k2="-1" k3="1"/>
<feColorMatrix type="matrix" values="0 0 0 0 1 0 0 0 0 1 0 0 0 0 1 0 0 0 0.2 0"/>
<feBlend mode="normal" in2="shape" result="effect3_innerShadow"/>
</filter>
<radialGradient id="paint0_radial" cx="0" cy="0" r="1" gradientUnits="userSpaceOnUse" gradientTransform="translate(183 120) rotate(-168.071) scale(408.695 349.103)">
<stop stop-color="#FD3F33"/>
<stop offset="0.458333" stop-color="#4C00C8"/>
<stop offset="1" stop-color="#4C00C8"/>
</radialGradient>
<linearGradient id="paint1_linear" x1="160.02" y1="11" x2="150.872" y2="35.566" gradientUnits="userSpaceOnUse">
<stop stop-color="#FC594F"/>
<stop offset="1" stop-color="#491EB8"/>
</linearGradient>
<clipPath id="clip0">
<rect width="110" height="92.4664" fill="white" transform="translate(10.9226 10.9233)"/>
</clipPath>
<clipPath id="clip1">
<rect width="110" height="24.1851" fill="white" transform="translate(10.9226 10.9233)"/>
</clipPath>
<clipPath id="clip2">
<rect width="58.997" height="39.3313" fill="white" transform="translate(10.9226 64.0583)"/>
</clipPath>
<clipPath id="clip3">
<rect width="45.3403" height="19.6657" fill="white" transform="translate(10.9226 83.7241)"/>
</clipPath>
<clipPath id="clip4">
<rect width="37.1463" height="17.4806" fill="white" transform="translate(124.002 86.3083)"/>
</clipPath>
<clipPath id="clip5">
<rect width="28.9522" height="4.37015" fill="white" transform="translate(124.002 99.4187)"/>
</clipPath>
</defs>
</svg>
